<?xml version="1.0" encoding="UTF-8" standalone="no"?>
<!-- Created with Inkscape (http://www.inkscape.org/) -->

<svg
   xmlns:dc="http://purl.org/dc/elements/1.1/"
   xmlns:cc="http://creativecommons.org/ns#"
   xmlns:rdf="http://www.w3.org/1999/02/22-rdf-syntax-ns#"
   xmlns:svg="http://www.w3.org/2000/svg"
   xmlns="http://www.w3.org/2000/svg"
   xmlns:sodipodi="http://sodipodi.sourceforge.net/DTD/sodipodi-0.dtd"
   xmlns:inkscape="http://www.inkscape.org/namespaces/inkscape"
   width="82.652168mm"
   height="73.622566mm"
   viewBox="0 0 82.652168 73.622566"
   version="1.1"
   id="svg18558"
   inkscape:version="0.92.3 (unknown)"
   sodipodi:docname="brain.svg">
  <defs
     id="defs18552" />
  <sodipodi:namedview
     id="base"
     pagecolor="#ffffff"
     bordercolor="#666666"
     borderopacity="1.0"
     inkscape:pageopacity="0.0"
     inkscape:pageshadow="2"
     inkscape:zoom="0.35"
     inkscape:cx="-1059.5212"
     inkscape:cy="10.55784"
     inkscape:document-units="mm"
     inkscape:current-layer="layer1"
     showgrid="false"
     inkscape:window-width="3440"
     inkscape:window-height="1385"
     inkscape:window-x="0"
     inkscape:window-y="27"
     inkscape:window-maximized="1" />
  <metadata
     id="metadata18555">
    <rdf:RDF>
      <cc:Work
         rdf:about="">
        <dc:format>image/svg+xml</dc:format>
        <dc:type
           rdf:resource="http://purl.org/dc/dcmitype/StillImage" />
        <dc:title></dc:title>
      </cc:Work>
    </rdf:RDF>
  </metadata>
  <g
     inkscape:label="Layer 1"
     inkscape:groupmode="layer"
     id="layer1"
     transform="translate(-231.57273,-78.004197)">
    <g
       transform="translate(415.77381,173.42439)"
       id="g18538">
      <path
         sodipodi:nodetypes="ccscc"
         inkscape:connector-curvature="0"
         id="path18420"
         transform="matrix(0.26458333,0,0,0.26458333,-50.412328,-73.436625)"
         d="m -349.46484,163.28125 c -24.27115,0.18792 -66.21754,-17.95063 -56.07032,17.92383 3.73459,7.94334 16.07033,12.07617 56.07032,12.07617 40.00002,0 52.33572,-4.13283 56.07031,-12.07617 9.08951,-36.89392 -32.87681,-16.96159 -56.07031,-17.92383 z"
         style="fill:#ac7472;fill-opacity:1;stroke:#000000;stroke-width:3.77952766;stroke-linecap:round;stroke-linejoin:miter;stroke-miterlimit:4;stroke-dasharray:none;stroke-opacity:1" />
      <path
         id="path18533"
         style="fill:#d6b5b2;fill-opacity:1;stroke:#000000;stroke-width:1;stroke-linecap:round;stroke-linejoin:round;stroke-miterlimit:4;stroke-dasharray:none;stroke-opacity:1"
         d="M -142.875,-30.235025 V -85.79753 c 0,-10.11846 10.58334,-10.58333 15.04973,-7.29266 3.47111,-0.64484 8.76277,2.00099 11.59759,4.78857 5.12481,2.18455 10.39435,5.14993 10.20536,10.58334 2.83482,5.14992 5.06755,11.534249 2.17336,18.237348 2.82567,6.743199 2.21448,15.923231 -1.06608,18.742654 5.2e-4,6.048363 -1.07268,10.389219 -8.54622,11.004383 -0.81583,2.095186 -5.86797,4.89405 -9.57737,3.781472 -0.66368,0.621648 -4.35246,1.567567 -6.74744,-1.100623 -3.78546,1.268444 -8.97767,2.147156 -11.55965,1.003401 -1.62319,-0.719035 -1.54801,-2.924351 -1.52924,-4.18538 z m 0,0 V -85.79753 c 0,-10.11846 -10.58333,-10.58333 -15.04973,-7.29266 -3.4711,-0.64484 -8.76277,2.00099 -11.59759,4.78857 -5.12481,2.18455 -10.39435,5.14993 -10.20536,10.58334 -2.83482,5.14992 -5.06755,11.534249 -2.17336,18.237348 -2.82567,6.743199 -2.21448,15.923231 1.06608,18.742654 -5.2e-4,6.048363 1.07268,10.389219 8.54622,11.004383 0.81583,2.095186 5.86798,4.89405 9.57737,3.781472 0.66369,0.621648 4.35246,1.567567 6.74744,-1.100623 3.78547,1.268444 8.97767,2.147156 11.55965,1.003401 1.62319,-0.719035 1.54801,-2.924351 1.52924,-4.18538 z"
         inkscape:connector-curvature="0"
         sodipodi:nodetypes="csccccccccscccsccccccccscc" />
      <path
         sodipodi:nodetypes="cccccccccccccccccsccccccccccccccccccscccccccccccccsccccscccsccccccccscccccccccccccccccccsccccccccccccccccccscccccccccccccsccccccccsccccccccscc"
         inkscape:connector-curvature="0"
         d="m -129.78607,-27.053047 c 1.62568,-0.621304 3.37445,-1.107202 4.39957,-2.389108 m 3.97564,0.835217 c -0.35397,1.67744 -0.95431,2.146792 -1.62777,2.654512 m 9.57737,-3.781471 c -1.0223,0.0015 -2.3887,0.302989 -3.52295,-1.027901 0.15622,1.090829 0.12851,1.078661 -0.30068,2.104747 m 12.30168,-25.126021 c 0.0331,3.061423 0.54243,6.192137 -0.67615,8.270502 -1.04289,1.778723 -2.45949,3.204143 -4.87772,3.491006 -0.52905,3.495787 -4.12561,4.662812 -6.26208,4.442371 -0.40424,2.584957 -4.97705,5.220206 -8.38587,5.462475 m 0.33645,-3.475422 c 0,0 -9.59282,6.5777 -18.02642,1.829373 m 27.12293,-14.975453 c 0,0 -1.79912,4.740117 -3.71634,6.199163 -1.92264,1.463175 -4.56684,1.648468 -6.98508,1.935331 -0.691,1.18791 -3.4342,3.984659 -5.15177,4.22976 -3.95274,0.564064 -6.03843,-0.616073 -7.21153,-1.587405 m 26.98284,-25.470808 c 1.46734,0.979124 5.01256,3.525378 5.2304,6.227461 0.19635,2.435474 -0.52477,4.811656 -1.00179,6.481988 -0.4907,1.718193 -1.44964,2.72618 -2.78757,3.118303 -2.03139,0.595361 -4.50088,-0.335489 -6.1185,-1.700892 -0.7914,-0.668008 -1.32291,-2.811198 -1.32291,-2.811198 m -14.45735,6.00649 c -1.10966,-0.832153 -1.62967,-2.858556 -0.87135,-4.318169 m 1.19578,-5.610153 c 0,0 -1.26937,-3.63941 -10.90776,1.085292 m 15.45134,-9.39988 c 0,0 -5.81295,-3.205097 -15.45134,1.519605 m 30.87569,7.480395 c -2.1905,-2.07283 -3.80436,-3.185891 -7.06319,-3.419291 m 15.21354,-0.708706 c -0.29232,0.641281 -2.12523,2.317757 -2.75459,2.276217 m -9.81311,-15.363643 c 0.84263,0.676848 1.5068,0.410047 2.4144,0.358246 2.33767,-0.133423 3.46147,1.290232 5.66025,3.167187 m 2.31969,-8.675359 c -4.15456,-4.231784 -8.27238,-8.287628 -10.39434,-2.787574 m -0.86857,2.429046 c -3.63571,-2.914369 -7.53865,-4.897052 -14.04871,-3.795172 m -5.51458,3.373457 c 0,0 -4.26223,-2.408687 -3.49025,-4.692069 1.10284,-3.261962 4.30471,-2.937849 5.52767,-2.366692 m 4.88179,8.638438 c -1.04806,-0.705291 -4.01159,-3.64889 -12.94569,0.283483 m 23.61915,9.005697 c -3.70561,-4.274955 -15.88196,-5.860506 -18.56689,-2.471828 m -5.05226,-15.696027 c 0,0 1.74993,-5.515642 13.22917,-2.645833 10.58333,2.645833 13.22917,7.9375 13.22917,7.9375 0,0 -2.64584,5.291667 0,7.9375 -1.51246,1.512456 -3.3405,3.77038 -2.83919,4.938688 2.0985,4.890525 1.50361,6.183584 0.19335,8.857443 -0.9068,1.675133 -2.52927,3.214103 -4.11049,8.598958 -0.88301,3.007106 -6.45596,6.777771 -9.11868,4.063244 -8.25688,5.791172 -9.10249,2.62912 -10.58333,0 m 0,15.875 v -55.5625 c 0,-10.11846 10.58334,-10.583333 15.04973,-7.292659 3.47111,-0.644841 8.76277,2.000993 11.59759,4.788567 5.12481,2.184548 10.39435,5.149926 10.20536,10.583333 2.83482,5.149926 5.06755,11.534253 2.17336,18.237352 2.82567,6.743199 2.21448,15.923231 -1.06608,18.742654 5.2e-4,6.048363 -1.07268,10.389219 -8.54622,11.004383 -0.81583,2.095186 -5.86797,4.89405 -9.57737,3.781472 -0.66368,0.621648 -4.35246,1.567567 -6.74744,-1.100623 -3.78546,1.268444 -8.97767,2.147156 -11.55965,1.003401 -1.62319,-0.719035 -1.54801,-2.924351 -1.52924,-4.18538 z m -13.08893,3.18198 c -1.62567,-0.621304 -3.37444,-1.107202 -4.39957,-2.389108 m -3.97564,0.835217 c 0.35397,1.67744 0.95431,2.146792 1.62777,2.654512 m -9.57737,-3.781471 c 1.0223,0.0015 2.3887,0.302989 3.52295,-1.027901 -0.15622,1.090829 -0.12851,1.078661 0.30068,2.104747 m -12.30168,-25.126021 c -0.0331,3.061423 -0.54243,6.192137 0.67615,8.270502 1.04289,1.778723 2.45949,3.204143 4.87772,3.491006 0.52905,3.495787 4.12561,4.662812 6.26208,4.442371 0.40425,2.584957 4.97706,5.220206 8.38587,5.462475 m -0.33645,-3.475422 c 0,0 9.59283,6.5777 18.02642,1.829373 m -27.12293,-14.975453 c 0,0 1.79913,4.740117 3.71634,6.199163 1.92264,1.463175 4.56685,1.648468 6.98508,1.935331 0.691,1.18791 3.43421,3.984659 5.15177,4.22976 3.95274,0.564064 6.03844,-0.616073 7.21153,-1.587405 m -26.98284,-25.470808 c -1.46734,0.979124 -5.01256,3.525378 -5.2304,6.227461 -0.19635,2.435474 0.52477,4.811656 1.00179,6.481988 0.4907,1.718193 1.44964,2.72618 2.78757,3.118303 2.03139,0.595361 4.50088,-0.335489 6.1185,-1.700892 0.7914,-0.668008 1.32291,-2.811198 1.32291,-2.811198 m 14.45735,6.00649 c 1.10967,-0.832153 1.62968,-2.858556 0.87136,-4.318169 m -1.19578,-5.610153 c 0,0 1.26936,-3.63941 10.90775,1.085292 m -15.45133,-9.39988 c 0,0 5.81294,-3.205097 15.45133,1.519605 m -30.87569,7.480395 c 2.1905,-2.07283 3.80436,-3.185891 7.06319,-3.419291 m -15.21354,-0.708706 c 0.29232,0.641281 2.12523,2.317757 2.75459,2.276217 m 9.81311,-15.363643 c -0.84263,0.676848 -1.5068,0.410047 -2.4144,0.358246 -2.33767,-0.133423 -3.46147,1.290232 -5.66025,3.167187 m -2.31969,-8.675359 c 4.15456,-4.231784 8.27238,-8.287628 10.39434,-2.787574 m 0.86858,2.429046 c 3.6357,-2.914369 7.53865,-4.897052 14.0487,-3.795172 m 5.51459,3.373457 c 0,0 4.26223,-2.408687 3.49024,-4.692069 -1.10283,-3.261962 -4.3047,-2.937849 -5.52766,-2.366692 m -4.88179,8.638438 c 1.04806,-0.705291 4.01158,-3.64889 12.94568,0.283483 m -23.61915,9.005697 c 3.70561,-4.274955 15.88196,-5.860506 18.56689,-2.471828 m 5.05226,-15.696027 c 0,0 -1.74993,-5.515642 -13.22917,-2.645833 -10.58333,2.645833 -13.22917,7.9375 -13.22917,7.9375 0,0 2.64584,5.291667 0,7.9375 1.51246,1.512456 3.3405,3.77038 2.83919,4.938688 -2.0985,4.890525 -1.50361,6.183584 -0.19335,8.857443 0.90681,1.675133 2.52927,3.214103 4.11049,8.598958 0.88302,3.007106 6.45596,6.777771 9.11868,4.063244 8.25689,5.791172 9.1025,2.62912 10.58333,0 m 0,15.875 v -55.5625 c 0,-10.11846 -10.58333,-10.583333 -15.04973,-7.292659 -3.4711,-0.644841 -8.76277,2.000993 -11.59759,4.788567 -5.12481,2.184548 -10.39435,5.149926 -10.20536,10.583333 -2.83482,5.149926 -5.06755,11.534253 -2.17336,18.237352 -2.82567,6.743199 -2.21448,15.923231 1.06608,18.742654 -5.2e-4,6.048363 1.07268,10.389219 8.54622,11.004383 0.81583,2.095186 5.86798,4.89405 9.57737,3.781472 0.66369,0.621648 4.35246,1.567567 6.74744,-1.100623 3.78547,1.268444 8.97767,2.147156 11.55965,1.003401 1.62319,-0.719035 1.54801,-2.924351 1.52924,-4.18538 z"
         style="fill:none;fill-opacity:1;stroke:#000000;stroke-width:1;stroke-linecap:round;stroke-linejoin:round;stroke-miterlimit:4;stroke-dasharray:none;stroke-opacity:1"
         id="path18483" />
    </g>
  </g>
</svg>
