<?xml version="1.0" encoding="UTF-8" standalone="no"?>
<!-- Created with Inkscape (http://www.inkscape.org/) -->

<svg
   xmlns:dc="http://purl.org/dc/elements/1.1/"
   xmlns:cc="http://creativecommons.org/ns#"
   xmlns:rdf="http://www.w3.org/1999/02/22-rdf-syntax-ns#"
   xmlns:svg="http://www.w3.org/2000/svg"
   xmlns="http://www.w3.org/2000/svg"
   xmlns:sodipodi="http://sodipodi.sourceforge.net/DTD/sodipodi-0.dtd"
   xmlns:inkscape="http://www.inkscape.org/namespaces/inkscape"
   width="11.959678mm"
   height="17.960281mm"
   viewBox="0 0 11.959677 17.960281"
   version="1.1"
   id="svg8"
   inkscape:version="0.92.3 (2405546, 2018-03-11)"
   sodipodi:docname="cell1.svg">
  <defs
     id="defs2" />
  <sodipodi:namedview
     id="base"
     pagecolor="#ffffff"
     bordercolor="#666666"
     borderopacity="1.0"
     inkscape:pageopacity="0.0"
     inkscape:pageshadow="2"
     inkscape:zoom="1.4"
     inkscape:cx="-225.9414"
     inkscape:cy="-26.602258"
     inkscape:document-units="mm"
     inkscape:current-layer="layer1"
     showgrid="false"
     inkscape:window-width="1720"
     inkscape:window-height="1385"
     inkscape:window-x="0"
     inkscape:window-y="27"
     inkscape:window-maximized="0" />
  <metadata
     id="metadata5">
    <rdf:RDF>
      <cc:Work
         rdf:about="">
        <dc:format>image/svg+xml</dc:format>
        <dc:type
           rdf:resource="http://purl.org/dc/dcmitype/StillImage" />
        <dc:title></dc:title>
      </cc:Work>
    </rdf:RDF>
  </metadata>
  <g
     inkscape:label="Layer 1"
     inkscape:groupmode="layer"
     id="layer1"
     transform="translate(-411.74779,-127.8981)">
    <rect
       style="display:inline;fill:none;fill-opacity:1;stroke:#969696;stroke-width:2.35867214;stroke-linecap:round;stroke-linejoin:round;stroke-miterlimit:4;stroke-dasharray:none;stroke-opacity:1"
       id="rect1141-7"
       width="9.6010056"
       height="15.601609"
       x="412.92712"
       y="129.07744" />
    <rect
       style="display:inline;fill:#ffffc8;fill-opacity:1;stroke:#ffffc8;stroke-width:1.81436336;stroke-linecap:round;stroke-linejoin:round;stroke-miterlimit:4;stroke-dasharray:none;stroke-opacity:1"
       id="rect1141-5-97"
       width="9.6010056"
       height="15.601609"
       x="412.92712"
       y="129.07744" />
    <ellipse
       style="display:inline;fill:#c8ffff;fill-opacity:1;stroke:#969696;stroke-width:0.27215451;stroke-linecap:round;stroke-linejoin:round;stroke-miterlimit:4;stroke-dasharray:none;stroke-opacity:1"
       id="path1162-4"
       cx="417.7276"
       cy="142.2578"
       rx="3.6003771"
       ry="2.4002476" />
    <path
       style="display:inline;fill:#c8ffc8;fill-opacity:1;stroke:#969696;stroke-width:0.27215451;stroke-linecap:butt;stroke-linejoin:round;stroke-miterlimit:4;stroke-dasharray:none;stroke-opacity:1"
       d="m 415.32735,138.67842 h -1.20013 c -0.60006,0 -1.17423,0.16482 -1.17286,0.60468 10e-4,0.43845 0.73441,0.59544 1.17286,0.59544 1.20013,0 2.38053,-0.65543 3.60038,-0.65543 1.21985,0 2.40025,0.65543 3.60038,0.65543 0.44296,0 1.18665,-0.15249 1.18802,-0.59544 10e-4,-0.44435 -0.58796,-0.60468 -1.18802,-0.60468 h -1.20013 c -1.20012,0 -1.20012,-0.92806 0,-0.92806 h 1.20013 c 1.20013,0 1.20013,-1.20012 0,-1.20012 h -2.21889 c -1.20013,0 -1.20013,-0.9283 0,-0.9283 h 2.21889 c 1.20013,0 1.20013,-1.20013 0,-1.20013 h -3.60038 -3.60038 c -1.20012,0 -1.30025,1.16103 0,1.20013 h 2.21859 c 1.20013,0 1.20013,0.9283 0,0.9283 h -2.21859 c -1.20012,0 -1.20012,1.20012 0,1.20012 h 1.20013 c 1.20013,0 1.20013,0.92806 0,0.92806 z"
       id="path1164-91"
       inkscape:connector-curvature="0"
       sodipodi:nodetypes="scasasacscccccccccccccccs" />
    <path
       style="display:inline;fill:#c8ffc8;fill-opacity:1;stroke:#969696;stroke-width:0.27215451;stroke-linecap:butt;stroke-linejoin:round;stroke-miterlimit:4;stroke-dasharray:none;stroke-opacity:1"
       d="m 414.58044,132.40524 c -1.20013,0 -1.20013,1.20012 0,1.20012 h 6.29402 c 1.20013,0 1.20013,-1.20012 0,-1.20012 z"
       id="path1168-7"
       inkscape:connector-curvature="0"
       sodipodi:nodetypes="ccccc" />
    <path
       style="display:inline;fill:#c8c8ff;fill-opacity:1;stroke:#969696;stroke-width:0.27215451;stroke-linecap:round;stroke-linejoin:round;stroke-miterlimit:4;stroke-dasharray:none;stroke-opacity:1"
       d="m 417.7276,130.27756 c 0,1.20012 -1.40603,1.20012 -2.40025,1.20012 -0.99422,0 -2.40025,0 -2.40025,-1.20012 0,-1.20013 1.40603,-1.20013 2.40025,-1.20013 0.99422,0 2.40025,0 2.40025,1.20013 z"
       id="path1170-0"
       inkscape:connector-curvature="0"
       sodipodi:nodetypes="sssss" />
  </g>
</svg>
