<?xml version="1.0" encoding="UTF-8" standalone="no"?>
<!-- Created with Inkscape (http://www.inkscape.org/) -->

<svg
   xmlns:dc="http://purl.org/dc/elements/1.1/"
   xmlns:cc="http://creativecommons.org/ns#"
   xmlns:rdf="http://www.w3.org/1999/02/22-rdf-syntax-ns#"
   xmlns:svg="http://www.w3.org/2000/svg"
   xmlns="http://www.w3.org/2000/svg"
   xmlns:sodipodi="http://sodipodi.sourceforge.net/DTD/sodipodi-0.dtd"
   xmlns:inkscape="http://www.inkscape.org/namespaces/inkscape"
   width="11.959673mm"
   height="19.160385mm"
   viewBox="0 0 11.959672 19.160385"
   version="1.1"
   id="svg8"
   inkscape:version="0.92.3 (2405546, 2018-03-11)"
   sodipodi:docname="cell2.svg">
  <defs
     id="defs2" />
  <sodipodi:namedview
     id="base"
     pagecolor="#ffffff"
     bordercolor="#666666"
     borderopacity="1.0"
     inkscape:pageopacity="0.0"
     inkscape:pageshadow="2"
     inkscape:zoom="1.4"
     inkscape:cx="-337.62617"
     inkscape:cy="27.463471"
     inkscape:document-units="mm"
     inkscape:current-layer="layer1"
     showgrid="false"
     inkscape:window-width="1720"
     inkscape:window-height="1385"
     inkscape:window-x="0"
     inkscape:window-y="27"
     inkscape:window-maximized="0" />
  <metadata
     id="metadata5">
    <rdf:RDF>
      <cc:Work
         rdf:about="">
        <dc:format>image/svg+xml</dc:format>
        <dc:type
           rdf:resource="http://purl.org/dc/dcmitype/StillImage" />
        <dc:title></dc:title>
      </cc:Work>
    </rdf:RDF>
  </metadata>
  <g
     inkscape:label="Layer 1"
     inkscape:groupmode="layer"
     id="layer1"
     transform="translate(-441.29772,-141.00289)">
    <path
       sodipodi:nodetypes="ccccccccccccccccc"
       inkscape:connector-curvature="0"
       id="rect1141-8-8"
       d="m 442.47705,143.38234 2.40025,-1.20013 2.40025,1.20013 2.40026,-1.20013 2.40025,1.20013 -1.20013,3.60037 1.20013,4.20044 -1.20013,4.20042 1.20013,3.60038 -2.40025,-1.20012 -2.40026,1.20012 -2.40025,-1.20012 -2.40025,1.20012 1.20013,-3.60038 -1.20013,-4.20042 1.20013,-4.20044 z"
       style="display:inline;fill:none;fill-opacity:1;stroke:#969696;stroke-width:2.35867214;stroke-linecap:round;stroke-linejoin:round;stroke-miterlimit:4;stroke-dasharray:none;stroke-opacity:1" />
    <path
       sodipodi:nodetypes="ccccccccccccccccc"
       inkscape:connector-curvature="0"
       id="rect1141-5-9-5"
       d="m 442.47705,143.38233 2.40025,-1.20012 2.40025,1.20013 2.40026,-1.20013 2.40025,1.20013 -1.20013,3.60037 1.20013,4.20044 -1.20013,4.20042 1.20013,3.60038 -2.40025,-1.20012 -2.40026,1.20012 -2.40025,-1.20012 -2.40025,1.20012 1.20013,-3.60038 -1.20013,-4.20043 1.20013,-4.20043 z"
       style="display:inline;fill:#ffcbcb;fill-opacity:1;stroke:#ffcbcb;stroke-width:1.81436336;stroke-linecap:round;stroke-linejoin:round;stroke-miterlimit:4;stroke-dasharray:none;stroke-opacity:1" />
    <ellipse
       style="display:inline;fill:#c8ffff;fill-opacity:1;stroke:#969696;stroke-width:0.27215451;stroke-linecap:round;stroke-linejoin:round;stroke-miterlimit:4;stroke-dasharray:none;stroke-opacity:1"
       id="path1162-6-39"
       cx="447.27756"
       cy="156.56271"
       rx="3.6003771"
       ry="2.4002476" />
    <path
       style="display:inline;fill:#c8ffc8;fill-opacity:1;stroke:#969696;stroke-width:0.27215451;stroke-linecap:butt;stroke-linejoin:round;stroke-miterlimit:4;stroke-dasharray:none;stroke-opacity:1"
       d="m 444.8773,152.98332 h -1.20012 c -0.60007,0 -1.17424,0.16483 -1.17287,0.60468 0.001,0.43845 0.73441,0.59545 1.17287,0.59545 1.20012,0 2.38052,-0.65543 3.60037,-0.65543 1.21985,0 2.40026,0.65543 3.60038,0.65543 0.44297,0 1.18665,-0.1525 1.18802,-0.59545 0.001,-0.44435 -0.58795,-0.60468 -1.18802,-0.60468 h -1.20012 c -1.20013,0 -1.20013,-0.92805 0,-0.92805 h 1.20012 c 1.20013,0 1.20013,-1.20013 0,-1.20013 h -2.21889 c -1.20013,0 -1.20013,-0.9283 0,-0.9283 h 2.21889 c 1.20013,0 1.20013,-1.20012 0,-1.20012 h -3.60038 -3.60037 c -1.20013,0 -1.30025,1.16102 0,1.20012 h 2.21858 c 1.20013,0 1.20013,0.9283 0,0.9283 h -2.21858 c -1.20013,0 -1.20013,1.20013 0,1.20013 h 1.20012 c 1.20013,0 1.20013,0.92805 0,0.92805 z"
       id="path1164-4-4"
       inkscape:connector-curvature="0"
       sodipodi:nodetypes="scasasacscccccccccccccccs" />
    <path
       style="display:inline;fill:#c8ffc8;fill-opacity:1;stroke:#969696;stroke-width:0.27215451;stroke-linecap:butt;stroke-linejoin:round;stroke-miterlimit:4;stroke-dasharray:none;stroke-opacity:1"
       d="m 444.13039,146.71014 c -1.20013,0 -1.20013,1.20012 0,1.20012 h 6.29403 c 1.20012,0 1.20012,-1.20012 0,-1.20012 z"
       id="path1168-3-1"
       inkscape:connector-curvature="0"
       sodipodi:nodetypes="ccccc" />
    <path
       style="display:inline;fill:#c8c8ff;fill-opacity:1;stroke:#969696;stroke-width:0.27215451;stroke-linecap:round;stroke-linejoin:round;stroke-miterlimit:4;stroke-dasharray:none;stroke-opacity:1"
       d="m 447.27755,144.58246 c 0,1.20013 -1.40603,1.20013 -2.40025,1.20013 -0.99421,0 -2.40025,0 -2.40025,-1.20013 0,-1.20012 1.40604,-1.20012 2.40025,-1.20012 0.99422,0 2.40025,0 2.40025,1.20012 z"
       id="path1170-3-5"
       inkscape:connector-curvature="0"
       sodipodi:nodetypes="sssss" />
  </g>
</svg>
