<?xml version="1.0" encoding="UTF-8" standalone="no"?>
<!-- Created with Inkscape (http://www.inkscape.org/) -->

<svg
   xmlns:dc="http://purl.org/dc/elements/1.1/"
   xmlns:cc="http://creativecommons.org/ns#"
   xmlns:rdf="http://www.w3.org/1999/02/22-rdf-syntax-ns#"
   xmlns:svg="http://www.w3.org/2000/svg"
   xmlns="http://www.w3.org/2000/svg"
   xmlns:sodipodi="http://sodipodi.sourceforge.net/DTD/sodipodi-0.dtd"
   xmlns:inkscape="http://www.inkscape.org/namespaces/inkscape"
   width="29.503784mm"
   height="95.925232mm"
   viewBox="0 0 29.503782 95.925231"
   version="1.1"
   id="svg8"
   inkscape:version="0.92.3 (2405546, 2018-03-11)"
   sodipodi:docname="human.svg">
  <defs
     id="defs2" />
  <sodipodi:namedview
     id="base"
     pagecolor="#ffffff"
     bordercolor="#666666"
     borderopacity="1.0"
     inkscape:pageopacity="0.0"
     inkscape:pageshadow="2"
     inkscape:zoom="1.4"
     inkscape:cx="55.7552"
     inkscape:cy="181.27604"
     inkscape:document-units="mm"
     inkscape:current-layer="layer1"
     showgrid="false"
     inkscape:window-width="1720"
     inkscape:window-height="1385"
     inkscape:window-x="0"
     inkscape:window-y="27"
     inkscape:window-maximized="0" />
  <metadata
     id="metadata5">
    <rdf:RDF>
      <cc:Work
         rdf:about="">
        <dc:format>image/svg+xml</dc:format>
        <dc:type
           rdf:resource="http://purl.org/dc/dcmitype/StillImage" />
        <dc:title></dc:title>
      </cc:Work>
    </rdf:RDF>
  </metadata>
  <g
     inkscape:label="Layer 1"
     inkscape:groupmode="layer"
     id="layer1"
     transform="translate(-337.21557,-104.93429)">
    <path
       style="display:inline;fill:#f0d6b7;fill-opacity:1;stroke:#c8b899;stroke-width:0.26499999;stroke-linecap:butt;stroke-linejoin:miter;stroke-miterlimit:4;stroke-dasharray:none;stroke-opacity:1"
       d="m 351.88101,105.07401 v 0.007 c -0.76977,0.0446 -3.90643,0.40179 -5.0585,3.27182 -0.82174,2.04715 0.24571,3.85893 -0.83775,3.14842 -0.39766,-0.26077 -0.56486,0.18955 -0.48182,0.96607 0.083,0.77654 0.67374,1.66147 0.79837,2.10968 0.60011,2.15814 0.55144,-0.65947 0.94829,0.97406 0.0979,0.40288 0.22553,1.04733 0.68677,1.89398 0.31328,0.57505 0.71104,0.83014 1.37998,1.14283 0.64843,0.3031 0.56423,1.18851 0.26713,2.59471 -0.37064,1.75423 -0.35459,2.08686 -1.40996,2.46701 -3.67556,1.32394 -0.98738,0.56013 -5.76566,1.04411 -3.82767,0.38769 -4.231,4.46037 -3.66564,7.42893 0.33063,1.73603 -0.825,2.23277 -0.64063,5.07567 0.18653,2.87611 0.71056,5.09928 0.21247,6.33332 -0.63848,1.58185 -0.44789,5.87186 -0.11482,9.10079 0.23039,2.23356 -1.36306,3.80251 -0.54405,5.48989 1.02447,2.11067 1.94602,4.23968 2.37365,3.80512 0.68426,-0.6953 -0.15875,-1.1771 -0.56014,-2.88979 -0.35165,-1.50038 0.0257,-3.09869 0.22427,-3.29866 0.43598,-0.43906 0.66806,4.08021 1.34242,3.11946 0.59678,-0.85022 -0.96417,-4.99646 -0.7651,-5.99529 0.93459,-4.68936 1.82235,-6.20512 1.20721,-9.81441 -0.28199,-1.65456 0.76611,-2.46002 0.94002,-5.31067 0.16265,-2.66631 -0.24713,-3.76568 0.16847,-4.43719 0.3715,-0.60024 0.48641,-1.57438 0.51186,-2.37258 0.0946,2.31605 0.31644,6.20094 1.18146,7.77447 0.48838,0.88838 0.38194,2.52697 0.5136,5.55211 0.21094,4.84699 -0.46247,7.80136 -0.66449,11.70363 -0.23671,4.57214 -1.26165,8.23086 -0.64166,13.71978 0.47095,4.16931 0.88727,5.57751 1.10589,7.71976 0.0732,0.71762 -0.2701,2.77595 0.28973,7.97617 0.93309,8.66736 1.27146,8.32446 -0.86704,10.88533 -0.90891,1.08845 0.0642,0.62935 -2.27386,1.84893 -3.26757,1.70448 -3.42931,0.45686 -3.9028,1.12458 -1.58899,2.24088 1.14489,0.94592 1.82961,1.1922 0.65181,0.23444 1.15502,0.33955 2.0646,0.23395 5.22269,-0.60657 1.58557,-0.44316 6.63486,0.0611 1.27046,0.12683 2.07149,-1.51767 1.31238,-3.32225 -1.22504,-2.91217 1.12759,-9.2195 0.8767,-11.99062 -0.50178,-5.54226 -1.65609,-6.6022 -1.14175,-8.03949 1.60888,-4.49607 1.74372,-15.21637 1.67722,-16.49863 -0.0431,-0.83074 0.67059,-1.30377 0.87563,-1.42398 0.20631,0.12106 0.91757,0.59445 0.87456,1.42398 -0.0665,1.28226 0.0683,12.00256 1.67723,16.49863 0.51433,1.43729 -0.63998,2.49723 -1.14176,8.03949 -0.25089,2.77112 2.10174,9.07845 0.87671,11.99062 -0.75912,1.80458 0.043,3.44911 1.31345,3.32225 5.04928,-0.50431 1.4111,-0.66772 6.63378,-0.0611 0.90959,0.10572 1.41386,5.3e-4 2.06568,-0.23395 0.68471,-0.24628 3.41752,1.04868 1.82853,-1.1922 -0.47348,-0.66772 -0.63415,0.5799 -3.90172,-1.12458 -2.33804,-1.21958 -1.36603,-0.76048 -2.27493,-1.84893 -2.1385,-2.56087 -1.79906,-2.21797 -0.86598,-10.88533 0.55984,-5.20022 0.21649,-7.25855 0.28973,-7.97617 0.21863,-2.14225 0.63377,-3.55045 1.10471,-7.71976 0.62,-5.48892 -0.40281,-9.14768 -0.63958,-13.71978 -0.20206,-3.90231 -0.87751,-6.85664 -0.66656,-11.70363 0.13164,-3.02514 0.0253,-4.66373 0.5137,-5.55211 0.86333,-1.57045 1.08648,-5.44354 1.18146,-7.76159 0.0263,0.7959 0.14341,1.76262 0.51293,2.3597 0.4156,0.67151 0.005,1.77088 0.16741,4.43719 0.17391,2.85065 1.22201,3.65611 0.94002,5.31067 -0.61514,3.60929 0.27369,5.12505 1.20829,9.8144 0.19905,0.99884 -1.36189,5.14508 -0.76511,5.9953 0.67437,0.96075 0.90537,-3.55852 1.34135,-3.11946 0.19856,0.19997 0.57592,1.79828 0.22428,3.29866 -0.4014,1.71269 -1.24334,2.19449 -0.55908,2.8898 0.42764,0.43455 1.34918,-1.69446 2.37365,-3.80513 0.81901,-1.68738 -0.77551,-3.25633 -0.54512,-5.48989 0.33307,-3.22893 0.52365,-7.51894 -0.11482,-9.10079 -0.49809,-1.23404 0.027,-3.45721 0.21354,-6.33332 0.18438,-2.8429 -0.97233,-3.33964 -0.6417,-5.07567 0.56537,-2.96856 0.16312,-7.04124 -3.66456,-7.42893 -4.77828,-0.48398 -2.09118,0.27983 -5.76673,-1.04411 -1.05538,-0.38015 -1.03945,-0.71278 -1.41009,-2.46701 -0.2971,-1.4062 -0.38116,-2.29161 0.26726,-2.59471 0.66893,-0.31269 1.0667,-0.56778 1.37998,-1.14283 0.46124,-0.84665 0.58888,-1.4911 0.68677,-1.89398 0.39684,-1.63353 0.34861,1.18408 0.94872,-0.97406 0.12463,-0.44821 0.7164,-1.13278 0.79945,-1.90931 0.083,-0.77653 -0.0852,-1.42721 -0.48289,-1.16644 -1.08347,0.71051 -0.0154,-1.10127 -0.83713,-3.14842 -1.15245,-2.87098 -4.2911,-3.22743 -5.05957,-3.27182 v -0.007 c 0,0 -0.0565,0.003 -0.0858,0.003 -0.0297,-8e-4 -0.0869,-0.003 -0.0869,-0.003 z"
       id="path40512"
       inkscape:connector-curvature="0"
       sodipodi:nodetypes="ccccccccssssscccccccccsccccsascscscccccscccccscccccscscsasccccsccccccccssssscscssscccccc" />
  </g>
</svg>
