<?xml version="1.0" encoding="UTF-8" standalone="no"?>
<!-- Created with Inkscape (http://www.inkscape.org/) -->

<svg
   xmlns:dc="http://purl.org/dc/elements/1.1/"
   xmlns:cc="http://creativecommons.org/ns#"
   xmlns:rdf="http://www.w3.org/1999/02/22-rdf-syntax-ns#"
   xmlns:svg="http://www.w3.org/2000/svg"
   xmlns="http://www.w3.org/2000/svg"
   xmlns:sodipodi="http://sodipodi.sourceforge.net/DTD/sodipodi-0.dtd"
   xmlns:inkscape="http://www.inkscape.org/namespaces/inkscape"
   width="3.4687998mm"
   height="5.0054398mm"
   viewBox="0 0 3.4687996 5.0054397"
   version="1.1"
   id="svg8"
   inkscape:version="0.92.3 (2405546, 2018-03-11)"
   sodipodi:docname="kidney.svg">
  <defs
     id="defs2" />
  <sodipodi:namedview
     id="base"
     pagecolor="#ffffff"
     bordercolor="#666666"
     borderopacity="1.0"
     inkscape:pageopacity="0.0"
     inkscape:pageshadow="2"
     inkscape:zoom="1.4"
     inkscape:cx="-356.40493"
     inkscape:cy="-19.354276"
     inkscape:document-units="mm"
     inkscape:current-layer="layer1"
     showgrid="false"
     inkscape:window-width="1720"
     inkscape:window-height="1385"
     inkscape:window-x="0"
     inkscape:window-y="27"
     inkscape:window-maximized="0" />
  <metadata
     id="metadata5">
    <rdf:RDF>
      <cc:Work
         rdf:about="">
        <dc:format>image/svg+xml</dc:format>
        <dc:type
           rdf:resource="http://purl.org/dc/dcmitype/StillImage" />
        <dc:title></dc:title>
      </cc:Work>
    </rdf:RDF>
  </metadata>
  <g
     inkscape:label="Layer 1"
     inkscape:groupmode="layer"
     id="layer1"
     transform="translate(-446.26627,-142.77064)">
    <path
       sodipodi:nodetypes="ssasccscssss"
       inkscape:connector-curvature="0"
       id="path40576"
       d="m 448.17619,142.90316 c 0.49089,0 1.18511,0.41192 1.18511,0.94808 0,0.35805 -0.42319,0.64033 -0.40268,0.99866 0.007,0.11544 -0.0112,0.21656 0.16567,0.30497 0.19027,0.0951 0.47828,0.19046 0.47828,0.19046 l -0.004,0.165 c 0,0 -0.23703,-0.11845 -0.47405,-0.11845 -0.23328,0 -0.20127,0.1645 -0.17704,0.27045 0.1275,0.40495 0.41407,0.66454 0.41407,1.03317 0,0.53614 -0.69422,0.94808 -1.18511,0.94808 -0.98178,0 -1.77767,-1.06119 -1.77767,-2.37022 0,-1.30904 0.79589,-2.37022 1.77767,-2.37022 z"
       style="display:inline;fill:#d1776f;fill-opacity:1;stroke:#9f453d;stroke-width:0.26499999;stroke-linecap:square;stroke-linejoin:round;stroke-miterlimit:4;stroke-dasharray:none;stroke-opacity:1" />
  </g>
</svg>
