<?xml version="1.0" encoding="UTF-8" standalone="no"?>
<!-- Created with Inkscape (http://www.inkscape.org/) -->

<svg
   xmlns:dc="http://purl.org/dc/elements/1.1/"
   xmlns:cc="http://creativecommons.org/ns#"
   xmlns:rdf="http://www.w3.org/1999/02/22-rdf-syntax-ns#"
   xmlns:svg="http://www.w3.org/2000/svg"
   xmlns="http://www.w3.org/2000/svg"
   xmlns:sodipodi="http://sodipodi.sourceforge.net/DTD/sodipodi-0.dtd"
   xmlns:inkscape="http://www.inkscape.org/namespaces/inkscape"
   width="14.876788mm"
   height="24.351238mm"
   viewBox="0 0 14.876787 24.351238"
   version="1.1"
   id="svg8"
   inkscape:version="0.92.3 (2405546, 2018-03-11)"
   sodipodi:docname="renal_sys.svg">
  <defs
     id="defs2" />
  <sodipodi:namedview
     id="base"
     pagecolor="#ffffff"
     bordercolor="#666666"
     borderopacity="1.0"
     inkscape:pageopacity="0.0"
     inkscape:pageshadow="2"
     inkscape:zoom="1.4"
     inkscape:cx="-228.76168"
     inkscape:cy="21.126173"
     inkscape:document-units="mm"
     inkscape:current-layer="layer1"
     showgrid="false"
     inkscape:window-width="1720"
     inkscape:window-height="1385"
     inkscape:window-x="0"
     inkscape:window-y="27"
     inkscape:window-maximized="0" />
  <metadata
     id="metadata5">
    <rdf:RDF>
      <cc:Work
         rdf:about="">
        <dc:format>image/svg+xml</dc:format>
        <dc:type
           rdf:resource="http://purl.org/dc/dcmitype/StillImage" />
        <dc:title></dc:title>
      </cc:Work>
    </rdf:RDF>
  </metadata>
  <g
     inkscape:label="Layer 1"
     inkscape:groupmode="layer"
     id="layer1"
     transform="translate(-436.87345,-144.34064)">
    <path
       sodipodi:nodetypes="ccsccssccsccssccsc"
       inkscape:connector-curvature="0"
       id="path11259"
       d="m 442.62321,144.90864 h 1.32291 c 0,0 0,5.29168 1.5e-4,7.11509 7e-5,0.90634 4.19967,0.32632 4.19967,0.32632 l 3.2e-4,0.82683 c 0,0 -4.20014,-0.30206 -4.20014,0.75328 0,0.99219 0.33073,2.70556 0.66146,4.17089 0.33073,1.46532 0.66146,4.18245 0.66146,4.18245 l -0.43023,8e-5 c 0,0 -1.04143,-5.04361 -1.55414,-5.04614 -0.42939,-0.002 -1.55386,5.04606 -1.55386,5.04606 l -0.43052,8e-5 c 0,0 0.33073,-2.71715 0.66146,-4.18249 0.33073,-1.46535 0.66146,-3.17874 0.66146,-4.17093 0,-1.26039 -2.10011,-0.75328 -2.10011,-0.75328 v -0.82683 c 0,0 2.10034,0.8124 2.10025,-0.32632 -1.4e-4,-1.82341 -1.4e-4,-7.11509 -1.4e-4,-7.11509 z"
       style="display:inline;opacity:1;fill:#0c86ff;fill-opacity:1;stroke:#6464ff;stroke-width:0.33541039;stroke-linecap:round;stroke-linejoin:round;stroke-miterlimit:4;stroke-dasharray:none;stroke-dashoffset:0;stroke-opacity:1;paint-order:normal" />
    <path
       style="display:inline;opacity:1;fill:#ff2f58;fill-opacity:1;stroke:#d7263d;stroke-width:0.33541039;stroke-linecap:round;stroke-linejoin:round;stroke-miterlimit:4;stroke-dasharray:none;stroke-dashoffset:0;stroke-opacity:1;paint-order:normal"
       d="m 444.0238,144.50835 h 1.32291 c 0,0 0,5.29168 1.5e-4,7.11509 7e-5,0.90634 2.69938,0.32632 2.69938,0.32632 l 3.2e-4,0.82683 c 0,0 -2.69985,-0.30206 -2.69985,0.75328 0,0.99219 0.33073,2.70556 0.66146,4.17089 0.33073,1.46532 0.66146,4.1826 0.66146,4.1826 l -0.43023,8e-5 c 0,0 -1.04143,-5.04347 -1.55415,-5.046 -0.42938,-0.002 -1.55385,5.04592 -1.55385,5.04592 l -0.43052,8e-5 c 0,0 0.33073,-2.7173 0.66146,-4.18264 0.33073,-1.46535 0.66146,-3.17874 0.66146,-4.17093 0,-1.26039 -3.4004,-0.75328 -3.4004,-0.75328 v -0.82683 c 0,0 3.40063,0.8124 3.40054,-0.32632 -1.4e-4,-1.82341 -1.4e-4,-7.11509 -1.4e-4,-7.11509 z"
       id="rect11256"
       inkscape:connector-curvature="0"
       sodipodi:nodetypes="ccsccssccsccssccsc" />
    <path
       style="color:#000000;font-style:normal;font-variant:normal;font-weight:normal;font-stretch:normal;font-size:medium;line-height:normal;font-family:sans-serif;font-variant-ligatures:normal;font-variant-position:normal;font-variant-caps:normal;font-variant-numeric:normal;font-variant-alternates:normal;font-feature-settings:normal;text-indent:0;text-align:start;text-decoration:none;text-decoration-line:none;text-decoration-style:solid;text-decoration-color:#000000;letter-spacing:normal;word-spacing:normal;text-transform:none;writing-mode:lr-tb;direction:ltr;text-orientation:mixed;dominant-baseline:auto;baseline-shift:baseline;text-anchor:start;white-space:normal;shape-padding:0;clip-rule:nonzero;display:inline;overflow:visible;visibility:visible;opacity:1;isolation:auto;mix-blend-mode:normal;color-interpolation:sRGB;color-interpolation-filters:linearRGB;solid-color:#000000;solid-opacity:1;vector-effect:none;fill:#9f453d;fill-opacity:1;fill-rule:nonzero;stroke:none;stroke-width:0.36021024;stroke-linecap:butt;stroke-linejoin:miter;stroke-miterlimit:4;stroke-dasharray:none;stroke-dashoffset:0;stroke-opacity:1;color-rendering:auto;image-rendering:auto;shape-rendering:auto;text-rendering:auto;enable-background:accumulate"
       d="m 447.16014,152.17783 0.11478,0.33687 c -0.16387,0.14444 -0.17693,0.129 -0.22894,0.36667 -0.052,0.23765 -0.0648,0.58685 -0.0398,1.00353 0.0499,0.83335 0.23584,1.9403 0.42477,3.08493 0.18894,1.14466 0.38177,2.32866 0.44602,3.33185 0.0642,1.0032 0.0286,1.82985 -0.36902,2.2991 l -0.27611,-0.23097 c 0.25383,-0.29952 0.34917,-1.06915 0.28672,-2.04423 -0.0624,-0.9751 -0.25451,-2.15056 -0.44336,-3.29467 -0.18885,-1.14413 -0.37553,-2.25788 -0.42743,-3.12477 -0.0259,-0.43344 -0.0788,-0.79297 -0.0908,-1.10176 -0.0118,-0.30356 0.17306,-0.72608 0.57928,-0.84431 z"
       id="path3886"
       inkscape:connector-curvature="0"
       sodipodi:nodetypes="cccssccccscscc" />
    <g
       style="display:inline"
       id="g3908"
       transform="matrix(1.359284,0,0,1.359284,411.24448,-139.46025)">
      <g
         id="g3880">
        <path
           style="fill:#d1776f;fill-opacity:1;stroke:#9f453d;stroke-width:0.26499999;stroke-linecap:square;stroke-linejoin:round;stroke-miterlimit:4;stroke-dasharray:none;stroke-opacity:1"
           d="m 27.889214,212.07159 c -0.490886,0 -1.185108,0.41192 -1.185108,0.94808 0,0.35805 0.423192,0.64033 0.402679,0.99866 -0.0065,0.11544 0.01116,0.21656 -0.165665,0.30497 -0.190274,0.0951 -0.478281,0.19046 -0.478281,0.19046 l 0.0042,0.165 c 0,0 0.237022,-0.11845 0.474045,-0.11845 0.233285,0 0.201279,0.1645 0.177046,0.27045 -0.127499,0.40495 -0.414072,0.66454 -0.414072,1.03317 0,0.53614 0.694221,0.94808 1.18511,0.94808 0.981776,0 1.777667,-1.06119 1.777667,-2.37022 0,-1.30904 -0.795891,-2.37022 -1.777667,-2.37022 z"
           id="path5013"
           inkscape:connector-curvature="0"
           sodipodi:nodetypes="ssasccscssss" />
        <path
           sodipodi:nodetypes="ssasccscssss"
           inkscape:connector-curvature="0"
           id="path40576"
           d="m 20.764881,212.07159 c 0.490886,0 1.185108,0.41192 1.185108,0.94808 0,0.35805 -0.423191,0.64033 -0.40268,0.99866 0.0065,0.11544 -0.01116,0.21656 0.165666,0.30497 0.190273,0.0951 0.47828,0.19046 0.47828,0.19046 l -0.0042,0.165 c 0,0 -0.237023,-0.11845 -0.474045,-0.11845 -0.233284,0 -0.201278,0.1645 -0.177045,0.27045 0.127498,0.40495 0.414072,0.66454 0.414072,1.03317 0,0.53614 -0.694223,0.94808 -1.18511,0.94808 -0.981778,0 -1.777669,-1.06119 -1.777669,-2.37022 0,-1.30904 0.795891,-2.37022 1.777669,-2.37022 z"
           style="fill:#d1776f;fill-opacity:1;stroke:#9f453d;stroke-width:0.26499999;stroke-linecap:square;stroke-linejoin:round;stroke-miterlimit:4;stroke-dasharray:none;stroke-opacity:1" />
      </g>
      <path
         sodipodi:nodetypes="cccssccccscscc"
         inkscape:connector-curvature="0"
         id="path3882"
         d="m 22.224609,214.55273 -0.08444,0.24783 c 0.120554,0.10626 0.130164,0.0949 0.168424,0.26975 0.03826,0.17484 0.04765,0.43174 0.0293,0.73828 -0.0367,0.61308 -0.173503,1.42744 -0.3125,2.26953 -0.138998,0.8421 -0.280861,1.71315 -0.328125,2.45118 -0.04726,0.73803 -0.02108,1.34618 0.271484,1.6914 l 0.203125,-0.16992 c -0.186736,-0.22035 -0.256878,-0.78655 -0.210937,-1.5039 0.04594,-0.71736 0.187238,-1.58213 0.326171,-2.42383 0.138934,-0.84171 0.276277,-1.66108 0.314453,-2.29883 0.01909,-0.31888 0.05799,-0.58338 0.06679,-0.81055 0.0087,-0.22332 -0.127316,-0.53416 -0.426167,-0.62114 z"
         style="color:#000000;font-style:normal;font-variant:normal;font-weight:normal;font-stretch:normal;font-size:medium;line-height:normal;font-family:sans-serif;font-variant-ligatures:normal;font-variant-position:normal;font-variant-caps:normal;font-variant-numeric:normal;font-variant-alternates:normal;font-feature-settings:normal;text-indent:0;text-align:start;text-decoration:none;text-decoration-line:none;text-decoration-style:solid;text-decoration-color:#000000;letter-spacing:normal;word-spacing:normal;text-transform:none;writing-mode:lr-tb;direction:ltr;text-orientation:mixed;dominant-baseline:auto;baseline-shift:baseline;text-anchor:start;white-space:normal;shape-padding:0;clip-rule:nonzero;display:inline;overflow:visible;visibility:visible;opacity:1;isolation:auto;mix-blend-mode:normal;color-interpolation:sRGB;color-interpolation-filters:linearRGB;solid-color:#000000;solid-opacity:1;vector-effect:none;fill:#9f453d;fill-opacity:1;fill-rule:nonzero;stroke:none;stroke-width:0.26499999;stroke-linecap:butt;stroke-linejoin:miter;stroke-miterlimit:4;stroke-dasharray:none;stroke-dashoffset:0;stroke-opacity:1;color-rendering:auto;image-rendering:auto;shape-rendering:auto;text-rendering:auto;enable-background:accumulate" />
    </g>
    <path
       sodipodi:nodetypes="csscscsscc"
       inkscape:connector-curvature="0"
       id="path3875"
       d="m 444.17089,168.52523 c -0.44224,0 0.13632,-2.16698 -0.48111,-2.45106 -0.72038,-0.33141 -1.35762,-0.45174 -1.64744,-0.73072 -0.57963,-0.55799 -0.93827,-1.20293 -0.93827,-2.05436 0,-1.70288 1.43404,-2.07739 3.20302,-2.07739 1.76897,0 3.20301,0.37451 3.20301,2.07739 0,0.85143 -0.35838,1.49637 -0.93802,2.05436 -0.28981,0.27898 -0.92687,0.39943 -1.64731,0.73072 -0.61768,0.28408 -0.0398,2.45106 -0.48202,2.45106 z"
       style="display:inline;opacity:1;fill:#e36161;fill-opacity:0.98039216;stroke:#9f453d;stroke-width:0.33330452;stroke-linecap:round;stroke-linejoin:round;stroke-miterlimit:4;stroke-dasharray:none;stroke-dashoffset:0;stroke-opacity:1;paint-order:normal" />
  </g>
</svg>
