<?xml version="1.0" encoding="UTF-8" standalone="no"?>
<!-- Created with Inkscape (http://www.inkscape.org/) -->

<svg
   xmlns:dc="http://purl.org/dc/elements/1.1/"
   xmlns:cc="http://creativecommons.org/ns#"
   xmlns:rdf="http://www.w3.org/1999/02/22-rdf-syntax-ns#"
   xmlns:svg="http://www.w3.org/2000/svg"
   xmlns="http://www.w3.org/2000/svg"
   xmlns:sodipodi="http://sodipodi.sourceforge.net/DTD/sodipodi-0.dtd"
   xmlns:inkscape="http://www.inkscape.org/namespaces/inkscape"
   width="26.774271mm"
   height="28.081249mm"
   viewBox="0 0 26.774269 28.081249"
   version="1.1"
   id="svg8"
   inkscape:version="0.92.3 (2405546, 2018-03-11)"
   sodipodi:docname="tissue.svg">
  <defs
     id="defs2" />
  <sodipodi:namedview
     id="base"
     pagecolor="#ffffff"
     bordercolor="#666666"
     borderopacity="1.0"
     inkscape:pageopacity="0.0"
     inkscape:pageshadow="2"
     inkscape:zoom="1.4"
     inkscape:cx="-270.80787"
     inkscape:cy="-7.7159204"
     inkscape:document-units="mm"
     inkscape:current-layer="layer1"
     showgrid="false"
     inkscape:window-width="1720"
     inkscape:window-height="1385"
     inkscape:window-x="0"
     inkscape:window-y="27"
     inkscape:window-maximized="0" />
  <metadata
     id="metadata5">
    <rdf:RDF>
      <cc:Work
         rdf:about="">
        <dc:format>image/svg+xml</dc:format>
        <dc:type
           rdf:resource="http://purl.org/dc/dcmitype/StillImage" />
        <dc:title></dc:title>
      </cc:Work>
    </rdf:RDF>
  </metadata>
  <g
     inkscape:label="Layer 1"
     inkscape:groupmode="layer"
     id="layer1"
     transform="translate(-423.61871,-122.77414)">
    <g
       style="display:inline"
       id="g6627"
       transform="translate(383.83123,-58.447422)">
      <path
         sodipodi:nodetypes="ccccccc"
         inkscape:connector-curvature="0"
         id="path6543"
         d="m 52.205964,187.05621 4.945374,-1.7159 1.322916,-3.96875 -3.875206,1e-5 h -5.385212 l -2.645831,2.64583 z"
         style="fill:#ffeae6;fill-opacity:1;fill-rule:evenodd;stroke:#ffbeb0;stroke-width:0.26458332px;stroke-linecap:butt;stroke-linejoin:miter;stroke-opacity:1" />
      <path
         sodipodi:nodetypes="cccccc"
         inkscape:connector-curvature="0"
         id="path6541"
         d="m 46.568005,184.0174 -2.645834,3.96875 2.645834,3.96875 5.456398,-1.3329 0.181561,-3.56579 z"
         style="fill:#ffeae6;fill-opacity:1;fill-rule:evenodd;stroke:#ffbeb0;stroke-width:0.26458332px;stroke-linecap:butt;stroke-linejoin:miter;stroke-opacity:1" />
      <path
         sodipodi:nodetypes="cccccc"
         inkscape:connector-curvature="0"
         id="path6545"
         d="m 46.568005,184.0174 -3.644101,-1.20977 -0.270955,-1.43606 h 3.124056 3.436831 z"
         style="fill:#ffeae6;fill-opacity:1;fill-rule:evenodd;stroke:#ffbeb0;stroke-width:0.26458332px;stroke-linecap:butt;stroke-linejoin:miter;stroke-opacity:1" />
      <path
         sodipodi:nodetypes="cccccc"
         inkscape:connector-curvature="0"
         id="path6547"
         d="m 42.923904,182.80763 -2.970483,0.5145 1e-6,5.03384 3.968749,-0.36982 2.645834,-3.96875 z"
         style="fill:#ffeae6;fill-opacity:1;fill-rule:evenodd;stroke:#ffbeb0;stroke-width:0.26458332px;stroke-linecap:butt;stroke-linejoin:miter;stroke-opacity:1" />
      <path
         sodipodi:nodetypes="cccccc"
         inkscape:connector-curvature="0"
         id="path6549"
         d="m 42.923904,182.80763 -0.270955,-1.43606 h -2.699527 l -1e-6,1.95056 v 0 z"
         style="fill:#ffeae6;fill-opacity:1;fill-rule:evenodd;stroke:#ffbeb0;stroke-width:0.26458332px;stroke-linecap:butt;stroke-linejoin:miter;stroke-opacity:1" />
      <path
         sodipodi:nodetypes="cccccc"
         inkscape:connector-curvature="0"
         id="path6551"
         d="m 46.568005,191.9549 -3.644101,4.32312 -2.970482,-1.28038 v -6.64167 l 3.968749,-0.36982 z"
         style="fill:#ffeae6;fill-opacity:1;fill-rule:evenodd;stroke:#ffbeb0;stroke-width:0.26458332px;stroke-linecap:butt;stroke-linejoin:miter;stroke-opacity:1" />
      <path
         sodipodi:nodetypes="cccccc"
         inkscape:connector-curvature="0"
         id="path6561"
         d="m 46.568005,191.9549 3.091092,3.71508 4.583671,-0.46772 -2.299861,-2.97972 0.0815,-1.60054 z"
         style="fill:#ffeae6;fill-opacity:1;fill-rule:evenodd;stroke:#ffbeb0;stroke-width:0.26458332px;stroke-linecap:butt;stroke-linejoin:miter;stroke-opacity:1" />
      <path
         sodipodi:nodetypes="ccccc"
         inkscape:connector-curvature="0"
         id="path6563"
         d="m 42.923904,196.27802 -2.970483,3.97563 1e-6,-2.5257 v -2.73031 z"
         style="fill:#ffeae6;fill-opacity:1;fill-rule:evenodd;stroke:#ffbeb0;stroke-width:0.26458332px;stroke-linecap:butt;stroke-linejoin:miter;stroke-opacity:1" />
      <path
         inkscape:connector-curvature="0"
         id="path6565"
         d="m 42.923904,196.27802 1.449937,3.32082 4.162724,0.70158 1.122532,-4.63044 -3.091092,-3.71508 z"
         style="fill:#ffeae6;fill-opacity:1;fill-rule:evenodd;stroke:#ffbeb0;stroke-width:0.26458332px;stroke-linecap:butt;stroke-linejoin:miter;stroke-opacity:1" />
      <path
         inkscape:connector-curvature="0"
         id="path6567"
         d="m 39.953421,200.25365 2.081813,2.71279 2.151518,-1.49671 0.187089,-1.87089 -1.449937,-3.32082 z"
         style="fill:#ffeae6;fill-opacity:1;fill-rule:evenodd;stroke:#ffbeb0;stroke-width:0.26458332px;stroke-linecap:butt;stroke-linejoin:miter;stroke-opacity:1" />
      <path
         sodipodi:nodetypes="cccccc"
         inkscape:connector-curvature="0"
         id="path6569"
         d="m 44.186752,201.46973 2.671905,5.31403 3.361706,-5.17371 -1.683798,-1.30963 -4.162724,-0.70158 z"
         style="fill:#ffeae6;fill-opacity:1;fill-rule:evenodd;stroke:#ffbeb0;stroke-width:0.26458332px;stroke-linecap:butt;stroke-linejoin:miter;stroke-opacity:1" />
      <path
         inkscape:connector-curvature="0"
         id="path6571"
         d="m 50.220363,201.61005 3.086963,0.18708 2.245063,-4.34981 -1.309621,-2.24506 -4.583671,0.46772 -1.122532,4.63044 z"
         style="fill:#ffeae6;fill-opacity:1;fill-rule:evenodd;stroke:#ffbeb0;stroke-width:0.26458332px;stroke-linecap:butt;stroke-linejoin:miter;stroke-opacity:1" />
      <path
         inkscape:connector-curvature="0"
         id="path6573"
         d="m 61.907683,187.18874 3.233,-2.93117 -3.133736,-2.886 h -3.532698 l -1.322911,3.96874 2.236369,-0.4747 1.964431,0.56126 z"
         style="fill:#ffeae6;fill-opacity:1;fill-rule:evenodd;stroke:#ffbeb0;stroke-width:0.26458332px;stroke-linecap:butt;stroke-linejoin:round;stroke-opacity:1" />
      <path
         inkscape:connector-curvature="0"
         id="path6575"
         d="m 65.140683,184.25757 1.271069,-0.93544 5e-6,-1.95056 h -4.40481 z"
         style="fill:#ffeae6;fill-opacity:1;fill-rule:evenodd;stroke:#ffbeb0;stroke-width:0.26458332px;stroke-linecap:butt;stroke-linejoin:miter;stroke-opacity:1" />
      <path
         inkscape:connector-curvature="0"
         id="path6577"
         d="m 42.035234,202.96644 -2.081813,3.46114 v -6.17393 z"
         style="fill:#ffeae6;fill-opacity:1;fill-rule:evenodd;stroke:#ffbeb0;stroke-width:0.26458332px;stroke-linecap:butt;stroke-linejoin:miter;stroke-opacity:1" />
      <path
         sodipodi:nodetypes="cccccc"
         inkscape:connector-curvature="0"
         id="path6579"
         d="m 46.858657,206.78376 -1.596144,2.36906 -5.309092,-2.72524 2.081813,-3.46114 2.151518,-1.49671 z"
         style="fill:#ffeae6;fill-opacity:1;fill-rule:evenodd;stroke:#ffbeb0;stroke-width:0.26458332px;stroke-linecap:butt;stroke-linejoin:round;stroke-opacity:1" />
      <path
         inkscape:connector-curvature="0"
         id="path6581"
         d="m 39.953421,206.42758 v 2.72524 h 5.309087 z"
         style="fill:#ffdbd8;fill-opacity:1;fill-rule:evenodd;stroke:#ffbeb0;stroke-width:0.26499999;stroke-linecap:butt;stroke-linejoin:miter;stroke-miterlimit:4;stroke-dasharray:none;stroke-opacity:1" />
      <path
         sodipodi:nodetypes="ccccc"
         inkscape:connector-curvature="0"
         id="path6583"
         d="m 47.596126,205.68918 3.933856,2.88816 v 0.57548 h -6.267469 z"
         style="fill:#ffdbd8;fill-opacity:1;fill-rule:evenodd;stroke:#ffbeb0;stroke-width:0.26499999;stroke-linecap:butt;stroke-linejoin:miter;stroke-miterlimit:4;stroke-dasharray:none;stroke-opacity:1" />
      <path
         sodipodi:nodetypes="cccccc"
         inkscape:connector-curvature="0"
         id="path6585"
         d="m 53.307326,201.79713 0.77575,5.32692 -2.553094,1.45329 -3.933856,-2.88816 2.624237,-4.07913 z"
         style="fill:#ffdbd8;fill-opacity:1;fill-rule:evenodd;stroke:#ffbeb0;stroke-width:0.26499999;stroke-linecap:butt;stroke-linejoin:round;stroke-miterlimit:4;stroke-dasharray:none;stroke-opacity:1" />
      <path
         inkscape:connector-curvature="0"
         id="path6587"
         d="m 55.552389,197.44732 2.432153,1.54348 2.57247,-2.3386 -1.91766,-1.87089 -4.396584,0.42095 z"
         style="fill:#ffeae6;fill-opacity:1;fill-rule:evenodd;stroke:#ffbeb0;stroke-width:0.26458332px;stroke-linecap:butt;stroke-linejoin:miter;stroke-opacity:1" />
      <path
         inkscape:connector-curvature="0"
         id="path6589"
         d="m 62.989165,190.61858 3.422587,0.79513 v -8.09158 l -1.271069,0.93544 -3.233002,2.93117 z"
         style="fill:#ffdbd8;fill-opacity:1;fill-rule:evenodd;stroke:#ffbeb0;stroke-width:0.26499999;stroke-linecap:butt;stroke-linejoin:miter;stroke-miterlimit:4;stroke-dasharray:none;stroke-opacity:1" />
      <path
         sodipodi:nodetypes="cccccc"
         inkscape:connector-curvature="0"
         id="path6601"
         d="m 59.9022,204.97764 -2.011201,-2.8531 -4.583673,-0.32741 0.77575,5.32692 3.106338,0.005 z"
         style="fill:#ffdbd8;fill-opacity:1;fill-rule:evenodd;stroke:#ffbeb0;stroke-width:0.26499999;stroke-linecap:butt;stroke-linejoin:round;stroke-miterlimit:4;stroke-dasharray:none;stroke-opacity:1" />
      <path
         inkscape:connector-curvature="0"
         id="path6603"
         d="m 57.890999,202.12454 0.09354,-3.13374 -2.432153,-1.54348 -2.245063,4.34981 z"
         style="fill:#ffdbd8;fill-opacity:1;fill-rule:evenodd;stroke:#ffbeb0;stroke-width:0.26499999;stroke-linecap:butt;stroke-linejoin:round;stroke-miterlimit:4;stroke-dasharray:none;stroke-opacity:1" />
      <path
         inkscape:connector-curvature="0"
         id="path6607"
         d="m 62.70853,201.75036 -1.590252,-2.19829 -3.133736,-0.56127 -0.09354,3.13374 2.011201,2.8531 z"
         style="fill:#ffdbd8;fill-opacity:1;fill-rule:evenodd;stroke:#ffbeb0;stroke-width:0.26499999;stroke-linecap:butt;stroke-linejoin:miter;stroke-miterlimit:4;stroke-dasharray:none;stroke-opacity:1" />
      <path
         inkscape:connector-curvature="0"
         id="path6613"
         d="m 62.568213,192.58302 0.935445,2.66601 2.316697,0.83032 0.591397,-0.87709 v -3.78855 l -3.422587,-0.79513 z"
         style="fill:#ffdbd8;fill-opacity:1;fill-rule:evenodd;stroke:#ffbeb0;stroke-width:0.26499999;stroke-linecap:butt;stroke-linejoin:miter;stroke-miterlimit:4;stroke-dasharray:none;stroke-opacity:1" />
      <path
         inkscape:connector-curvature="0"
         id="path6615"
         d="m 60.557012,196.6522 3.741772,1.68379 -1.590254,3.41437 -1.590252,-2.19829 -3.133736,-0.56127 z"
         style="fill:#ffdbd8;fill-opacity:1;fill-rule:evenodd;stroke:#ffbeb0;stroke-width:0.26499999;stroke-linecap:butt;stroke-linejoin:round;stroke-miterlimit:4;stroke-dasharray:none;stroke-opacity:1" />
      <path
         inkscape:connector-curvature="0"
         id="path6617"
         d="m 60.557012,196.6522 -1.91766,-1.87089 3.928861,-2.19829 0.935445,2.66601 2.316697,0.83032 -1.521571,2.25664 z"
         style="fill:#ffdbd8;fill-opacity:1;fill-rule:evenodd;stroke:#ffbeb0;stroke-width:0.26499999;stroke-linecap:butt;stroke-linejoin:miter;stroke-miterlimit:4;stroke-dasharray:none;stroke-opacity:1" />
      <path
         sodipodi:nodetypes="scsccss"
         inkscape:connector-curvature="0"
         id="path6553"
         d="m 51.942907,192.22254 c 0.220422,0.28558 1.411192,-0.66851 1.411192,-0.66851 0,0 -0.381038,-2.42473 0.229158,-3.42523 0.530841,-0.87039 2.343309,-1.29876 2.343309,-1.29876 l -0.344509,-1.09741 c 0,0 -2.927823,1.14628 -3.376093,1.32358 -0.475596,0.1881 -0.713688,4.58249 -0.263057,5.16633 z"
         style="fill:#ff9994;fill-opacity:1;fill-rule:evenodd;stroke:#c82131;stroke-width:0.26458332px;stroke-linecap:round;stroke-linejoin:round;stroke-opacity:1;paint-order:normal" />
      <path
         sodipodi:nodetypes="csscscc"
         inkscape:connector-curvature="0"
         id="path6555"
         d="m 55.582057,185.73263 c 0,0 2.505074,-0.90234 3.80565,-0.86702 0.680762,0.0185 1.869999,0.26178 1.964431,0.56126 0.08555,0.27131 -0.982216,1.16931 -0.982216,1.16931 0,0 -0.71315,-0.47175 -1.122531,-0.5145 -1.128563,-0.11786 -3.320825,0.74836 -3.320825,0.74836 z"
         style="fill:#ff9994;fill-opacity:1;fill-rule:evenodd;stroke:#c82131;stroke-width:0.26499999;stroke-linecap:butt;stroke-linejoin:round;stroke-miterlimit:4;stroke-dasharray:none;stroke-opacity:1" />
      <path
         sodipodi:nodetypes="csccscc"
         inkscape:connector-curvature="0"
         id="path6557"
         d="m 51.942907,192.22254 c 0,0 1.148668,2.48074 2.299861,2.97972 1.350796,0.5855 4.396584,-0.42095 4.396584,-0.42095 l -0.42095,-1.49671 c 0,0 -2.261958,0.85269 -3.274052,0.42095 -0.820293,-0.34992 -1.590251,-2.15152 -1.590251,-2.15152 z"
         style="fill:#ff9994;fill-opacity:1;fill-rule:evenodd;stroke:#c82131;stroke-width:0.26499999;stroke-linecap:butt;stroke-linejoin:round;stroke-miterlimit:4;stroke-dasharray:none;stroke-opacity:1" />
      <path
         sodipodi:nodetypes="czcssscc"
         inkscape:connector-curvature="0"
         id="path6559"
         d="m 58.218402,193.2846 c 0,0 1.900722,-1.12028 2.38157,-2.40476 0.480848,-1.28448 -0.230052,-4.28366 -0.230052,-4.28366 l 0.982218,-1.16931 c 0.227603,-0.27096 1.551453,3.37917 1.637027,5.19171 0.03158,0.66893 -0.142271,1.3555 -0.420952,1.96444 -0.177961,0.38886 -3.928861,2.19829 -3.928861,2.19829 z"
         style="fill:#ff9994;fill-opacity:1;fill-rule:evenodd;stroke:#c82131;stroke-width:0.26458332px;stroke-linecap:butt;stroke-linejoin:round;stroke-opacity:1" />
      <path
         sodipodi:nodetypes="cccccc"
         inkscape:connector-curvature="0"
         id="path6597"
         d="m 54.083076,207.12405 3.106338,0.005 0.514495,2.02366 h -6.173927 l -0.06615,-0.53772 z"
         style="fill:#ffdbd8;fill-opacity:1;fill-rule:evenodd;stroke:#ffbeb0;stroke-width:0.26458332px;stroke-linecap:butt;stroke-linejoin:round;stroke-opacity:1" />
      <path
         inkscape:connector-curvature="0"
         id="path6599"
         d="m 57.189414,207.12916 2.712786,-2.15152 2.842712,0.01 -0.597648,0.8789 -3.133733,3.28651 h -1.309624 z"
         style="fill:#ffdbd8;fill-opacity:1;fill-rule:evenodd;stroke:#ffbeb0;stroke-width:0.26458332px;stroke-linecap:butt;stroke-linejoin:round;stroke-opacity:1" />
      <path
         inkscape:connector-curvature="0"
         id="path6611"
         d="m 64.298784,198.33599 2.112968,-3.13373 v 3.08693 z"
         style="fill:#ffdbd8;fill-opacity:1;fill-rule:evenodd;stroke:#ffbeb0;stroke-width:0.26458332px;stroke-linecap:butt;stroke-linejoin:miter;stroke-opacity:1" />
      <path
         inkscape:connector-curvature="0"
         id="path6605"
         d="m 59.9022,204.97764 2.80633,-3.22728 1.283882,1.4025 -1.247653,1.83478 z"
         style="fill:#ffdbd8;fill-opacity:1;fill-rule:evenodd;stroke:#ffbeb0;stroke-width:0.26458332px;stroke-linecap:butt;stroke-linejoin:round;stroke-opacity:1" />
      <path
         inkscape:connector-curvature="0"
         id="path6609"
         d="m 62.70853,201.75036 1.590254,-3.41437 2.112968,-0.0468 v 1.12253 l -2.41934,3.74111 z"
         style="fill:#ffdbd8;fill-opacity:1;fill-rule:evenodd;stroke:#ffbeb0;stroke-width:0.26458332px;stroke-linecap:butt;stroke-linejoin:round;stroke-opacity:1" />
      <path
         inkscape:connector-curvature="0"
         id="path6591"
         d="m 59.013531,209.15282 h 1.637024 l 3.086963,-2.6317 -1.590254,-0.65481 z"
         style="fill:#ffd4d8;fill-opacity:1;fill-rule:evenodd;stroke:#ffafbe;stroke-width:0.26499999;stroke-linecap:butt;stroke-linejoin:round;stroke-miterlimit:4;stroke-dasharray:none;stroke-opacity:1" />
      <path
         inkscape:connector-curvature="0"
         id="path6593"
         d="m 63.737518,206.52112 2.674234,-3.55468 -1.879106,-0.60804 -2.385382,3.50791 z"
         style="fill:#ffd4d8;fill-opacity:1;fill-rule:evenodd;stroke:#ffafbe;stroke-width:0.26499999;stroke-linecap:butt;stroke-linejoin:round;stroke-miterlimit:4;stroke-dasharray:none;stroke-opacity:1" />
      <path
         inkscape:connector-curvature="0"
         id="path6595"
         d="m 64.532644,202.3584 1.879108,-2.94665 v 3.55469 z"
         style="fill:#ffd4d8;fill-opacity:1;fill-rule:evenodd;stroke:#ffafbe;stroke-width:0.26499999;stroke-linecap:butt;stroke-linejoin:round;stroke-miterlimit:4;stroke-dasharray:none;stroke-opacity:1" />
      <path
         sodipodi:nodetypes="cscsc"
         inkscape:connector-curvature="0"
         id="path6621"
         d="m 42.537001,191.97498 c 1e-6,0.92994 -1.040401,1.6838 -1.589446,1.6838 -0.549045,0 -0.994135,-0.75386 -0.994134,-1.6838 -10e-7,-0.92994 0.445089,-1.6838 0.994134,-1.6838 0.549045,0 1.589447,0.75386 1.589446,1.6838 z"
         style="opacity:1;fill:#efeaff;fill-opacity:1;stroke:#ffbeff;stroke-width:0.26499999;stroke-linecap:round;stroke-linejoin:bevel;stroke-miterlimit:4;stroke-dasharray:none;stroke-dashoffset:0;stroke-opacity:1;paint-order:normal" />
      <path
         sodipodi:nodetypes="cscsc"
         inkscape:connector-curvature="0"
         id="path6625"
         d="m 55.178217,182.67426 c -4e-6,0.71945 -0.751039,0.97195 -2.003868,0.97195 -1.252827,0 -2.533029,-0.2525 -2.533033,-0.97195 -6e-6,-0.71945 1.015615,-1.30269 2.26845,-1.30269 1.252835,0 2.268457,0.58323 2.268451,1.30269 z"
         style="opacity:1;fill:#efeaff;fill-opacity:1;stroke:#ffbeff;stroke-width:0.26499999;stroke-linecap:round;stroke-linejoin:bevel;stroke-miterlimit:4;stroke-dasharray:none;stroke-dashoffset:0;stroke-opacity:1;paint-order:normal" />
      <path
         sodipodi:nodetypes="scccs"
         inkscape:connector-curvature="0"
         id="path6633"
         d="m 66.411754,188.584 c 0,0.63287 0,1.14592 0,1.14592 0,0 -1.656946,-0.0453 -1.692023,-1.14592 -0.05847,-1.2526 1.692023,-1.14592 1.692023,-1.14592 0,0 0,0.51305 0,1.14592 z"
         style="opacity:1;fill:#efeaff;fill-opacity:1;stroke:#ffbeff;stroke-width:0.26499999;stroke-linecap:round;stroke-linejoin:bevel;stroke-miterlimit:4;stroke-dasharray:none;stroke-dashoffset:0;stroke-opacity:1;paint-order:normal" />
      <path
         sodipodi:nodetypes="cscsc"
         inkscape:connector-curvature="0"
         id="path6661"
         d="m 50.223298,209.15282 c 0,0 -0.759072,0 -1.644962,0 -0.88589,0 -1.56311,0 -1.56311,0 0,0 0.455061,-0.77987 1.604036,-0.77987 1.236673,0 1.604036,0.77987 1.604036,0.77987 z"
         style="opacity:1;fill:#efeaff;fill-opacity:1;stroke:#ffbeff;stroke-width:0.26499999;stroke-linecap:round;stroke-linejoin:bevel;stroke-miterlimit:4;stroke-dasharray:none;stroke-dashoffset:0;stroke-opacity:1;paint-order:normal" />
      <path
         style="opacity:1;fill:#efeaff;fill-opacity:1;stroke:#ffbeff;stroke-width:0.26499999;stroke-linecap:round;stroke-linejoin:bevel;stroke-miterlimit:4;stroke-dasharray:none;stroke-dashoffset:0;stroke-opacity:1;paint-order:normal"
         d="m 55.91781,209.15282 -0.955073,-1.1e-4 h -0.797216 c 0,0 -0.310833,-0.77987 0.838142,-0.77987 1.236673,0 0.914147,0.77998 0.914147,0.77998 z"
         id="path6665"
         inkscape:connector-curvature="0"
         sodipodi:nodetypes="cscsc" />
      <path
         sodipodi:nodetypes="sssss"
         inkscape:connector-curvature="0"
         id="path6677"
         d="m 66.411747,193.37438 c -3e-6,0.5023 -0.455159,1.20716 -1.016621,1.20716 -0.561462,0 -1.016619,-0.70486 -1.016622,-1.20716 -3e-6,-0.50231 0.455155,-0.90951 1.016622,-0.90951 0.561466,0 1.016624,0.4072 1.016621,0.90951 z"
         style="opacity:1;fill:#efeaff;fill-opacity:1;stroke:#ffbeff;stroke-width:0.26499999;stroke-linecap:round;stroke-linejoin:bevel;stroke-miterlimit:4;stroke-dasharray:none;stroke-dashoffset:0;stroke-opacity:1;paint-order:normal" />
      <rect
         y="181.37157"
         x="39.953423"
         height="27.78125"
         width="26.458332"
         id="rect6538"
         style="opacity:1;fill:none;fill-opacity:1;stroke:#616161;stroke-width:0.30000001;stroke-linecap:round;stroke-linejoin:round;stroke-miterlimit:4;stroke-dasharray:none;stroke-dashoffset:0;stroke-opacity:0.99607843" />
      <path
         sodipodi:nodetypes="cscsc"
         inkscape:connector-curvature="0"
         id="path6619"
         d="m 48.770422,189.33235 c -1e-6,0.55538 -0.554927,1.0056 -1.239463,1.0056 -0.684535,0 -1.669409,-0.78095 -1.66941,-1.33633 1e-6,-0.55538 0.290343,-1.60091 0.974879,-1.60091 0.684535,0 1.933993,1.37626 1.933994,1.93164 z"
         style="opacity:1;fill:#efeaff;fill-opacity:1;stroke:#ffbeff;stroke-width:0.26499999;stroke-linecap:round;stroke-linejoin:bevel;stroke-miterlimit:4;stroke-dasharray:none;stroke-dashoffset:0;stroke-opacity:1;paint-order:normal" />
      <path
         sodipodi:nodetypes="cscsc"
         inkscape:connector-curvature="0"
         id="path6623"
         d="m 41.659218,186.19391 c -0.974571,-0.87543 0.426824,-1.31281 1.030834,-1.66153 0.604012,-0.34873 1.240245,-0.37753 1.421065,-0.0643 0.18082,0.31318 0.135414,1.18051 -0.468598,1.52923 -0.60401,0.34873 -1.467712,0.63602 -1.983301,0.19664 z"
         style="opacity:1;fill:#efeaff;fill-opacity:1;stroke:#ffbeff;stroke-width:0.26499999;stroke-linecap:round;stroke-linejoin:bevel;stroke-miterlimit:4;stroke-dasharray:none;stroke-dashoffset:0;stroke-opacity:1;paint-order:normal" />
      <path
         sodipodi:nodetypes="cscsc"
         inkscape:connector-curvature="0"
         id="path6627"
         d="m 46.525622,197.22502 c 0.210603,0.78598 0.30478,1.35803 -0.156819,1.48172 -0.461601,0.12368 -1.006528,-0.4132 -1.217127,-1.19918 -0.210597,-0.78596 -0.0071,-1.52338 0.454478,-1.64707 0.4616,-0.12368 0.708869,0.57857 0.919468,1.36453 z"
         style="opacity:1;fill:#efeaff;fill-opacity:1;stroke:#ffbeff;stroke-width:0.26499999;stroke-linecap:round;stroke-linejoin:bevel;stroke-miterlimit:4;stroke-dasharray:none;stroke-dashoffset:0;stroke-opacity:1;paint-order:normal" />
      <ellipse
         ry="0.65481037"
         rx="0.77174073"
         cy="193.56523"
         cx="50.196976"
         id="path6629"
         style="opacity:1;fill:#efeaff;fill-opacity:1;stroke:#ffbeff;stroke-width:0.26499999;stroke-linecap:round;stroke-linejoin:bevel;stroke-miterlimit:4;stroke-dasharray:none;stroke-dashoffset:0;stroke-opacity:1;paint-order:normal" />
      <ellipse
         transform="rotate(30)"
         ry="0.84189904"
         rx="1.3330069"
         cy="128.23422"
         cx="145.28445"
         id="path6631"
         style="opacity:1;fill:#efeaff;fill-opacity:1;stroke:#ffbeff;stroke-width:0.26499999;stroke-linecap:round;stroke-linejoin:bevel;stroke-miterlimit:4;stroke-dasharray:none;stroke-dashoffset:0;stroke-opacity:1;paint-order:normal" />
      <path
         sodipodi:nodetypes="cscsc"
         inkscape:connector-curvature="0"
         id="path6637"
         d="m 53.365227,198.93064 c -5e-6,0.70323 -0.651523,1.2733 -1.455209,1.2733 -0.803686,0 -1.455203,-0.57007 -1.455208,-1.2733 -2e-6,-0.70323 0.783809,-0.94258 1.5875,-0.94258 0.80369,0 1.322919,0.23935 1.322917,0.94258 z"
         style="opacity:1;fill:#efeaff;fill-opacity:1;stroke:#ffbeff;stroke-width:0.26499999;stroke-linecap:round;stroke-linejoin:bevel;stroke-miterlimit:4;stroke-dasharray:none;stroke-dashoffset:0;stroke-opacity:1;paint-order:normal" />
      <ellipse
         ry="0.56223959"
         rx="1.008724"
         cy="196.79742"
         cx="57.747391"
         id="path6639"
         style="opacity:1;fill:#efeaff;fill-opacity:1;stroke:#ffbeff;stroke-width:0.26499999;stroke-linecap:round;stroke-linejoin:bevel;stroke-miterlimit:4;stroke-dasharray:none;stroke-dashoffset:0;stroke-opacity:1;paint-order:normal" />
      <ellipse
         ry="0.83453542"
         rx="0.83789605"
         cy="200.59311"
         cx="42.473167"
         id="path6641"
         style="opacity:1;fill:#efeaff;fill-opacity:1;stroke:#ffbeff;stroke-width:0.26499999;stroke-linecap:round;stroke-linejoin:bevel;stroke-miterlimit:4;stroke-dasharray:none;stroke-dashoffset:0;stroke-opacity:1;paint-order:normal" />
      <ellipse
         transform="rotate(45)"
         ry="1.0695347"
         rx="1.4118148"
         cy="114.79526"
         cx="176.49005"
         id="path6643"
         style="opacity:1;fill:#efeaff;fill-opacity:1;stroke:#ffbeff;stroke-width:0.26499999;stroke-linecap:round;stroke-linejoin:bevel;stroke-miterlimit:4;stroke-dasharray:none;stroke-dashoffset:0;stroke-opacity:1;paint-order:normal" />
      <ellipse
         ry="1.008724"
         rx="0.8764323"
         cy="202.20485"
         cx="47.296349"
         id="path6645"
         style="opacity:1;fill:#efeaff;fill-opacity:1;stroke:#ffbeff;stroke-width:0.26499999;stroke-linecap:round;stroke-linejoin:bevel;stroke-miterlimit:4;stroke-dasharray:none;stroke-dashoffset:0;stroke-opacity:1;paint-order:normal" />
      <ellipse
         transform="rotate(75)"
         ry="0.69453126"
         rx="1.0914062"
         cy="-9.0537796"
         cx="204.72758"
         id="path6647"
         style="opacity:1;fill:#efeaff;fill-opacity:1;stroke:#ffbeff;stroke-width:0.26499999;stroke-linecap:round;stroke-linejoin:bevel;stroke-miterlimit:4;stroke-dasharray:none;stroke-dashoffset:0;stroke-opacity:1;paint-order:normal" />
      <path
         sodipodi:nodetypes="cscsc"
         inkscape:connector-curvature="0"
         id="path6649"
         d="m 52.703769,205.92555 c 10e-7,0.62103 -0.658922,1.12448 -1.471745,1.12448 -0.812822,0 -1.471745,-0.50345 -1.471744,-1.12448 -1e-6,-0.62103 1.155015,-0.82682 1.967838,-0.82682 0.812822,0 0.975652,0.20579 0.975651,0.82682 z"
         style="opacity:1;fill:#efeaff;fill-opacity:1;stroke:#ffbeff;stroke-width:0.26499999;stroke-linecap:round;stroke-linejoin:bevel;stroke-miterlimit:4;stroke-dasharray:none;stroke-dashoffset:0;stroke-opacity:1;paint-order:normal" />
      <path
         sodipodi:nodetypes="cscsc"
         inkscape:connector-curvature="0"
         id="path6651"
         d="m 57.267829,204.04041 c -2e-6,0.5845 -0.371644,0.82682 -1.074871,0.82682 -0.703226,0 -1.471742,-0.24232 -1.471744,-0.82682 -4e-6,-0.5845 0.570076,-1.05834 1.273307,-1.05834 0.703232,0 1.273312,0.47384 1.273308,1.05834 z"
         style="opacity:1;fill:#efeaff;fill-opacity:1;stroke:#ffbeff;stroke-width:0.26499999;stroke-linecap:round;stroke-linejoin:bevel;stroke-miterlimit:4;stroke-dasharray:none;stroke-dashoffset:0;stroke-opacity:1;paint-order:normal" />
      <ellipse
         ry="0.51263022"
         rx="0.61184895"
         cy="200.18741"
         cx="56.060669"
         id="path6653"
         style="opacity:1;fill:#efeaff;fill-opacity:1;stroke:#ffbeff;stroke-width:0.26499999;stroke-linecap:round;stroke-linejoin:bevel;stroke-miterlimit:4;stroke-dasharray:none;stroke-dashoffset:0;stroke-opacity:1;paint-order:normal" />
      <path
         sodipodi:nodetypes="cscsc"
         inkscape:connector-curvature="0"
         id="path6657"
         d="m 60.376684,201.4111 c 0,0.64843 -0.251723,1.17409 -0.562239,1.17409 -0.310517,0 -0.793751,-0.52566 -0.79375,-1.17409 2e-6,-0.64843 0.483235,-1.17408 0.79375,-1.17408 0.310515,0 0.562237,0.52565 0.562239,1.17408 z"
         style="opacity:1;fill:#efeaff;fill-opacity:1;stroke:#ffbeff;stroke-width:0.26499999;stroke-linecap:round;stroke-linejoin:bevel;stroke-miterlimit:4;stroke-dasharray:none;stroke-dashoffset:0;stroke-opacity:1;paint-order:normal" />
      <path
         sodipodi:nodetypes="cscsc"
         inkscape:connector-curvature="0"
         id="path6659"
         d="m 62.250127,199.26964 c -0.132434,0.22936 -0.656538,-0.0899 -1.170637,-0.38672 -0.514098,-0.29681 -0.823506,-0.72336 -0.691089,-0.95274 0.132425,-0.22936 0.656537,-0.17469 1.170644,0.12213 0.514108,0.29682 0.82352,0.98796 0.691082,1.21733 z"
         style="opacity:1;fill:#efeaff;fill-opacity:1;stroke:#ffbeff;stroke-width:0.26499999;stroke-linecap:round;stroke-linejoin:bevel;stroke-miterlimit:4;stroke-dasharray:none;stroke-dashoffset:0;stroke-opacity:1;paint-order:normal" />
      <path
         sodipodi:nodetypes="cscsc"
         inkscape:connector-curvature="0"
         id="path6681"
         d="m 60.192848,206.25348 c 0.253869,0.25387 0.1035,0.68721 -0.335854,1.12656 -0.439355,0.43935 -1.001317,0.58972 -1.25518,0.33586 -0.253855,-0.25387 0.06022,-0.57027 0.499567,-1.00962 0.439349,-0.43935 0.837605,-0.70665 1.091467,-0.4528 z"
         style="opacity:1;fill:#efeaff;fill-opacity:1;stroke:#ffbeff;stroke-width:0.26499999;stroke-linecap:round;stroke-linejoin:bevel;stroke-miterlimit:4;stroke-dasharray:none;stroke-dashoffset:0;stroke-opacity:1;paint-order:normal" />
      <path
         sodipodi:nodetypes="cscsc"
         inkscape:connector-curvature="0"
         id="path6685"
         d="m 62.829691,203.28652 c 0.24251,0.24251 -0.130702,0.40086 -0.458561,0.72872 -0.327858,0.32786 -0.462802,0.47892 -0.705332,0.23639 -0.24251,-0.24251 -0.06808,-0.41255 0.259778,-0.74041 0.327859,-0.32786 0.661607,-0.46721 0.904115,-0.2247 z"
         style="opacity:1;fill:#efeaff;fill-opacity:1;stroke:#ffbeff;stroke-width:0.26499999;stroke-linecap:round;stroke-linejoin:bevel;stroke-miterlimit:4;stroke-dasharray:none;stroke-dashoffset:0;stroke-opacity:1;paint-order:normal" />
      <path
         sodipodi:nodetypes="ccccc"
         inkscape:connector-curvature="0"
         id="path6687"
         d="m 64.601898,200.48069 c -0.277752,-0.16036 -0.3023,-0.63782 -0.05484,-1.06644 0.24746,-0.42861 0.673228,-0.64608 0.95098,-0.48572 0.277752,0.16036 -0.06018,0.54428 -0.307642,0.97289 -0.24746,0.42861 -0.310746,0.73963 -0.588498,0.57927 z"
         style="opacity:1;fill:#efeaff;fill-opacity:1;stroke:#ffbeff;stroke-width:0.26499999;stroke-linecap:round;stroke-linejoin:bevel;stroke-miterlimit:4;stroke-dasharray:none;stroke-dashoffset:0;stroke-opacity:1;paint-order:normal" />
      <path
         sodipodi:nodetypes="ccccc"
         inkscape:connector-curvature="0"
         id="ellipse6695"
         d="m 61.893735,190.27131 c 0.29994,0.0804 0.558484,0.61481 0.414294,1.15294 -0.144188,0.53812 -0.636506,0.87612 -0.936445,0.79575 -0.29994,-0.0804 -0.277364,-0.58175 -0.133175,-1.11986 0.144188,-0.53812 0.355387,-0.9092 0.655326,-0.82883 z"
         style="opacity:1;fill:#c4bce7;fill-opacity:1;stroke:#d687e5;stroke-width:0.26499999;stroke-linecap:round;stroke-linejoin:bevel;stroke-miterlimit:4;stroke-dasharray:none;stroke-dashoffset:0;stroke-opacity:1;paint-order:normal" />
    </g>
  </g>
</svg>
