<?xml version="1.0" encoding="UTF-8" standalone="no"?>
<!-- Created with Inkscape (http://www.inkscape.org/) -->

<svg
   xmlns:dc="http://purl.org/dc/elements/1.1/"
   xmlns:cc="http://creativecommons.org/ns#"
   xmlns:rdf="http://www.w3.org/1999/02/22-rdf-syntax-ns#"
   xmlns:svg="http://www.w3.org/2000/svg"
   xmlns="http://www.w3.org/2000/svg"
   xmlns:sodipodi="http://sodipodi.sourceforge.net/DTD/sodipodi-0.dtd"
   xmlns:inkscape="http://www.inkscape.org/namespaces/inkscape"
   width="21.537699mm"
   height="20.420609mm"
   viewBox="0 0 21.537699 20.420609"
   version="1.1"
   id="svg8"
   inkscape:version="0.92.3 (2405546, 2018-03-11)"
   sodipodi:docname="and.svg">
  <defs
     id="defs2" />
  <sodipodi:namedview
     id="base"
     pagecolor="#ffffff"
     bordercolor="#666666"
     borderopacity="1.0"
     inkscape:pageopacity="0.0"
     inkscape:pageshadow="2"
     inkscape:zoom="0.35"
     inkscape:cx="-532.36939"
     inkscape:cy="-147.0098"
     inkscape:document-units="mm"
     inkscape:current-layer="layer1"
     showgrid="false"
     inkscape:window-width="1720"
     inkscape:window-height="1385"
     inkscape:window-x="0"
     inkscape:window-y="27"
     inkscape:window-maximized="0" />
  <metadata
     id="metadata5">
    <rdf:RDF>
      <cc:Work
         rdf:about="">
        <dc:format>image/svg+xml</dc:format>
        <dc:type
           rdf:resource="http://purl.org/dc/dcmitype/StillImage" />
        <dc:title></dc:title>
      </cc:Work>
    </rdf:RDF>
  </metadata>
  <g
     inkscape:label="Layer 1"
     inkscape:groupmode="layer"
     id="layer1"
     transform="translate(-92.097139,-89.516382)">
    <path
       sodipodi:nodetypes="cccaaaaaaaccccc"
       inkscape:connector-curvature="0"
       id="path7570"
       d="m 112.62635,90.516382 v 2.01035 c 0,0 0.11496,4.72347 -0.50005,6.96071 -0.34168,1.242948 -0.57609,2.272348 -1.077,3.323758 -0.49759,1.04443 -1.10446,2.06165 -1.89,2.91099 -0.8235,0.89038 -1.80667,1.66388 -2.888,2.21312 -1.05496,0.53583 -2.22222,1.00167 -3.40546,1.00168 -1.18326,0 -2.35056,-0.46582 -3.405542,-1.00166 -1.08134,-0.54924 -2.0646,-1.32266 -2.88799,-2.21314 -0.78531,-0.84931 -1.39147,-1.86675 -1.889,-2.91102 -0.50097,-1.05149 -0.73627,-2.08075 -1.078,-3.323718 -0.6151,-2.23722 -0.49958,-6.96072 -0.49958,-6.96072 v -2.01035 h 9.760322 z"
       style="opacity:1;fill:#c8c8c8;fill-opacity:1;fill-rule:nonzero;stroke:#000000;stroke-width:2;stroke-linecap:round;stroke-linejoin:round;stroke-miterlimit:4;stroke-dasharray:none;stroke-dashoffset:0;stroke-opacity:1;paint-order:fill markers stroke" />
  </g>
</svg>
