<?xml version="1.0" encoding="UTF-8" standalone="no"?>
<svg
   xmlns:dc="http://purl.org/dc/elements/1.1/"
   xmlns:cc="http://creativecommons.org/ns#"
   xmlns:rdf="http://www.w3.org/1999/02/22-rdf-syntax-ns#"
   xmlns:svg="http://www.w3.org/2000/svg"
   xmlns="http://www.w3.org/2000/svg"
   xmlns:sodipodi="http://sodipodi.sourceforge.net/DTD/sodipodi-0.dtd"
   xmlns:inkscape="http://www.inkscape.org/namespaces/inkscape"
   sodipodi:docname="community.svg"
   inkscape:version="1.0 (6e3e5246a0, 2020-05-07)"
   id="svg3201"
   version="1.1"
   viewBox="0 0 30.79114 25.321491"
   height="25.321491mm"
   width="30.79114mm">
  <defs
     id="defs3195" />
  <sodipodi:namedview
     inkscape:window-maximized="1"
     inkscape:window-y="27"
     inkscape:window-x="0"
     inkscape:window-height="1016"
     inkscape:window-width="1920"
     showgrid="false"
     inkscape:document-rotation="0"
     inkscape:current-layer="layer1"
     inkscape:document-units="mm"
     inkscape:cy="38.501646"
     inkscape:cx="53.036587"
     inkscape:zoom="5.6"
     inkscape:pageshadow="2"
     inkscape:pageopacity="0.0"
     borderopacity="1.0"
     bordercolor="#666666"
     pagecolor="#ffffff"
     id="base" />
  <metadata
     id="metadata3198">
    <rdf:RDF>
      <cc:Work
         rdf:about="">
        <dc:format>image/svg+xml</dc:format>
        <dc:type
           rdf:resource="http://purl.org/dc/dcmitype/StillImage" />
        <dc:title></dc:title>
      </cc:Work>
    </rdf:RDF>
  </metadata>
  <g
     transform="translate(-121.73988,-121.72658)"
     id="layer1"
     inkscape:groupmode="layer"
     inkscape:label="Layer 1">
    <g
       transform="matrix(0.35277777,0,0,-0.35277777,-361.9766,324.56671)"
       id="g2944">
      <path
         id="path2845"
         style="opacity:0.75;fill:#c3423f;fill-opacity:1;stroke:#822120;stroke-width:1.07807;stroke-linecap:round;stroke-linejoin:round;stroke-miterlimit:4;stroke-dasharray:none;stroke-dashoffset:1.134;stroke-opacity:1"
         d="m 1409.4774,560.55047 c 3.3117,-8.80653 -1.4265,-23.10354 -10.28,-26.28727 -9.3937,-3.37795 -23.207,5.02527 -26.1715,14.55753 -5.0103,16.11072 4.8831,21.27176 16.8489,21.90118 7.5536,0.39732 17.0115,-3.28105 19.6026,-10.17144 z"
         sodipodi:nodetypes="aassa" />
      <path
         id="path2847"
         style="opacity:0.75;fill:#5bc0eb;fill-opacity:1;stroke:#2e688d;stroke-width:1.07807;stroke-linecap:round;stroke-linejoin:round;stroke-miterlimit:4;stroke-dasharray:none;stroke-dashoffset:1.134;stroke-opacity:1"
         d="m 1419.0136,520.43732 c 2.7104,-6.41474 -7.1578,-13.57012 -13.79,-15.69377 -5.5237,-1.76876 -15.3652,-1.6132 -16.9416,3.96855 -1.626,5.75766 7.1639,10.49432 12.7523,12.63071 5.605,2.14277 15.6438,4.62206 17.9793,-0.90549 z"
         sodipodi:nodetypes="aaaaa" />
      <path
         id="path2849"
         style="opacity:0.75;fill:#9bc53d;fill-opacity:1;stroke:#4e6c1f;stroke-width:1.07807;stroke-linecap:round;stroke-linejoin:round;stroke-miterlimit:4;stroke-dasharray:none;stroke-dashoffset:1.134;stroke-opacity:1"
         d="m 1457.9078,558.7724 c 0,-10.11956 -8.1814,-18.74714 -20.1046,-18.74711 -11.9232,-3e-5 -18.555,5.97286 -18.555,16.09243 0,10.11956 9.6657,18.32308 21.5887,18.32305 11.9232,3e-5 17.0709,-5.54882 17.0709,-15.66837 z"
         sodipodi:nodetypes="sssss" />
      <path
         id="path2851"
         style="opacity:0.75;fill:#fde74c;fill-opacity:1;stroke:#927426;stroke-width:1.07807;stroke-linecap:round;stroke-linejoin:round;stroke-miterlimit:4;stroke-dasharray:none;stroke-dashoffset:1.134;stroke-opacity:1"
         d="m 1455.196,520.88942 c 0,-5.06983 -7.0616,-9.17972 -15.7724,-9.17971 -8.7108,3e-5 -15.7721,4.10991 -15.7721,9.17971 0,5.06978 7.0613,9.17966 15.7721,9.17968 8.7108,2e-5 15.7724,-4.10986 15.7724,-9.17968 z"
         sodipodi:nodetypes="sssss" />
      <path
         style="fill:none;stroke:#908c8f;stroke-width:1.07807px;stroke-linecap:butt;stroke-linejoin:miter;stroke-opacity:1"
         d="m 1377.2164,560.39711 18.3722,-49.901"
         id="path2825" />
      <path
         style="fill:none;stroke:#908c8f;stroke-width:1.07807px;stroke-linecap:butt;stroke-linejoin:miter;stroke-opacity:1"
         d="m 1397.3464,541.43045 -20.13,18.96666"
         id="path2827" />
      <path
         style="fill:none;stroke:#908c8f;stroke-width:1.07807px;stroke-linecap:butt;stroke-linejoin:miter;stroke-opacity:1"
         d="m 1397.3464,541.43045 5.9572,22.48478"
         id="path2829" />
      <path
         style="fill:none;stroke:#908c8f;stroke-width:1.07807px;stroke-linecap:butt;stroke-linejoin:miter;stroke-opacity:1"
         d="m 1432.6441,566.91227 -5.7018,-12.23868 26.0873,3.51812"
         id="path2831"
         sodipodi:nodetypes="ccc" />
      <path
         style="fill:none;stroke:#908c8f;stroke-width:1.07807px;stroke-linecap:butt;stroke-linejoin:miter;stroke-opacity:1"
         d="m 1453.0296,558.19171 -15.5711,-10.41811 -10.5162,6.89999"
         id="path2833"
         sodipodi:nodetypes="ccc" />
      <path
         style="fill:none;stroke:#908c8f;stroke-width:1.07807px;stroke-linecap:butt;stroke-linejoin:miter;stroke-opacity:1"
         d="m 1412.2261,516.98664 -16.6375,-6.49053"
         id="path2835" />
      <path
         style="fill:none;stroke:#908c8f;stroke-width:1.07807px;stroke-linecap:butt;stroke-linejoin:miter;stroke-opacity:1"
         d="m 1428.6576,523.55273 19.7339,-0.20891"
         id="path2837"
         sodipodi:nodetypes="cc" />
      <path
         style="fill:none;stroke:#908c8f;stroke-width:1.07807px;stroke-linecap:butt;stroke-linejoin:miter;stroke-opacity:1"
         d="m 1448.3915,523.34382 -9.3466,-8.41678"
         id="path2839"
         sodipodi:nodetypes="cc" />
      <path
         style="fill:none;stroke:#908c8f;stroke-width:1.07807px;stroke-linecap:butt;stroke-linejoin:miter;stroke-opacity:1"
         d="m 1428.6576,523.55271 8.8009,24.22089"
         id="path2841"
         sodipodi:nodetypes="cc" />
      <path
         style="fill:none;stroke:#908c8f;stroke-width:1.07807px;stroke-linecap:butt;stroke-linejoin:miter;stroke-opacity:1"
         d="m 1397.3464,541.43045 29.5959,13.24314"
         id="path2843"
         sodipodi:nodetypes="cc" />
      <circle
         style="fill:#211a1e;fill-opacity:1;stroke:#211a1e;stroke-width:1.61711;stroke-linejoin:miter;stroke-miterlimit:4;stroke-dasharray:none;stroke-opacity:1"
         id="circle2801"
         cx="1377.2163"
         cy="-560.39709"
         transform="scale(1,-1)"
         r="1.0780711" />
      <circle
         r="1.0780711"
         transform="scale(1,-1)"
         cy="-563.91522"
         cx="1403.3036"
         id="circle2803"
         style="fill:#211a1e;fill-opacity:1;stroke:#211a1e;stroke-width:1.61711;stroke-linejoin:miter;stroke-miterlimit:4;stroke-dasharray:none;stroke-opacity:1" />
      <circle
         style="fill:#211a1e;fill-opacity:1;stroke:#211a1e;stroke-width:1.61711;stroke-linejoin:miter;stroke-miterlimit:4;stroke-dasharray:none;stroke-opacity:1"
         id="circle2805"
         cx="1397.3464"
         cy="-541.43048"
         transform="scale(1,-1)"
         r="1.0780711" />
      <path
         id="circle2807"
         style="fill:#211a1e;fill-opacity:1;stroke:#211a1e;stroke-width:1.61711;stroke-linejoin:miter;stroke-miterlimit:4;stroke-dasharray:none;stroke-opacity:1"
         d="m 1433.7222,566.91226 c 0,-0.5954 -0.4827,-1.07808 -1.0781,-1.07808 -0.5953,0 -1.078,0.48268 -1.078,1.07808 0,0.59539 0.4827,1.07807 1.078,1.07807 0.5954,0 1.0781,-0.48268 1.0781,-1.07807"
         sodipodi:nodetypes="csssc" />
      <path
         id="circle2809"
         style="fill:#211a1e;fill-opacity:1;stroke:#211a1e;stroke-width:1.61711;stroke-linejoin:miter;stroke-miterlimit:4;stroke-dasharray:none;stroke-opacity:1"
         d="m 1428.0204,554.67359 c 0,-0.5954 -0.4827,-1.07807 -1.0781,-1.07807 -0.5954,0 -1.0781,0.48267 -1.0781,1.07807 0,0.5954 0.4827,1.07807 1.0781,1.07807 0.5954,0 1.0781,-0.48267 1.0781,-1.07807"
         sodipodi:nodetypes="csssc" />
      <path
         id="circle2811"
         style="fill:#211a1e;fill-opacity:1;stroke:#211a1e;stroke-width:1.61711;stroke-linejoin:miter;stroke-miterlimit:4;stroke-dasharray:none;stroke-opacity:1"
         d="m 1454.1077,558.19171 c 0,-0.5954 -0.4827,-1.07807 -1.0781,-1.07807 -0.5954,0 -1.0781,0.48267 -1.0781,1.07807 0,0.5954 0.4827,1.07807 1.0781,1.07807 0.5954,0 1.0781,-0.48267 1.0781,-1.07807"
         sodipodi:nodetypes="csssc" />
      <path
         id="circle2813"
         style="fill:#211a1e;fill-opacity:1;stroke:#211a1e;stroke-width:1.61711;stroke-linejoin:miter;stroke-miterlimit:4;stroke-dasharray:none;stroke-opacity:1"
         d="m 1438.5366,547.7736 c 0,-0.59539 -0.4827,-1.07807 -1.0781,-1.07807 -0.5954,0 -1.078,0.48268 -1.078,1.07807 0,0.5954 0.4826,1.07808 1.078,1.07808 0.5954,0 1.0781,-0.48268 1.0781,-1.07808"
         sodipodi:nodetypes="csssc" />
      <circle
         style="fill:#211a1e;fill-opacity:1;stroke:#211a1e;stroke-width:1.61711;stroke-linejoin:miter;stroke-miterlimit:4;stroke-dasharray:none;stroke-opacity:1"
         id="circle2815"
         cx="1395.5886"
         cy="-510.49612"
         transform="scale(1,-1)"
         r="1.0780711" />
      <circle
         r="1.0780711"
         transform="scale(1,-1)"
         cy="-516.98663"
         cx="1412.2261"
         id="circle2817"
         style="fill:#211a1e;fill-opacity:1;stroke:#211a1e;stroke-width:1.61711;stroke-linejoin:miter;stroke-miterlimit:4;stroke-dasharray:none;stroke-opacity:1" />
      <path
         id="circle2819"
         style="fill:#211a1e;fill-opacity:1;stroke:#211a1e;stroke-width:1.61711;stroke-linejoin:miter;stroke-miterlimit:4;stroke-dasharray:none;stroke-opacity:1"
         d="m 1428.9318,524.59539 c 0.5759,-0.15136 0.92,-0.74088 0.7686,-1.31671 -0.1513,-0.57585 -0.741,-0.91995 -1.3168,-0.76861 -0.5757,0.15136 -0.9199,0.74087 -0.7686,1.31672 0.1514,0.57584 0.741,0.91995 1.3168,0.7686"
         sodipodi:nodetypes="csssc" />
      <path
         id="circle2821"
         style="fill:#211a1e;fill-opacity:1;stroke:#211a1e;stroke-width:1.61711;stroke-linejoin:miter;stroke-miterlimit:4;stroke-dasharray:none;stroke-opacity:1"
         d="m 1439.319,515.9697 c 0.5758,-0.15136 0.9199,-0.74088 0.7686,-1.31671 -0.1514,-0.57585 -0.7409,-0.91995 -1.3167,-0.76861 -0.5758,0.15136 -0.92,0.74087 -0.7686,1.31672 0.1514,0.57584 0.7409,0.91995 1.3167,0.7686"
         sodipodi:nodetypes="csssc" />
      <path
         id="circle2823"
         style="fill:#211a1e;fill-opacity:1;stroke:#211a1e;stroke-width:1.61711;stroke-linejoin:miter;stroke-miterlimit:4;stroke-dasharray:none;stroke-opacity:1"
         d="m 1448.6656,524.38648 c 0.5758,-0.15135 0.9199,-0.74087 0.7686,-1.31672 -0.1514,-0.57584 -0.7409,-0.91994 -1.3167,-0.76859 -0.5758,0.15135 -0.92,0.74087 -0.7686,1.31671 0.1514,0.57584 0.7408,0.91996 1.3167,0.7686"
         sodipodi:nodetypes="csssc" />
    </g>
  </g>
</svg>
