<?xml version="1.0" encoding="UTF-8" standalone="no"?>
<!-- Created with Inkscape (http://www.inkscape.org/) -->

<svg
   xmlns:dc="http://purl.org/dc/elements/1.1/"
   xmlns:cc="http://creativecommons.org/ns#"
   xmlns:rdf="http://www.w3.org/1999/02/22-rdf-syntax-ns#"
   xmlns:svg="http://www.w3.org/2000/svg"
   xmlns="http://www.w3.org/2000/svg"
   xmlns:sodipodi="http://sodipodi.sourceforge.net/DTD/sodipodi-0.dtd"
   xmlns:inkscape="http://www.inkscape.org/namespaces/inkscape"
   width="16.44153mm"
   height="15.495434mm"
   viewBox="0 0 16.441529 15.495434"
   version="1.1"
   id="svg8"
   inkscape:version="0.92.3 (2405546, 2018-03-11)"
   sodipodi:docname="disk.svg">
  <defs
     id="defs2" />
  <sodipodi:namedview
     id="base"
     pagecolor="#ffffff"
     bordercolor="#666666"
     borderopacity="1.0"
     inkscape:pageopacity="0.0"
     inkscape:pageshadow="2"
     inkscape:zoom="1.4"
     inkscape:cx="-210.04868"
     inkscape:cy="-43.700707"
     inkscape:document-units="mm"
     inkscape:current-layer="layer1"
     showgrid="false"
     inkscape:window-width="1720"
     inkscape:window-height="1385"
     inkscape:window-x="0"
     inkscape:window-y="27"
     inkscape:window-maximized="0" />
  <metadata
     id="metadata5">
    <rdf:RDF>
      <cc:Work
         rdf:about="">
        <dc:format>image/svg+xml</dc:format>
        <dc:type
           rdf:resource="http://purl.org/dc/dcmitype/StillImage" />
        <dc:title></dc:title>
      </cc:Work>
    </rdf:RDF>
  </metadata>
  <g
     inkscape:label="Layer 1"
     inkscape:groupmode="layer"
     id="layer1"
     transform="translate(-407.54284,-125.83898)">
    <g
       style="display:inline"
       id="g6831"
       transform="matrix(0.7151715,0,0,0.7151715,386.90718,-44.759211)">
      <path
         style="display:inline;opacity:1;fill:#969696;fill-opacity:1;stroke:#616161;stroke-width:0.5;stroke-linecap:round;stroke-linejoin:round;stroke-miterlimit:4;stroke-dasharray:none;stroke-dashoffset:13.60629368;stroke-opacity:1;paint-order:normal"
         d="m 51.593753,253.34379 c 0,0 -3e-6,3.23814 0,3.96877 -7e-6,1.46125 -5.034469,2.64583 -11.244792,2.64583 -6.210322,0 -11.244784,-1.18458 -11.244792,-2.64583 4e-6,-0.73063 0,-3.96877 0,-3.96877"
         id="path6803-1"
         inkscape:connector-curvature="0"
         sodipodi:nodetypes="ccscc" />
      <path
         sodipodi:nodetypes="ccscc"
         inkscape:connector-curvature="0"
         id="path6785-9-2"
         d="m 51.593753,249.37502 c 0,0 -3e-6,3.23814 0,3.96877 -7e-6,1.46125 -5.034469,2.64583 -11.244792,2.64583 -6.210322,0 -11.244784,-1.18458 -11.244792,-2.64583 4e-6,-0.73063 0,-3.96877 0,-3.96877"
         style="display:inline;opacity:1;fill:#969696;fill-opacity:1;stroke:#616161;stroke-width:0.5;stroke-linecap:round;stroke-linejoin:round;stroke-miterlimit:4;stroke-dasharray:none;stroke-dashoffset:13.60629368;stroke-opacity:1;paint-order:normal" />
      <path
         style="display:inline;opacity:1;fill:#969696;fill-opacity:1;stroke:#616161;stroke-width:0.5;stroke-linecap:round;stroke-linejoin:round;stroke-miterlimit:4;stroke-dasharray:none;stroke-dashoffset:13.60629368;stroke-opacity:1;paint-order:normal"
         d="m 51.593753,245.40625 c 0,0 -4e-6,3.23814 0,3.96877 -8e-6,1.46125 -5.03447,2.64583 -11.244792,2.64583 -6.210322,0 -11.244784,-1.18458 -11.244792,-2.64583 4e-6,-0.73063 0,-3.96877 0,-3.96877"
         id="path6803"
         inkscape:connector-curvature="0"
         sodipodi:nodetypes="ccscc" />
      <path
         sodipodi:nodetypes="ccscc"
         inkscape:connector-curvature="0"
         id="path6785-9"
         d="m 51.593753,241.43748 c 0,0 -4e-6,3.23814 0,3.96877 -8e-6,1.46125 -5.03447,2.64583 -11.244792,2.64583 -6.210322,0 -11.244784,-1.18458 -11.244792,-2.64583 4e-6,-0.73063 0,-3.96877 0,-3.96877"
         style="display:inline;opacity:1;fill:#969696;fill-opacity:1;stroke:#616161;stroke-width:0.5;stroke-linecap:round;stroke-linejoin:round;stroke-miterlimit:4;stroke-dasharray:none;stroke-dashoffset:13.60629368;stroke-opacity:1;paint-order:normal" />
      <ellipse
         ry="2.6458333"
         rx="11.244792"
         cy="241.43748"
         cx="40.348961"
         id="path6785"
         style="opacity:1;fill:#7d7d7d;fill-opacity:0.99607843;stroke:#616161;stroke-width:0.5;stroke-linecap:round;stroke-linejoin:round;stroke-miterlimit:4;stroke-dasharray:none;stroke-dashoffset:13.60629368;stroke-opacity:0.99607843;paint-order:normal" />
    </g>
  </g>
</svg>
