<?xml version="1.0" encoding="UTF-8" standalone="no"?>
<!-- Created with Inkscape (http://www.inkscape.org/) -->

<svg
   version="1.1"
   id="svg2"
   xml:space="preserve"
   width="143"
   height="281.50092"
   viewBox="0 0 143 281.50091"
   sodipodi:docname="lightbulb.svg"
   inkscape:version="1.1.1 (1:1.1+202109281949+c3084ef5ed)"
   xmlns:inkscape="http://www.inkscape.org/namespaces/inkscape"
   xmlns:sodipodi="http://sodipodi.sourceforge.net/DTD/sodipodi-0.dtd"
   xmlns="http://www.w3.org/2000/svg"
   xmlns:svg="http://www.w3.org/2000/svg"><defs
     id="defs6"><clipPath
       clipPathUnits="userSpaceOnUse"
       id="clipPath16"><path
         d="M 108,565.65 H 693.9 V 633.6 H 108 Z"
         id="path14" /></clipPath><clipPath
       clipPathUnits="userSpaceOnUse"
       id="clipPath120"><path
         d="M 108,90 H 693.9 V 565.65 H 108 Z"
         id="path118" /></clipPath><clipPath
       clipPathUnits="userSpaceOnUse"
       id="clipPath710"><path
         d="m 693.9,90 h 66.96 V 565.65 H 693.9 Z"
         id="path708" /></clipPath><clipPath
       clipPathUnits="userSpaceOnUse"
       id="clipPath768"><path
         d="M 765.045,202.275 H 777.6 v 251.1 h -12.555 z"
         id="path766" /></clipPath><clipPath
       clipPathUnits="userSpaceOnUse"
       id="clipPath794"><path
         d="M -1021,-463 H 1794 V 1233 H -1021 Z"
         id="path792" /></clipPath><clipPath
       clipPathUnits="userSpaceOnUse"
       id="clipPath814"><path
         d="M -1021,-463 H 1794 V 1233 H -1021 Z"
         id="path812" /></clipPath><clipPath
       clipPathUnits="userSpaceOnUse"
       id="clipPath834"><path
         d="M -1021,-463 H 1794 V 1233 H -1021 Z"
         id="path832" /></clipPath><linearGradient
       id="linearGradient4961"
       inkscape:swatch="solid"><stop
         style="stop-color:#e6e6e6;stop-opacity:1;"
         offset="0"
         id="stop4959" /></linearGradient></defs><sodipodi:namedview
     id="namedview4"
     pagecolor="#ffffff"
     bordercolor="#c8c8c8"
     borderopacity="1"
     inkscape:pageshadow="0"
     inkscape:pageopacity="0"
     inkscape:pagecheckerboard="0"
     showgrid="true"
     inkscape:zoom="1"
     inkscape:cx="96.5"
     inkscape:cy="71.5"
     inkscape:window-width="1920"
     inkscape:window-height="1016"
     inkscape:window-x="3840"
     inkscape:window-y="27"
     inkscape:window-maximized="1"
     inkscape:current-layer="svg2"
     inkscape:object-paths="true"
     inkscape:snap-grids="true"
     inkscape:snap-to-guides="false"
     inkscape:snap-intersection-paths="true"><inkscape:grid
       type="xygrid"
       id="grid1687"
       originx="-490.4992"
       originy="-400.24908" /></sodipodi:namedview><path
     style="fill:#505050;fill-opacity:1;stroke:none;stroke-width:1px;stroke-linecap:butt;stroke-linejoin:miter;stroke-opacity:1"
     d="m 39.50078,261.50091 c 0,0 -8,6 32,6 40,0 32.00001,-6 32.00001,-6 0,0 -1.66093,1.71042 -4.325945,4.13087 -6.44802,5.8563 -18.773915,15.86913 -27.674065,15.86913 -8.88602,0 -21.18692,-9.98107 -27.64331,-15.84121 -2.68297,-2.43521 -4.35669,-4.15879 -4.35669,-4.15879 z"
     id="path11824"
     sodipodi:nodetypes="czcsssc" /><path
     id="rect5604"
     style="fill:#5a5a5a;fill-opacity:1;stroke:none;stroke-width:3;stroke-linecap:round;stroke-linejoin:round"
     d="m 39.50079,171.50091 c 0,0 -8.00001,8 31.99999,8 40,0 32.00001,-8 32.00001,-8 0,0 2,3.63501 2,5.625 0,1.98999 -2,5.625 -2,5.625 0,0 2,3.63501 2,5.625 0,1.98999 -2,5.625 -2,5.625 0,0 2,3.63501 2,5.625 0,1.98999 -2,5.625 -2,5.625 0,0 2,3.63501 2,5.625 0,1.98999 -2,5.625 -2,5.625 0,0 2,3.63501 2,5.625 0,1.98999 -2,5.625 -2,5.625 0,0 2,3.63501 2,5.625 0,1.98999 -2,5.625 -2,5.625 0,0 2,3.63501 2,5.625 0,1.98999 -2,5.625 -2,5.625 0,0 2,3.63501 2,5.625 0,1.98999 -2,5.625 -2,5.625 0,0 7.99999,6 -32.00001,6 -40,0 -31.99999,-6 -31.99999,-6 0,0 -2,-3.63501 -2,-5.625 0,-1.98999 2,-5.625 2,-5.625 0,0 -2,-3.63501 -2,-5.625 0,-1.98999 2,-5.625 2,-5.625 0,0 -2,-3.63501 -2,-5.625 0,-1.98999 2,-5.625 2,-5.625 0,0 -2,-3.63501 -2,-5.625 0,-1.98999 2,-5.625 2,-5.625 0,0 -2,-3.63501 -2,-5.625 0,-1.98999 2,-5.625 2,-5.625 0,0 -2,-3.63501 -2,-5.625 0,-1.98999 2,-5.625 2,-5.625 0,0 -2,-3.63501 -2,-5.625 0,-1.98999 2,-5.625 2,-5.625 0,0 -2,-3.63501 -2,-5.625 0,-1.98999 2,-5.625 2,-5.625 z"
     sodipodi:nodetypes="czcacacacacacacacaczcacacacacacacacac" /><path
     id="path10391"
     style="fill:#ffe164;fill-opacity:1;stroke:#646464;stroke-width:3;stroke-linecap:round;stroke-linejoin:round;stroke-opacity:1"
     d="m 71.5,1.5 c -38.65993,0 -70,31.34007 -70,70 0.0155,13.6429 7.76554,32.68336 11.51367,38.38281 C 16.7618,115.58226 39.5,171.5 39.5,171.5 c 0,0 -8,8 32,8 40.00001,0 32.00001,-8 32.00001,-8 0,0 22.73553,-55.91339 26.48436,-61.61328 3.74884,-5.6999 11.5003,-24.74229 11.51563,-38.38672 0,-38.65993 -31.34007,-70 -70,-70 z"
     sodipodi:nodetypes="sczcsczcs" /><path
     style="fill:none;stroke:#646464;stroke-width:3;stroke-linecap:butt;stroke-linejoin:miter;stroke-miterlimit:4;stroke-dasharray:none;stroke-opacity:1"
     d="m 51.50078,177.50091 v -66 c 0,0 -4.21855,-20 2.5,-20 6.71855,0 -4.21855,20 2.5,20 6.71855,0 -4.21855,-20 2.5,-20 6.71855,0 -4.21855,20 2.5,20 6.71855,0 -4.21855,-20 2.5,-20 6.71855,0 -4.21855,20 2.5,20 6.71855,0 -4.21855,-20 2.5,-20 6.71855,0 -4.21855,20 2.5,20 6.71855,0 -4.21855,-20 2.5,-20 6.71855,0 -4.21855,20 2.5,20 6.718555,0 -4.21855,-20 2.5,-20 6.718555,0 -4.21855,20 2.500005,20 6.71855,0 -4.218555,-20 2.5,-20 6.71855,0 -4.218555,20 2.5,20 6.71855,0 -4.21855,-20 2.5,-20 6.71855,0 2.5,20 2.5,20 v 66"
     id="path13193"
     sodipodi:nodetypes="ccssssssssssssssscc" /></svg>
