<?xml version="1.0" encoding="UTF-8" standalone="no"?>
<!-- Created with Inkscape (http://www.inkscape.org/) -->

<svg
   xmlns:dc="http://purl.org/dc/elements/1.1/"
   xmlns:cc="http://creativecommons.org/ns#"
   xmlns:rdf="http://www.w3.org/1999/02/22-rdf-syntax-ns#"
   xmlns:svg="http://www.w3.org/2000/svg"
   xmlns="http://www.w3.org/2000/svg"
   xmlns:sodipodi="http://sodipodi.sourceforge.net/DTD/sodipodi-0.dtd"
   xmlns:inkscape="http://www.inkscape.org/namespaces/inkscape"
   width="53.095314mm"
   height="40.831421mm"
   viewBox="0 0 53.095314 40.831424"
   version="1.1"
   id="svg8"
   inkscape:version="0.92.3 (2405546, 2018-03-11)"
   sodipodi:docname="dbs.svg">
  <defs
     id="defs2">
    <clipPath
       clipPathUnits="userSpaceOnUse"
       id="clipPath6309">
      <path
         d="m 1808.381,938.1555 h 25.4305 v 25.43051 h -25.4305 z"
         id="path6307"
         inkscape:connector-curvature="0" />
    </clipPath>
    <clipPath
       clipPathUnits="userSpaceOnUse"
       id="clipPath2133">
      <path
         d="m 1808.381,938.1555 h 25.4305 v 25.43051 h -25.4305 z"
         id="path2131"
         inkscape:connector-curvature="0" />
    </clipPath>
  </defs>
  <sodipodi:namedview
     id="base"
     pagecolor="#ffffff"
     bordercolor="#666666"
     borderopacity="1.0"
     inkscape:pageopacity="0.0"
     inkscape:pageshadow="2"
     inkscape:zoom="1.4"
     inkscape:cx="61.042712"
     inkscape:cy="-31.463876"
     inkscape:document-units="mm"
     inkscape:current-layer="layer1"
     showgrid="false"
     inkscape:window-width="1720"
     inkscape:window-height="1385"
     inkscape:window-x="0"
     inkscape:window-y="27"
     inkscape:window-maximized="0" />
  <metadata
     id="metadata5">
    <rdf:RDF>
      <cc:Work
         rdf:about="">
        <dc:format>image/svg+xml</dc:format>
        <dc:type
           rdf:resource="http://purl.org/dc/dcmitype/StillImage" />
        <dc:title></dc:title>
      </cc:Work>
    </rdf:RDF>
  </metadata>
  <g
     inkscape:label="Layer 1"
     inkscape:groupmode="layer"
     id="layer1"
     transform="translate(-362.74513,77.029941)">
    <path
       inkscape:connector-curvature="0"
       style="opacity:1;fill:#d6fffc;fill-opacity:1;fill-rule:nonzero;stroke:#b1ddd4;stroke-width:1.62721217;stroke-linecap:round;stroke-linejoin:round;stroke-miterlimit:4;stroke-dasharray:none;stroke-dashoffset:0;stroke-opacity:1;paint-order:fill markers stroke"
       d="m 415.02684,-56.614225 a 25.734052,19.60211 0 0 1 -25.73406,19.6021 25.734052,19.60211 0 0 1 -25.73404,-19.6021 25.734052,19.60211 0 0 1 25.73404,-19.60211 25.734052,19.60211 0 0 1 25.73406,19.60211 z"
       id="path8886" />
    <path
       inkscape:connector-curvature="0"
       id="path8864"
       style="fill:#ffe7e6;fill-opacity:1;fill-rule:nonzero;stroke:#e4b495;stroke-width:0.48621693;stroke-opacity:1"
       d="m 377.82773,-56.858435 c 3.9566,-3.95887 10.37153,-3.95887 14.32818,0 3.9566,3.95838 3.9566,10.376712 0,14.335571 -3.95665,3.958868 -10.37158,3.958868 -14.32818,0 -3.95665,-3.958859 -3.95665,-10.377191 0,-14.335571 z" />
    <g
       transform="matrix(0,-0.48634737,-0.48608652,0,844.57932,836.2468)"
       id="g8876"
       style="fill:#d6c4fc;fill-opacity:1">
      <g
         clip-path="url(#clipPath6309)"
         id="g8874"
         style="fill:#d6c4fc;fill-opacity:1">
        <path
           inkscape:connector-curvature="0"
           id="path8872"
           style="fill:#d6c4fc;fill-opacity:1;fill-rule:nonzero;stroke:none"
           d="m 1829.38,959.1547 c 4.575,-4.5751 4.575,-11.9928 0,-16.5679 -4.575,-4.5751 -11.993,-4.5751 -16.568,0 -4.575,4.5751 -4.575,11.9928 0,16.5679 4.575,4.5751 11.993,4.5751 16.568,0 z" />
      </g>
    </g>
    <g
       id="g8956"
       transform="matrix(-1,0,0,1,236.04874,-239.75363)">
      <path
         style="opacity:1;fill:#ffffff;fill-opacity:1;fill-rule:nonzero;stroke:#646464;stroke-width:0.50055391;stroke-linecap:round;stroke-linejoin:round;stroke-miterlimit:4;stroke-dasharray:none;stroke-dashoffset:0;stroke-opacity:1;paint-order:fill markers stroke"
         d="m -142.66592,171.22263 c -0.13947,-0.10411 -0.3074,-0.16216 -0.4885,-0.18629 -0.1811,-0.0241 -0.37562,-0.0145 -0.5694,0.0171 -0.38756,0.0634 -0.7713,0.21435 -1.03582,0.35579 -0.22259,0.11902 -0.43438,0.2681 -0.63013,0.44062 -0.19574,0.17251 -0.37578,0.36835 -0.53398,0.58004 -0.15819,0.2117 -0.29466,0.43938 -0.4046,0.67595 -0.10996,0.23656 -0.19319,0.48228 -0.2442,0.72939 -0.0617,0.29874 -0.0975,0.70915 -0.048,1.09728 0.0247,0.19407 0.0709,0.38222 0.14561,0.54814 0.0747,0.16592 0.17812,0.30997 0.31759,0.41409 l 3.48776,2.60355 c 0.62252,0.4647 1.54377,0.22781 2.18766,-0.1165 0.89037,-0.4761 1.60886,-1.43757 1.81291,-2.426 0.14757,-0.7148 0.11336,-1.66493 -0.50915,-2.12962 z"
         id="path8878"
         inkscape:connector-curvature="0" />
      <path
         style="opacity:1;fill:#11a9da;fill-opacity:1;fill-rule:nonzero;stroke:#646464;stroke-width:0.50055391;stroke-linecap:round;stroke-linejoin:round;stroke-miterlimit:4;stroke-dasharray:none;stroke-dashoffset:0;stroke-opacity:1;paint-order:fill markers stroke"
         d="m -150.45178,169.04981 c -0.31639,0.42339 -0.54678,0.91112 -0.6488,1.40533 -0.14757,0.71481 -0.11336,1.66493 0.50915,2.12963 l 4.4341,3.30999 c -0.13947,-0.10412 -0.24288,-0.24817 -0.3176,-0.41409 -0.0747,-0.16592 -0.12087,-0.35407 -0.14561,-0.54814 -0.0495,-0.38813 -0.0137,-0.79854 0.048,-1.09728 0.051,-0.24711 0.13425,-0.49283 0.2442,-0.72939 0.10995,-0.23656 0.24641,-0.46425 0.4046,-0.67594 0.1582,-0.2117 0.33823,-0.40754 0.53398,-0.58005 0.19575,-0.17252 0.40754,-0.32159 0.63014,-0.44062 0.26451,-0.14143 0.64825,-0.29243 1.03581,-0.35578 0.19378,-0.0317 0.3883,-0.0413 0.5694,-0.0171 0.1811,0.0241 0.34903,0.0822 0.48851,0.18629 l -4.4341,-3.30998 c -0.62251,-0.4647 -1.54376,-0.2278 -2.18766,0.1165 -0.44518,0.23805 -0.84771,0.59727 -1.16411,1.02066 z"
         id="path8880"
         inkscape:connector-curvature="0" />
      <path
         style="fill:none;stroke:#ffffff;stroke-width:1.12168932;stroke-linecap:round;stroke-linejoin:miter;stroke-miterlimit:4;stroke-dasharray:none;stroke-opacity:0.78431373"
         d="m -148.65155,168.87577 c 0.86324,-0.32632 0.74904,-0.31079 3.0956,1.5146"
         id="path8882"
         inkscape:connector-curvature="0"
         sodipodi:nodetypes="cc" />
    </g>
    <path
       sodipodi:nodetypes="cc"
       inkscape:connector-curvature="0"
       id="path8891"
       d="m 394.81008,-71.195145 0.48921,0.27191"
       style="fill:none;stroke:#ffffff;stroke-width:5;stroke-linecap:round;stroke-linejoin:miter;stroke-miterlimit:4;stroke-dasharray:none;stroke-opacity:1" />
    <path
       d="m 395.11737,-62.727665 c 3.9566,-3.95887 10.37153,-3.95887 14.32818,0 3.9566,3.95838 3.9566,10.37671 0,14.33557 -3.95665,3.958871 -10.37158,3.958871 -14.32818,0 -3.95665,-3.95886 -3.95665,-10.37719 0,-14.33557 z"
       style="fill:#ffe7e6;fill-opacity:1;fill-rule:nonzero;stroke:#e4b495;stroke-width:0.48621693;stroke-opacity:1"
       id="path8945"
       inkscape:connector-curvature="0" />
    <g
       style="fill:#d6c4fc;fill-opacity:1"
       id="g8951"
       transform="matrix(0,-0.48634737,-0.48608652,0,865.78684,829.2582)">
      <g
         style="fill:#d6c4fc;fill-opacity:1"
         id="g8949"
         clip-path="url(#clipPath6309)">
        <path
           d="m 1829.38,959.1547 c 4.575,-4.5751 4.575,-11.9928 0,-16.5679 -4.575,-4.5751 -11.993,-4.5751 -16.568,0 -4.575,4.5751 -4.575,11.9928 0,16.5679 4.575,4.5751 11.993,4.5751 16.568,0 z"
           style="fill:#d6c4fc;fill-opacity:1;fill-rule:nonzero;stroke:none"
           id="path8947"
           inkscape:connector-curvature="0" />
      </g>
    </g>
    <path
       style="fill:none;stroke:#ffffff;stroke-width:5;stroke-linecap:round;stroke-linejoin:miter;stroke-miterlimit:4;stroke-dasharray:none;stroke-opacity:1"
       d="m 401.38692,-68.156905 c 4.22597,2.38212 6.03286,5.55114 6.33224,12.33467"
       id="path8889"
       inkscape:connector-curvature="0"
       sodipodi:nodetypes="cc" />
  </g>
</svg>
