<?xml version="1.0" encoding="UTF-8" standalone="no"?>
<!-- Created with Inkscape (http://www.inkscape.org/) -->

<svg
   xmlns:dc="http://purl.org/dc/elements/1.1/"
   xmlns:cc="http://creativecommons.org/ns#"
   xmlns:rdf="http://www.w3.org/1999/02/22-rdf-syntax-ns#"
   xmlns:svg="http://www.w3.org/2000/svg"
   xmlns="http://www.w3.org/2000/svg"
   xmlns:sodipodi="http://sodipodi.sourceforge.net/DTD/sodipodi-0.dtd"
   xmlns:inkscape="http://www.inkscape.org/namespaces/inkscape"
   width="27.268475mm"
   height="70.832382mm"
   viewBox="0 0 27.268473 70.832382"
   version="1.1"
   id="svg8"
   inkscape:version="0.92.3 (unknown)"
   sodipodi:docname="eppendorf.svg">
  <defs
     id="defs2" />
  <sodipodi:namedview
     id="base"
     pagecolor="#ffffff"
     bordercolor="#666666"
     borderopacity="1.0"
     inkscape:pageopacity="0.0"
     inkscape:pageshadow="2"
     inkscape:zoom="1.979899"
     inkscape:cx="-1.2421316"
     inkscape:cy="99.309251"
     inkscape:document-units="mm"
     inkscape:current-layer="layer1"
     showgrid="true"
     inkscape:window-width="2547"
     inkscape:window-height="1383"
     inkscape:window-x="0"
     inkscape:window-y="27"
     inkscape:window-maximized="0"
     inkscape:snap-global="true"
     inkscape:snap-grids="false"
     inkscape:object-paths="true">
    <inkscape:grid
       type="xygrid"
       id="grid834"
       originx="0.099994641"
       originy="0.062333558" />
  </sodipodi:namedview>
  <metadata
     id="metadata5">
    <rdf:RDF>
      <cc:Work
         rdf:about="">
        <dc:format>image/svg+xml</dc:format>
        <dc:type
           rdf:resource="http://purl.org/dc/dcmitype/StillImage" />
        <dc:title />
      </cc:Work>
    </rdf:RDF>
  </metadata>
  <g
     inkscape:label="Layer 1"
     inkscape:groupmode="layer"
     id="layer1"
     transform="translate(-418.68743,-59.414859)">
    <path
       sodipodi:nodetypes="ccccc"
       inkscape:connector-curvature="0"
       id="path6497"
       d="m 427.88317,95.088135 v 25.066495 l 8.08982,9.9436 8.10157,-9.9436 V 95.082547"
       style="fill:#ffc99e;fill-opacity:1;stroke:none;stroke-width:0.77397287;stroke-linecap:round;stroke-linejoin:round;stroke-miterlimit:4;stroke-dasharray:none;stroke-opacity:1" />
    <ellipse
       style="opacity:1;fill:#ffa771;fill-opacity:1;stroke:none;stroke-width:0.78580213;stroke-linecap:round;stroke-linejoin:round;stroke-miterlimit:4;stroke-dasharray:none;stroke-dashoffset:10;stroke-opacity:1;paint-order:normal"
       id="ellipse6510"
       cx="435.97299"
       cy="94.948982"
       rx="7.8987751"
       ry="1.7397631" />
    <g
       id="g6459"
       transform="matrix(2.0620724,0,0,2.0620724,288.66369,-401.18293)">
      <path
         sodipodi:nodetypes="cc"
         inkscape:connector-curvature="0"
         id="path6425"
         d="m 71.653214,238.54096 c 1.237712,0.16706 2.533547,0.12896 3.713136,-0.33073"
         style="fill:none;fill-rule:evenodd;stroke:#000000;stroke-width:0.26458332px;stroke-linecap:round;stroke-linejoin:miter;stroke-opacity:0.28936175" />
      <path
         style="fill:none;fill-rule:evenodd;stroke:#000000;stroke-width:0.26458332px;stroke-linecap:round;stroke-linejoin:miter;stroke-opacity:0.28936175"
         d="m 71.653214,243.84021 c 1.237712,0.16706 2.867634,-0.0203 3.713136,-0.63029"
         id="path6443"
         inkscape:connector-curvature="0"
         sodipodi:nodetypes="cc" />
      <path
         sodipodi:nodetypes="cc"
         inkscape:connector-curvature="0"
         id="path6445"
         d="m 71.653214,248.84021 c 1.237712,0.16706 2.750703,0.11337 3.713136,-0.63029"
         style="fill:none;fill-rule:evenodd;stroke:#000000;stroke-width:0.26458332px;stroke-linecap:round;stroke-linejoin:miter;stroke-opacity:0.28936175" />
      <path
         style="fill:none;fill-rule:evenodd;stroke:#000000;stroke-width:0.26458332px;stroke-linecap:round;stroke-linejoin:miter;stroke-opacity:0.28936175"
         d="m 72.75335,241.34021 c 0.930606,0.0631 2.015712,-0.10378 2.613,-0.63029"
         id="path6447"
         inkscape:connector-curvature="0"
         sodipodi:nodetypes="cc" />
      <path
         style="fill:none;fill-rule:evenodd;stroke:#000000;stroke-width:0.26458332px;stroke-linecap:round;stroke-linejoin:miter;stroke-opacity:0.28936175"
         d="m 72.75335,246.34052 c 0.918795,0.0493 2.114931,-0.12014 2.613,-0.63029"
         id="path6449"
         inkscape:connector-curvature="0"
         sodipodi:nodetypes="cc" />
      <path
         sodipodi:nodetypes="cc"
         inkscape:connector-curvature="0"
         id="path6451"
         d="m 72.75335,251.34021 c 0.95423,0.11034 2.032417,-0.0871 2.613,-0.63029"
         style="fill:none;fill-rule:evenodd;stroke:#000000;stroke-width:0.26458332px;stroke-linecap:round;stroke-linejoin:miter;stroke-opacity:0.28936175" />
    </g>
    <path
       id="rect6422"
       style="opacity:1;fill:none;fill-opacity:1;stroke:#606060;stroke-width:1.03103626;stroke-linecap:round;stroke-linejoin:round;stroke-miterlimit:4;stroke-dasharray:none;stroke-dashoffset:0;stroke-opacity:0.98039216"
       d="m 419.82985,81.534422 -0.62691,-2.194169 2.20239,-4.46216 c 0,0 0.17074,0.813756 0.48577,1.010601 0.31496,0.196928 1.7502,0.516694 1.7502,0.516694 l -3.81145,5.129034 8.67243,2.624049 c 0,0 -1.13457,-0.514096 -1.5197,-0.977093 -0.2685,-0.322797 -0.47694,-1.165834 -0.47694,-1.165834 l -5.63496,-1.881764 m 5.84278,-14.854325 c -4.26132,4.261314 -6.42037,9.011236 -4.82239,10.609239 1.59799,1.598044 6.34793,-0.561028 10.60924,-4.822383 4.26132,-4.261306 6.42037,-9.01123 4.82239,-10.609239 -1.59799,-1.598042 -6.34793,0.561024 -10.60924,4.822383 z m -2.98782,11.175855 c 0,0 0.95282,0.987238 1.75181,1.78625 1.59796,1.598044 6.39556,-1.827573 9.6339,-4.749303 3.33575,-3.38448 6.51273,-7.905594 4.91474,-9.503597 -0.79899,-0.799012 -2.18235,-2.182374 -2.18235,-2.182374 m 7.59659,17.883797 c 0,1.926471 -4.23867,3.488181 -9.46734,3.488181 -5.22868,0 -9.46735,-1.56171 -9.46735,-3.488181 0,-0.351335 0.10661,-0.725004 0.36878,-1.044831 1.7659,-0.376596 2.14423,-0.670772 4.21902,-1.964392 1.32839,-0.261698 3.26791,-0.478958 4.87955,-0.478958 5.22867,0 9.46734,1.561711 9.46734,3.488181 z m -17.78999,1.622192 c 0.74878,-1.622171 3.09399,-2.784912 8.32265,-2.784912 5.22867,0 7.57389,1.162741 8.32246,2.784912 m 1.14488,-1.622171 v 2.32544 c 0,1.926471 -4.23867,3.488181 -9.46734,3.488181 -5.22868,0 -9.46735,-1.56171 -9.46735,-3.488181 v -2.32544 m 1.37753,4.468367 c 0,0 0.006,34.501999 0,35.996159 -0.006,1.49415 6.70466,8.70994 6.70466,8.70994 0,0 0.91591,0.87284 1.45337,0.8671 0.53744,-0.006 1.32282,-0.8671 1.32282,-0.8671 0,0 6.71054,-7.2234 6.71054,-8.70994 0,-1.48655 0,-36.001748 0,-36.001748"
       inkscape:connector-curvature="0"
       sodipodi:nodetypes="ccccccccccccccccccccsssccsscsccssscczccczc" />
  </g>
</svg>
