<?xml version="1.0" encoding="UTF-8" standalone="no"?>
<!-- Created with Inkscape (http://www.inkscape.org/) -->

<svg
   xmlns:dc="http://purl.org/dc/elements/1.1/"
   xmlns:cc="http://creativecommons.org/ns#"
   xmlns:rdf="http://www.w3.org/1999/02/22-rdf-syntax-ns#"
   xmlns:svg="http://www.w3.org/2000/svg"
   xmlns="http://www.w3.org/2000/svg"
   xmlns:sodipodi="http://sodipodi.sourceforge.net/DTD/sodipodi-0.dtd"
   xmlns:inkscape="http://www.inkscape.org/namespaces/inkscape"
   width="13.06436mm"
   height="34.25428mm"
   viewBox="0 0 13.064359 34.25428"
   version="1.1"
   id="svg8"
   inkscape:version="0.92.3 (2405546, 2018-03-11)"
   sodipodi:docname="eppendorf.svg">
  <defs
     id="defs2" />
  <sodipodi:namedview
     id="base"
     pagecolor="#ffffff"
     bordercolor="#666666"
     borderopacity="1.0"
     inkscape:pageopacity="0.0"
     inkscape:pageshadow="2"
     inkscape:zoom="1.4"
     inkscape:cx="-252.54788"
     inkscape:cy="-85.840559"
     inkscape:document-units="mm"
     inkscape:current-layer="layer1"
     showgrid="false"
     inkscape:window-width="1720"
     inkscape:window-height="1385"
     inkscape:window-x="0"
     inkscape:window-y="27"
     inkscape:window-maximized="0" />
  <metadata
     id="metadata5">
    <rdf:RDF>
      <cc:Work
         rdf:about="">
        <dc:format>image/svg+xml</dc:format>
        <dc:type
           rdf:resource="http://purl.org/dc/dcmitype/StillImage" />
        <dc:title></dc:title>
      </cc:Work>
    </rdf:RDF>
  </metadata>
  <g
     inkscape:label="Layer 1"
     inkscape:groupmode="layer"
     id="layer1"
     transform="translate(-418.78742,-95.930631)">
    <g
       style="display:inline"
       id="g6751"
       transform="translate(354.34698,-107.39351)">
      <path
         sodipodi:nodetypes="csssc"
         inkscape:connector-curvature="0"
         id="ellipse10759"
         d="m 77.314245,213.12312 c 0,1.12772 0,0.66061 0,1.12772 0,0.93424 -2.055541,1.69159 -4.59118,1.69159 -2.53564,0 -4.591181,-0.75735 -4.591181,-1.69159 0,-0.93423 10e-7,0 10e-7,-1.12772"
         style="opacity:1;fill:#ffffff;fill-opacity:1;stroke:#636363;stroke-width:0.38107398;stroke-linecap:round;stroke-linejoin:round;stroke-miterlimit:4;stroke-dasharray:none;stroke-dashoffset:10;stroke-opacity:1;paint-order:normal" />
      <ellipse
         ry="1.6915888"
         rx="4.5911803"
         cy="213.12311"
         cx="72.723061"
         id="path7053"
         style="opacity:1;fill:none;fill-opacity:1;stroke:#00000c;stroke-width:0.38107398;stroke-linecap:round;stroke-linejoin:round;stroke-miterlimit:4;stroke-dasharray:none;stroke-dashoffset:10;stroke-opacity:1;paint-order:normal" />
      <path
         sodipodi:nodetypes="csc"
         inkscape:connector-curvature="0"
         id="path7053-6"
         d="m 68.686997,213.90979 c 0.363125,-0.78667 1.500429,-1.35054 4.036068,-1.35054 2.53564,0 3.672944,0.56387 4.035963,1.35054"
         style="display:inline;opacity:1;fill:none;fill-opacity:1;stroke:#636363;stroke-width:0.38107398;stroke-linecap:round;stroke-linejoin:round;stroke-miterlimit:4;stroke-dasharray:none;stroke-dashoffset:10;stroke-opacity:1;paint-order:normal" />
      <ellipse
         style="opacity:1;fill:none;fill-opacity:1;stroke:#636363;stroke-width:0.38107398;stroke-linecap:round;stroke-linejoin:round;stroke-miterlimit:4;stroke-dasharray:none;stroke-dashoffset:10;stroke-opacity:1;paint-order:normal"
         id="ellipse6499"
         cx="72.723061"
         cy="213.12311"
         rx="4.5911803"
         ry="1.6915888" />
      <path
         style="fill:#ffc99e;fill-opacity:1;stroke:none;stroke-width:0.37533739;stroke-linecap:round;stroke-linejoin:round;stroke-miterlimit:4;stroke-dasharray:none;stroke-opacity:1"
         d="m 68.799912,220.59038 v 12.15597 l 3.923152,4.82214 3.928848,-4.82214 v -12.15868"
         id="path6497"
         inkscape:connector-curvature="0"
         sodipodi:nodetypes="ccccc" />
      <ellipse
         ry="1.2947137"
         rx="3.8305032"
         cy="220.5229"
         cx="72.723061"
         id="ellipse6510"
         style="opacity:1;fill:#ffa771;fill-opacity:1;stroke:none;stroke-width:0.38107398;stroke-linecap:round;stroke-linejoin:round;stroke-miterlimit:4;stroke-dasharray:none;stroke-dashoffset:10;stroke-opacity:1;paint-order:normal" />
      <g
         transform="translate(1.2855624,-20.075788)"
         id="g6459">
        <path
           style="fill:none;fill-rule:evenodd;stroke:#000000;stroke-width:0.26458332px;stroke-linecap:round;stroke-linejoin:miter;stroke-opacity:0.28936175"
           d="m 71.653214,238.54096 c 1.237712,0.16706 2.533547,0.12896 3.713136,-0.33073"
           id="path6425"
           inkscape:connector-curvature="0"
           sodipodi:nodetypes="cc" />
        <path
           sodipodi:nodetypes="cc"
           inkscape:connector-curvature="0"
           id="path6443"
           d="m 71.653214,243.54065 c 1.237712,0.16706 2.533547,0.12896 3.713136,-0.33073"
           style="fill:none;fill-rule:evenodd;stroke:#000000;stroke-width:0.26458332px;stroke-linecap:round;stroke-linejoin:miter;stroke-opacity:0.28936175" />
        <path
           style="fill:none;fill-rule:evenodd;stroke:#000000;stroke-width:0.26458332px;stroke-linecap:round;stroke-linejoin:miter;stroke-opacity:0.28936175"
           d="m 71.653214,248.54065 c 1.237712,0.16706 2.533547,0.12896 3.713136,-0.33073"
           id="path6445"
           inkscape:connector-curvature="0"
           sodipodi:nodetypes="cc" />
        <path
           sodipodi:nodetypes="cc"
           inkscape:connector-curvature="0"
           id="path6447"
           d="m 72.75335,241.04065 c 1.237712,-0.0314 1.664921,0.12896 2.613,-0.33073"
           style="fill:none;fill-rule:evenodd;stroke:#000000;stroke-width:0.26458332px;stroke-linecap:round;stroke-linejoin:miter;stroke-opacity:0.28936175" />
        <path
           sodipodi:nodetypes="cc"
           inkscape:connector-curvature="0"
           id="path6449"
           d="m 72.75335,246.04096 c 1.237712,0.002 1.76414,0.0959 2.613,-0.33073"
           style="fill:none;fill-rule:evenodd;stroke:#000000;stroke-width:0.26458332px;stroke-linecap:round;stroke-linejoin:miter;stroke-opacity:0.28936175" />
        <path
           style="fill:none;fill-rule:evenodd;stroke:#000000;stroke-width:0.26458332px;stroke-linecap:round;stroke-linejoin:miter;stroke-opacity:0.28936175"
           d="m 72.75335,251.04065 c 1.237712,-0.0314 1.664921,0.12896 2.613,-0.33073"
           id="path6451"
           inkscape:connector-curvature="0"
           sodipodi:nodetypes="cc" />
      </g>
      <path
         sodipodi:nodetypes="ccczccc"
         inkscape:connector-curvature="0"
         id="path10803"
         d="m 68.799912,215.29005 v 17.4563 l 3.25142,4.22388 c 0,0 0.444171,0.42328 0.704805,0.4205 0.260634,-0.003 0.641507,-0.4205 0.641507,-0.4205 l 3.254268,-4.22388 v -17.45901"
         style="fill:none;stroke:#636363;stroke-width:0.37533739;stroke-linecap:round;stroke-linejoin:round;stroke-miterlimit:4;stroke-dasharray:none;stroke-opacity:1" />
      <g
         style="stroke:#606060;stroke-opacity:0.98039216"
         transform="translate(2.4151047,-20.20368)"
         id="g6418">
        <path
           inkscape:connector-curvature="0"
           id="path6407"
           d="m 64.159822,231.56599 c 0,0 0.670863,0.67086 1.058334,1.05834 0.774938,0.77497 2.546374,-0.27207 4.612896,-2.33861 2.066519,-2.06652 3.217402,-3.79837 2.442461,-4.57332 -0.387471,-0.38748 -1.058334,-1.05834 -1.058334,-1.05834"
           style="opacity:1;fill:#ffffff;fill-opacity:1;stroke:#606060;stroke-width:0.43301082;stroke-linecap:round;stroke-linejoin:round;stroke-miterlimit:4;stroke-dasharray:none;stroke-dashoffset:37.79527664;stroke-opacity:0.98039216;paint-order:normal"
           sodipodi:nodetypes="cccsc" />
        <path
           style="opacity:1;fill:#ffffff;fill-opacity:1;stroke:#606060;stroke-width:0.43301082;stroke-linecap:round;stroke-linejoin:round;stroke-miterlimit:4;stroke-dasharray:none;stroke-dashoffset:37.79527664;stroke-opacity:0.98039216;paint-order:normal"
           d="m 65.81756,226.33837 a 1.98437,5.291633 44.999869 0 0 -2.338608,5.14494 1.98437,5.291633 44.999869 0 0 5.144938,-2.33861 1.98437,5.291633 44.999869 0 0 2.338607,-5.14494 1.98437,5.291633 44.999869 0 0 -5.144937,2.33861 z"
           id="path10819"
           inkscape:connector-curvature="0" />
      </g>
      <path
         sodipodi:nodetypes="cccscccscc"
         inkscape:connector-curvature="0"
         id="rect6422"
         d="m 64.894459,214.01752 -0.304019,-1.06406 1.068046,-2.16392 c 0,0 0.08283,0.39463 0.23557,0.49009 0.152741,0.0955 0.848763,0.25057 0.848763,0.25057 l -1.84836,2.48732 4.205691,1.27253 c 0,0 -0.550207,-0.24931 -0.736977,-0.47384 -0.130214,-0.15654 -0.231289,-0.56537 -0.231289,-0.56537 l -2.732674,-0.91256"
         style="opacity:1;fill:none;fill-opacity:1;stroke:#606060;stroke-width:0.30000001;stroke-linecap:round;stroke-linejoin:round;stroke-miterlimit:4;stroke-dasharray:none;stroke-dashoffset:0;stroke-opacity:0.98039216" />
    </g>
  </g>
</svg>
