<?xml version="1.0" encoding="UTF-8" standalone="no"?>
<!-- Created with Inkscape (http://www.inkscape.org/) -->

<svg
   version="1.1"
   id="svg2"
   xml:space="preserve"
   width="1198.7914"
   height="698.24127"
   viewBox="0 0 1198.7914 698.24127"
   sodipodi:docname="fusion.svg"
   inkscape:version="1.1.2 (0a00cf5339, 2022-02-04)"
   xmlns:inkscape="http://www.inkscape.org/namespaces/inkscape"
   xmlns:sodipodi="http://sodipodi.sourceforge.net/DTD/sodipodi-0.dtd"
   xmlns="http://www.w3.org/2000/svg"
   xmlns:svg="http://www.w3.org/2000/svg"><defs
     id="defs6"><clipPath
       clipPathUnits="userSpaceOnUse"
       id="clipPath16"><path
         d="M 108,565.65 H 693.9 V 633.6 H 108 Z"
         id="path14" /></clipPath><clipPath
       clipPathUnits="userSpaceOnUse"
       id="clipPath120"><path
         d="M 108,90 H 693.9 V 565.65 H 108 Z"
         id="path118" /></clipPath><clipPath
       clipPathUnits="userSpaceOnUse"
       id="clipPath710"><path
         d="m 693.9,90 h 66.96 V 565.65 H 693.9 Z"
         id="path708" /></clipPath><clipPath
       clipPathUnits="userSpaceOnUse"
       id="clipPath768"><path
         d="M 765.045,202.275 H 777.6 v 251.1 h -12.555 z"
         id="path766" /></clipPath><clipPath
       clipPathUnits="userSpaceOnUse"
       id="clipPath794"><path
         d="M -1021,-463 H 1794 V 1233 H -1021 Z"
         id="path792" /></clipPath><clipPath
       clipPathUnits="userSpaceOnUse"
       id="clipPath814"><path
         d="M -1021,-463 H 1794 V 1233 H -1021 Z"
         id="path812" /></clipPath><clipPath
       clipPathUnits="userSpaceOnUse"
       id="clipPath834"><path
         d="M -1021,-463 H 1794 V 1233 H -1021 Z"
         id="path832" /></clipPath></defs><sodipodi:namedview
     id="namedview4"
     pagecolor="#ffffff"
     bordercolor="#c8c8c8"
     borderopacity="1"
     inkscape:pageshadow="0"
     inkscape:pageopacity="0"
     inkscape:pagecheckerboard="0"
     showgrid="true"
     inkscape:zoom="0.52959351"
     inkscape:cx="308.72735"
     inkscape:cy="-185.04758"
     inkscape:window-width="1920"
     inkscape:window-height="1043"
     inkscape:window-x="0"
     inkscape:window-y="0"
     inkscape:window-maximized="1"
     inkscape:current-layer="layer4"
     inkscape:snap-grids="false"
     inkscape:object-paths="false"
     inkscape:snap-global="true"><inkscape:grid
       type="xygrid"
       id="grid1687"
       originx="64.811893"
       originy="-139.24381" /></sodipodi:namedview><g
     inkscape:groupmode="layer"
     id="layer4"
     inkscape:label="Layer 2"
     style="display:inline;opacity:1"
     transform="translate(64.811892,-139.24381)"><path
       style="opacity:1;fill:#323232;fill-opacity:1;stroke:#000000;stroke-width:1px;stroke-linecap:butt;stroke-linejoin:miter;stroke-opacity:1"
       d="m -49.847879,775.09084 -1.298679,-56.24217 1123.420958,48.2141 0.014,69.89395 z"
       id="path54190" /><path
       style="opacity:1;fill:#191919;fill-opacity:1;stroke:#000000;stroke-width:1px;stroke-linecap:butt;stroke-linejoin:miter;stroke-opacity:1"
       d="m 1072.2884,836.95672 49.0841,-102.91976 -0.449,-24.06216 -48.6474,65.75099 0.012,61.23093"
       id="path54192" /><path
       style="opacity:1;fill:#4b4b4b;fill-opacity:1;stroke:#000000;stroke-width:1px;stroke-linecap:butt;stroke-linejoin:miter;stroke-opacity:1"
       d="m -64.310821,152.34543 1.218874,565.51793 309.816937,13.76913 2.19362,-581.60403 z"
       id="path54434" /><path
       style="opacity:1;fill:#4b4b4b;fill-opacity:1;stroke:#000000;stroke-width:1px;stroke-linecap:butt;stroke-linejoin:miter;stroke-opacity:1"
       d="m 248.91861,150.02846 805.46379,-9.32392 c -0.6289,52.96187 -0.7563,106.13306 -4.1412,157.94463 l -801.86171,-5.68174 0.53912,-142.93897"
       id="path54658"
       sodipodi:nodetypes="ccccc" /><path
       style="opacity:1;fill:#c8c8c8;fill-opacity:1;stroke:#000000;stroke-width:1px;stroke-linecap:butt;stroke-linejoin:miter;stroke-opacity:1"
       d="m 248.37949,292.96743 -1.6545,438.66506 0.39427,12.24443 732.44698,29.21766 c 37.06726,-136.1042 56.95426,-300.99262 70.67496,-474.44541"
       id="path54660"
       sodipodi:nodetypes="ccccc" /><path
       style="opacity:1;fill:#4995e6;fill-opacity:1;stroke:#000000;stroke-width:1px;stroke-linecap:butt;stroke-linejoin:miter;stroke-opacity:1"
       d="m 979.56624,773.09458 105.25816,2.21727 -1.787,-635.1054 -28.655,0.49809 c -0.01,112.31469 -6.8528,220.14001 -18.9638,324.31242 -12.2978,105.77842 -30.0595,207.79907 -55.85236,308.07762"
       id="path55117"
       sodipodi:nodetypes="ccccsc" /><path
       style="opacity:1;fill:#216dbe;fill-opacity:1;stroke:#000000;stroke-width:1px;stroke-linecap:butt;stroke-linejoin:miter;stroke-opacity:1"
       d="m 1084.8244,775.31185 5.8743,-5.69151 -1.9703,-625.42717 -5.691,-3.98672 z"
       id="path55665" /><path
       style="opacity:1;fill:#969696;fill-opacity:1;stroke:#000000;stroke-width:1px;stroke-linecap:butt;stroke-linejoin:miter;stroke-opacity:1"
       d="m 1090.6987,769.62034 42.7804,-83.08628 -1.4171,-506.87183 -43.3336,-35.46906 1.9703,625.42717"
       id="path55907" /><path
       style="display:inline;opacity:1;fill:none;stroke:#810000;stroke-width:5.82458;stroke-linecap:round;stroke-linejoin:miter;stroke-miterlimit:4;stroke-dasharray:none;stroke-opacity:1"
       d="m -28.895798,194.71387 0.0687,8.84629"
       id="path51155" /><path
       style="display:inline;opacity:1;fill:none;stroke:#810000;stroke-width:5.82458;stroke-linecap:round;stroke-linejoin:miter;stroke-miterlimit:4;stroke-dasharray:none;stroke-opacity:1"
       d="m -21.739581,194.71387 0.0687,8.84629"
       id="path51157" /><path
       style="display:inline;opacity:1;fill:none;stroke:#810000;stroke-width:5.82458;stroke-linecap:round;stroke-linejoin:miter;stroke-miterlimit:4;stroke-dasharray:none;stroke-opacity:1"
       d="m -9.812553,198.45595 0.0687,5.10421"
       id="path51258" /><path
       style="display:inline;opacity:1;fill:none;stroke:#810000;stroke-width:5.82458;stroke-linecap:round;stroke-linejoin:miter;stroke-miterlimit:4;stroke-dasharray:none;stroke-opacity:1"
       d="m 2.1144746,198.45595 0.0687,5.10421"
       id="path51342" /><path
       style="display:inline;opacity:1;fill:none;stroke:#810000;stroke-width:5.82458;stroke-linecap:round;stroke-linejoin:miter;stroke-miterlimit:4;stroke-dasharray:none;stroke-opacity:1"
       d="m -14.583364,198.45595 0.0687,5.10421"
       id="path51344" /><path
       style="display:inline;opacity:1;fill:none;stroke:#810000;stroke-width:5.82458;stroke-linecap:round;stroke-linejoin:miter;stroke-miterlimit:4;stroke-dasharray:none;stroke-opacity:1"
       d="m -2.6563367,198.45595 0.0687,5.10421"
       id="path51346" /><path
       style="display:inline;opacity:1;fill:none;stroke:#810000;stroke-width:5.82458;stroke-linecap:round;stroke-linejoin:miter;stroke-miterlimit:4;stroke-dasharray:none;stroke-opacity:1"
       d="m 6.8852858,198.45595 0.0687,5.10421"
       id="path51348" /><path
       style="display:inline;opacity:1;fill:none;stroke:#810000;stroke-width:5.82458;stroke-linecap:round;stroke-linejoin:miter;stroke-miterlimit:4;stroke-dasharray:none;stroke-opacity:1"
       d="m 16.426908,198.45595 0.0687,5.10421"
       id="path51350" /><path
       style="display:inline;opacity:1;fill:none;stroke:#810000;stroke-width:5.82458;stroke-linecap:round;stroke-linejoin:miter;stroke-miterlimit:4;stroke-dasharray:none;stroke-opacity:1"
       d="m 23.583126,198.45595 0.0687,5.10421"
       id="path51352" /><path
       style="opacity:1;fill:none;stroke:#8adc00;stroke-width:4;stroke-linecap:round;stroke-linejoin:miter;stroke-miterlimit:4;stroke-dasharray:none;stroke-opacity:1"
       d="m 260.3396,297.23537 136.72714,1.03217"
       id="path56428"
       sodipodi:nodetypes="cc" /><path
       style="opacity:1;fill:none;stroke:#0098e8;stroke-width:4;stroke-linecap:round;stroke-linejoin:miter;stroke-miterlimit:4;stroke-dasharray:none;stroke-opacity:1"
       d="m 402.25954,298.1822 614.12746,4.58743"
       id="path56539"
       sodipodi:nodetypes="cc" /><path
       style="opacity:1;fill:#3c3c3c;fill-opacity:1;stroke:#000000;stroke-width:1px;stroke-linecap:butt;stroke-linejoin:miter;stroke-opacity:1"
       d="m 21.100495,275.30111 c 3.212101,-2.88312 9.966185,-2.11557 9.966185,-2.11557 l 129.37145,0.83088 c 0,0 6.95875,-0.24156 10.23756,3.32778 3.25178,3.53992 2.54074,10.77376 2.54074,10.77376 l 0.75508,214.02188 c 0,0 0.58012,7.84234 -4.23188,12.76349 -4.29733,4.3948 -12.29582,3.12212 -12.29582,3.12212 L 39.388787,513.55171 c 0,0 -12.695672,0.0473 -17.510679,-4.97888 -4.521817,-4.72018 -3.467871,-12.93091 -3.467871,-12.93091 l -0.464529,-211.8666 c 0,0 0.138291,-5.76666 3.154787,-8.47421 z"
       id="path58053"
       sodipodi:nodetypes="sccsccsccsccs" /><path
       style="opacity:1;fill:#323232;fill-opacity:1;stroke:#000000;stroke-width:1px;stroke-linecap:butt;stroke-linejoin:miter;stroke-opacity:1"
       d="m 21.100495,275.30111 c 3.212101,-2.88312 9.966185,-2.11557 9.966185,-2.11557 l 16.51523,0.32383 c 0,0 -3.843478,2.03588 -5.831159,5.15329 -1.995815,3.13017 -1.728373,6.83095 -1.728373,6.83095 l 1.362368,210.43372 c 0,0 -0.06384,4.33128 1.809389,7.35298 3.238631,5.22423 14.276371,10.95665 14.276371,10.95665 l -18.081719,-0.68521 c 0,0 -12.695672,0.0473 -17.510679,-4.97888 -4.521817,-4.72018 -3.467871,-12.93091 -3.467871,-12.93091 l -0.464529,-211.8666 c 0,0 0.138291,-5.76666 3.154787,-8.47421 z"
       id="path60736"
       sodipodi:nodetypes="sccsccsccsccss" /><path
       style="display:inline;opacity:1;fill:#969696;fill-opacity:1;stroke:#000000;stroke-width:1px;stroke-linecap:butt;stroke-linejoin:miter;stroke-opacity:1"
       d="m 130.77669,314.27112 21.07484,3.33406 -2.35874,127.28486 -17.94289,1.06659 z"
       id="path56203" /><path
       style="display:inline;opacity:1;fill:#c8c8c8;fill-opacity:1;stroke:#000000;stroke-width:1px;stroke-linecap:butt;stroke-linejoin:miter;stroke-opacity:1"
       d="M 13.835622,313.94124 13.014169,442.37222 131.5499,445.95663 130.77669,314.27112 Z"
       id="path56201" /><path
       id="path67047"
       style="opacity:1;fill:#7d7d7d;fill-opacity:1;stroke:#000000;stroke-width:1;stroke-linecap:round;stroke-miterlimit:4;stroke-dasharray:none;stroke-opacity:1"
       d="m 110.12087,365.71005 c 0,21.84631 -16.732176,38.49177 -37.962737,38.49177 -21.230561,0 -34.455556,-13.87059 -34.455553,-35.7169 2e-6,-21.84631 16.35516,-40.05918 37.585717,-40.05918 21.230557,0 34.832573,15.438 34.832573,37.28431 z"
       sodipodi:nodetypes="sssss" /><path
       style="fill:#646464;fill-opacity:1;stroke:#000000;stroke-width:1px;stroke-linecap:butt;stroke-linejoin:miter;stroke-opacity:1"
       d="m 52.380148,399.00186 c 0,0 -15.420016,-7.24506 -19.839458,-20.29175 -5.45225,-16.09565 -2.338284,-33.93621 8.526466,-44.36229 10.167141,-9.75663 22.609302,-12.51532 32.452344,-11.66976 11.038661,0.94826 17.498204,6.9386 25.6194,14.56246 -7.99022,-5.26581 -10.921267,-7.66422 -21.42074,-8.74111 -8.472714,-0.86902 -18.250995,1.57692 -28.661594,11.21 -8.631482,7.98683 -12.423217,20.7019 -10.812222,36.21462 1.186633,11.42643 11.474589,21.77836 14.135804,23.07783 z"
       id="path67529"
       sodipodi:nodetypes="cssscsssc" /><path
       style="fill:#363636;fill-opacity:1;stroke:#000000;stroke-width:1px;stroke-linecap:butt;stroke-linejoin:miter;stroke-opacity:1"
       d="m 85.087904,399.19539 c 0.423742,-0.48236 0.574596,-1.83845 0.574596,-1.83845 l 0.217673,-8.36573 c 0,0 0.356989,-2.19563 -0.246586,-2.99514 -0.597616,-0.79162 -2.785236,-1.04723 -2.785236,-1.04723 L 55.47953,382.74408 c 0,0 -2.572444,-0.56827 -3.564978,0.0858 -0.805582,0.53087 -1.20529,2.63142 -1.20529,2.63142 l -1.510973,13.02522 c 0,0 -0.181439,1.90009 0.434448,2.46097 1.213954,1.10553 4.909466,0.40008 4.909466,0.40008 l 28.007228,-0.98145 c 0,0 1.923492,-0.47069 2.538473,-1.17074 z"
       id="path75419"
       sodipodi:nodetypes="accaccaccacca" /><path
       style="fill:#363636;fill-opacity:1;stroke:#000000;stroke-width:1px;stroke-linecap:butt;stroke-linejoin:miter;stroke-opacity:1"
       d="m 81.991624,383.44662 c 3.415761,-1.63668 6.259093,-5.40065 6.724362,-9.1596 0.52515,-4.24272 -1.325507,-9.44294 -4.840048,-11.87697 -4.053916,-2.80758 -10.498441,-2.84072 -14.787969,-0.40829 -3.406544,1.93172 -5.518339,6.33551 -5.750651,10.24474 -0.226318,3.80836 1.255836,8.38519 4.380812,10.57365 3.900944,2.73189 9.978655,2.68436 14.273494,0.62647 z"
       id="path75421"
       sodipodi:nodetypes="aaaaaaa" /><path
       style="fill:#363636;fill-opacity:1;stroke:#000000;stroke-width:1px;stroke-linecap:butt;stroke-linejoin:miter;stroke-opacity:1"
       d="m 53.56108,365.53407 c -2.870721,0.54963 -7.249083,1.81252 -7.381933,4.73236 -0.13795,3.03193 4.348086,4.51745 7.187392,5.58981 2.22222,0.8393 4.810744,1.02139 7.112942,0.4361 1.808309,-0.45973 3.8323,-1.34194 4.745035,-2.96928 0.89909,-1.60302 1.220456,-4.08925 0.05878,-5.51351 -2.515794,-3.08446 -7.812879,-3.02396 -11.722213,-2.27548 z"
       id="path77835"
       sodipodi:nodetypes="aaaaaaa" /><path
       style="fill:none;stroke:#000000;stroke-width:1px;stroke-linecap:butt;stroke-linejoin:miter;stroke-opacity:1"
       d="M 71.386257,437.4585 C 73.381045,419.52152 29.775104,415.9148 28.683719,396.90086 28.135444,387.34891 57.641908,376.35931 57.641908,376.35931"
       id="path78425"
       sodipodi:nodetypes="csc" /><path
       style="fill:none;stroke:#000000;stroke-width:1px;stroke-linecap:butt;stroke-linejoin:miter;stroke-opacity:1"
       d="m 57.8903,369.34958 c 0,0 5.945492,-32.10349 14.077494,-26.73245 4.788423,3.16268 -0.76343,23.72893 -0.76343,23.72893"
       id="path78427"
       sodipodi:nodetypes="csc" /><path
       style="fill:none;stroke:#000000;stroke-width:1px;stroke-linecap:butt;stroke-linejoin:miter;stroke-opacity:1"
       d="m 83.069802,365.58849 c 0,0 10.422912,-30.24437 18.830838,-20.04346 3.44446,4.17899 -4.724006,24.60318 -4.724006,24.60318"
       id="path78429"
       sodipodi:nodetypes="csc" /></g></svg>
