<?xml version="1.0" encoding="UTF-8" standalone="no"?>
<!-- Created with Inkscape (http://www.inkscape.org/) -->

<svg
   version="1.1"
   id="svg2"
   xml:space="preserve"
   width="877.6759"
   height="885.6972"
   viewBox="0 0 877.6759 885.69721"
   sodipodi:docname="hyperion_imc.svg"
   inkscape:version="1.1.1 (1:1.1+202109281949+c3084ef5ed)"
   xmlns:inkscape="http://www.inkscape.org/namespaces/inkscape"
   xmlns:sodipodi="http://sodipodi.sourceforge.net/DTD/sodipodi-0.dtd"
   xmlns="http://www.w3.org/2000/svg"
   xmlns:svg="http://www.w3.org/2000/svg"><defs
     id="defs6"><marker
       style="overflow:visible"
       id="Arrow2Sstart"
       refX="0"
       refY="0"
       orient="auto"
       inkscape:stockid="Arrow2Sstart"
       inkscape:isstock="true"><path
         transform="matrix(0.3,0,0,0.3,-0.69,0)"
         d="M 8.7185878,4.0337352 -2.2072895,0.01601326 8.7185884,-4.0017078 c -1.7454984,2.3720609 -1.7354408,5.6174519 -6e-7,8.035443 z"
         style="fill:context-stroke;fill-rule:evenodd;stroke:context-stroke;stroke-width:0.625;stroke-linejoin:round"
         id="path162825" /></marker><marker
       style="overflow:visible"
       id="Arrow2Mstart"
       refX="0"
       refY="0"
       orient="auto"
       inkscape:stockid="Arrow2Mstart"
       inkscape:isstock="true"><path
         transform="scale(0.6)"
         d="M 8.7185878,4.0337352 -2.2072895,0.01601326 8.7185884,-4.0017078 c -1.7454984,2.3720609 -1.7354408,5.6174519 -6e-7,8.035443 z"
         style="fill:context-stroke;fill-rule:evenodd;stroke:context-stroke;stroke-width:0.625;stroke-linejoin:round"
         id="path162819" /></marker><marker
       style="overflow:visible"
       id="Arrow2Send"
       refX="0"
       refY="0"
       orient="auto"
       inkscape:stockid="Arrow2Send"
       inkscape:isstock="true"><path
         transform="matrix(-0.3,0,0,-0.3,0.69,0)"
         d="M 8.7185878,4.0337352 -2.2072895,0.01601326 8.7185884,-4.0017078 c -1.7454984,2.3720609 -1.7354408,5.6174519 -6e-7,8.035443 z"
         style="fill:context-stroke;fill-rule:evenodd;stroke:context-stroke;stroke-width:0.625;stroke-linejoin:round"
         id="path162828" /></marker><marker
       style="overflow:visible"
       id="Arrow1Send"
       refX="0"
       refY="0"
       orient="auto"
       inkscape:stockid="Arrow1Send"
       inkscape:isstock="true"><path
         transform="matrix(-0.2,0,0,-0.2,-1.2,0)"
         style="fill:context-stroke;fill-rule:evenodd;stroke:context-stroke;stroke-width:1pt"
         d="M 0,0 5,-5 -12.5,0 5,5 Z"
         id="path162810" /></marker><marker
       style="overflow:visible"
       id="Arrow1Sstart"
       refX="0"
       refY="0"
       orient="auto"
       inkscape:stockid="Arrow1Sstart"
       inkscape:isstock="true"><path
         transform="matrix(0.2,0,0,0.2,1.2,0)"
         style="fill:context-stroke;fill-rule:evenodd;stroke:context-stroke;stroke-width:1pt"
         d="M 0,0 5,-5 -12.5,0 5,5 Z"
         id="path162807" /></marker><clipPath
       clipPathUnits="userSpaceOnUse"
       id="clipPath16"><path
         d="M 108,565.65 H 693.9 V 633.6 H 108 Z"
         id="path14" /></clipPath><clipPath
       clipPathUnits="userSpaceOnUse"
       id="clipPath120"><path
         d="M 108,90 H 693.9 V 565.65 H 108 Z"
         id="path118" /></clipPath><clipPath
       clipPathUnits="userSpaceOnUse"
       id="clipPath710"><path
         d="m 693.9,90 h 66.96 V 565.65 H 693.9 Z"
         id="path708" /></clipPath><clipPath
       clipPathUnits="userSpaceOnUse"
       id="clipPath768"><path
         d="M 765.045,202.275 H 777.6 v 251.1 h -12.555 z"
         id="path766" /></clipPath><clipPath
       clipPathUnits="userSpaceOnUse"
       id="clipPath794"><path
         d="M -1021,-463 H 1794 V 1233 H -1021 Z"
         id="path792" /></clipPath><clipPath
       clipPathUnits="userSpaceOnUse"
       id="clipPath814"><path
         d="M -1021,-463 H 1794 V 1233 H -1021 Z"
         id="path812" /></clipPath><clipPath
       clipPathUnits="userSpaceOnUse"
       id="clipPath834"><path
         d="M -1021,-463 H 1794 V 1233 H -1021 Z"
         id="path832" /></clipPath></defs><sodipodi:namedview
     id="namedview4"
     pagecolor="#ffffff"
     bordercolor="#c8c8c8"
     borderopacity="1"
     inkscape:pageshadow="0"
     inkscape:pageopacity="0"
     inkscape:pagecheckerboard="0"
     showgrid="true"
     inkscape:zoom="0.37447917"
     inkscape:cx="375.18776"
     inkscape:cy="586.14743"
     inkscape:window-width="1920"
     inkscape:window-height="1016"
     inkscape:window-x="1920"
     inkscape:window-y="27"
     inkscape:window-maximized="1"
     inkscape:current-layer="layer4"
     inkscape:snap-grids="false"
     inkscape:snap-to-guides="false"
     inkscape:object-paths="false"><inkscape:grid
       type="xygrid"
       id="grid1687"
       originx="1331.0349"
       originy="-260.94564" /></sodipodi:namedview><g
     inkscape:groupmode="layer"
     id="layer4"
     inkscape:label="Layer 1"
     style="opacity:1"
     transform="translate(1718.5349,-41.890639)" /><g
     inkscape:groupmode="layer"
     id="layer5"
     inkscape:label="Layer 2"
     style="opacity:1"
     transform="translate(1718.5349,-41.890639)"><path
       style="fill:#4b4b4b;fill-opacity:1;stroke:#000000;stroke-width:1px;stroke-linecap:round;stroke-linejoin:round;stroke-opacity:1"
       d="m -1718.0349,75.350381 8.7625,262.688619 264.0073,40.81311 -3.6385,-280.552211 z"
       id="path187056" /><path
       style="fill:#4b4b4b;fill-opacity:1;stroke:#000000;stroke-width:1px;stroke-linecap:round;stroke-linejoin:round;stroke-opacity:1"
       d="m -1709.2724,338.039 13.8343,509.63027 c 0,0 0,0 247.6031,77.83305 6.2645,1.96921 8.2722,1.55226 8.2722,1.55226 l -5.7023,-548.20247 z"
       id="path187058"
       sodipodi:nodetypes="ccsccc" /><path
       style="fill:#646464;fill-opacity:1;stroke:#000000;stroke-width:1px;stroke-linecap:round;stroke-linejoin:round;stroke-opacity:1"
       d="m -1448.9036,98.299899 195.1255,-26.072263 -9.3014,739.573124 -169.547,112.01044 c -5.5328,3.65523 -6.9363,3.24338 -6.9363,3.24338 z"
       id="path187060"
       sodipodi:nodetypes="cccscc" /><path
       style="fill:#ff8f1e;fill-opacity:1;stroke:#000000;stroke-width:1px;stroke-linecap:round;stroke-linejoin:round;stroke-opacity:1"
       d="m -1718.0349,75.350381 211.71,-25.595649 252.5468,22.472904 -195.1255,26.072263 z"
       id="path187062" /><path
       style="fill:#ea6700;fill-opacity:1;stroke:#000000;stroke-width:1px;stroke-linecap:round;stroke-linejoin:round;stroke-opacity:1"
       d="m -1418.2664,372.09716 c 0,0 -5.2775,2.74611 111.9993,-35.40662 9.1873,-2.9888 11.0393,25.81305 1.8919,28.92168 -116.2457,39.50479 -113.6411,36.98064 -113.6411,36.98064 z"
       id="path187064"
       sodipodi:nodetypes="csscc" /><path
       style="fill:#5a5a5a;fill-opacity:1;stroke:#000000;stroke-width:1px;stroke-linecap:round;stroke-linejoin:round;stroke-opacity:1"
       d="m -1418.9125,428.95441 c 1.4686,-0.94909 33.295,-11.84863 33.295,-11.84863 l 0.5767,35.06714 -32.0077,12.5905 z"
       id="path187101"
       sodipodi:nodetypes="ccccc" /><path
       style="fill:#3c3c3c;fill-opacity:1;stroke:#000000;stroke-width:1px;stroke-linecap:round;stroke-linejoin:round;stroke-opacity:1"
       d="m -1417.0485,464.76342 0.3442,15.9648 58.1841,-23.27377 0.7896,-49.19482 -27.8869,8.84615 0.5767,35.06714 z"
       id="path187103"
       sodipodi:nodetypes="ccccccc" /><path
       style="fill:#191919;fill-opacity:1;stroke:#000000;stroke-width:1px;stroke-linecap:round;stroke-linejoin:round;stroke-opacity:1"
       d="m -1256.0296,230.14479 -20.4404,1.95609 c -4.7587,0.45539 -8.2048,7.03494 -8.1291,11.81474 l 0.9701,61.23999 c 0.1039,6.55897 3.413,11.58231 6.9891,9.77685 l 19.7964,-6.39239 z"
       id="path187105"
       sodipodi:nodetypes="csssscc" /><path
       style="fill:#737373;fill-opacity:1;stroke:#000000;stroke-width:1px;stroke-linecap:round;stroke-linejoin:round;stroke-opacity:1"
       d="m -1289.9408,69.009699 128.4603,-23.931139 c 0,0 92.7513,-3.408914 139.1267,-2.548659 34.99933,0.649232 104.85486,5.816208 104.85486,5.816208 31.95556,1.772548 48.10375,5.308769 58.96261,9.596102 8.09161,3.194758 17.48224,10.961381 17.16968,19.655228 l -6.92351,192.579731 -77.15094,27.76447 c 0,0 19.46926,-125.36398 12.08808,-187.5861 -0.72037,-6.07258 -1.0199,-13.287336 -5.43023,-17.5234 -5.21368,-5.007677 -13.79423,-4.603971 -20.95717,-5.579486 -70.69698,-9.628172 -214.03698,-2.250847 -214.03698,-2.250847 0,0 -11.1612,7.429863 -17.4455,9.531878 -6.0374,2.019429 -12.552,2.247181 -18.8968,2.769305 -21.2615,1.749651 -63.9888,1.196805 -63.9888,1.196805 l 0.3304,-26.272159 z"
       id="path187107"
       sodipodi:nodetypes="ccasssccaaacaaccc" /><path
       style="fill:#737373;fill-opacity:1;stroke:#000000;stroke-width:1px;stroke-linecap:round;stroke-linejoin:round;stroke-opacity:1"
       d="m -1223.3747,305.10766 c 0,0 139.204,17.13899 209.2001,19.21503 9.3859,0.27838 18.98186,1.09532 28.15536,-0.9095 21.40004,-4.67686 60.57814,-25.47155 60.57814,-25.47155 l -225.1551,-19.7491 z"
       id="path187109"
       sodipodi:nodetypes="caaccc" /><path
       style="fill:#4b4b4b;fill-opacity:1;stroke:#000000;stroke-width:1px;stroke-linecap:round;stroke-linejoin:round;stroke-opacity:1"
       d="m -1153.7774,85.001807 c 0,0 2.561,22.733243 2.5251,34.146393 -0.074,23.50536 -4.694,46.80399 -5.6423,70.29033 -0.9052,22.41909 -3.2482,45.1051 -0.041,67.31206 1.0653,7.37663 6.3395,21.44195 6.3395,21.44195 l 225.1551,19.7491 c 0,0 19.46926,-125.36398 12.08808,-187.5861 -0.72037,-6.07258 -1.0199,-13.287336 -5.43023,-17.5234 -5.21368,-5.007677 -13.79423,-4.603971 -20.95717,-5.579486 -70.69698,-9.628172 -214.03698,-2.250847 -214.03698,-2.250847"
       id="path187111"
       sodipodi:nodetypes="caaaccaaac" /><path
       style="fill:#ff8f1e;fill-opacity:1;stroke:#000000;stroke-width:1px;stroke-linecap:round;stroke-linejoin:round;stroke-opacity:1"
       d="m -1164.0518,283.16872 -92.2989,-6.3862 -0.2946,23.42466 33.2706,4.90048 z"
       id="path187148" /><path
       style="fill:#fe7b0a;fill-opacity:1;stroke:#000000;stroke-width:1px;stroke-linecap:round;stroke-linejoin:round;stroke-opacity:1"
       d="m -1164.0518,283.16872 c 0,0 -8.3225,-36.37983 -10.1012,-54.90269 -2.8221,-29.38833 0.657,-59.08117 -0.8432,-88.56656 -0.7412,-14.56724 -4.0266,-43.572587 -4.0266,-43.572587 0,0 5.3078,-0.68134 7.7999,-1.593198 6.2231,-2.277049 17.4455,-9.531878 17.4455,-9.531878 0,0 2.561,22.733243 2.5251,34.146393 -0.074,23.50536 -4.694,46.80399 -5.6423,70.29033 -0.9052,22.41909 -3.2481,45.10509 -0.041,67.31206 1.0653,7.37662 6.3394,21.44195 6.3394,21.44195 z"
       id="path187150"
       sodipodi:nodetypes="caacacaaacc" /><path
       style="fill:#ea6700;fill-opacity:1;stroke:#000000;stroke-width:1px;stroke-linecap:round;stroke-linejoin:round;stroke-opacity:1"
       d="m -1164.0518,283.16872 -92.2989,-6.3862 0.1596,-12.6901 32.0316,1.51886 c 0,0 13.2282,-8.35612 17.1296,-14.82035 4.901,-8.1205 6.733,-18.2346 6.445,-27.71509 -0.3472,-11.42623 -3.1687,-23.54519 -9.7813,-32.87005 -4.7767,-6.73598 -12.3184,-11.67668 -20.0704,-14.52216 -7.7267,-2.83619 -24.6187,-1.905 -24.6187,-1.905 l 0.9468,-75.278835 c 0,0 42.6967,0.128125 63.9888,-1.196805 3.7125,-0.231015 11.0969,-1.176107 11.0969,-1.176107 0,0 3.2854,29.005347 4.0266,43.572587 1.5002,29.48539 -1.9789,59.17823 0.8432,88.56656 1.7787,18.52286 10.1012,54.90269 10.1012,54.90269"
       id="path187152"
       sodipodi:nodetypes="ccccaaaaccacaac" /><path
       style="fill:#191919;fill-opacity:1;stroke:#000000;stroke-width:1px;stroke-linecap:round;stroke-linejoin:round;stroke-opacity:1"
       d="m -1251.065,162.60815 13.4924,-0.01 0.2139,-11.80565 -13.5851,-6.4e-4 z"
       id="path187154"
       sodipodi:nodetypes="ccccc" /><path
       style="fill:#191919;fill-opacity:1;stroke:#000000;stroke-width:1px;stroke-linecap:round;stroke-linejoin:round;stroke-opacity:1"
       d="m -1255.0553,173.77863 c 0,0 16.892,-0.93119 24.6187,1.905 7.752,2.84548 15.2937,7.78618 20.0704,14.52216 6.6126,9.32486 9.4341,21.44382 9.7813,32.87005 0.288,9.48049 -1.544,19.59459 -6.445,27.71509 -3.9014,6.46423 -17.1296,14.82035 -17.1296,14.82035 l -32.0316,-1.51886 0.1615,-33.94763 0.9743,-56.36616"
       id="path187156"
       sodipodi:nodetypes="caaaacccc" /><path
       style="fill:#4b4b4b;fill-opacity:1;stroke:#000000;stroke-width:1px;stroke-linecap:round;stroke-linejoin:round;stroke-opacity:1"
       d="m -1262.1924,741.26649 42.2958,8.83341 1.562,-212.58099 -41.2043,-7.2365 z"
       id="path187193" /><path
       style="fill:#4b4b4b;fill-opacity:1;stroke:#000000;stroke-width:1px;stroke-linecap:round;stroke-linejoin:round;stroke-opacity:1"
       d="m -1218.3346,537.51891 3.7157,-188.48149 219.22496,30.60135 -8.79396,407.03977 c 0,0 -0.3818,0.75288 -8.6494,0.4852 -13.9023,-0.45012 -41.327,-2.48566 -57.0819,-4.79932 -50.5936,-7.42984 -149.9774,-32.26452 -149.9774,-32.26452 l 1.562,-212.58099"
       id="path187195"
       sodipodi:nodetypes="ccccsscc" /><path
       style="fill:#4b4b4b;fill-opacity:1;stroke:#000000;stroke-width:1px;stroke-linecap:round;stroke-linejoin:round;stroke-opacity:1"
       d="m -995.39394,379.63877 -0.92028,-54.88714 c 0,0 -11.91518,-0.0849 -17.86038,-0.42894 -69.9099,-4.04546 -209.2001,-19.21503 -209.2001,-19.21503 l -33.2706,-4.90048 -0.1982,4.73072 -2.6954,225.34451 41.2043,7.2365 3.7157,-188.48149 z"
       id="path187197"
       sodipodi:nodetypes="ccaccccccc" /><path
       style="fill:#646464;fill-opacity:1;stroke:#000000;stroke-width:1px;stroke-linecap:round;stroke-linejoin:round;stroke-opacity:1"
       d="m -995.39394,379.63877 76.37763,-34.27947 -13.68767,384.08953 c 0,0 0,0 -64.97797,52.81529 -4.10305,3.33503 -6.50595,4.41442 -6.50595,4.41442 z"
       id="path187199"
       sodipodi:nodetypes="cccscc" /><path
       style="fill:#646464;fill-opacity:1;stroke:#000000;stroke-width:1px;stroke-linecap:round;stroke-linejoin:round;stroke-opacity:1"
       d="m -995.39394,379.63877 -0.92028,-54.88714 c 0,0 6.95402,-0.43658 10.29498,-1.33844 21.14816,-5.70877 60.57814,-25.47155 60.57814,-25.47155 l 77.15094,-27.76447 -14.98375,393.7985 -69.43007,65.47316 13.68767,-384.08953 z"
       id="path187201"
       sodipodi:nodetypes="ccacccccc" /><path
       style="fill:#646464;fill-opacity:1;stroke:#000000;stroke-width:1px;stroke-linecap:round;stroke-linejoin:round;stroke-opacity:1"
       d="m -887.70964,687.01878 10.16824,-388.46208 28.61979,-11.78401 -14.3523,377.20298 z"
       id="path187203" /></g></svg>
