<?xml version="1.0" encoding="UTF-8" standalone="no"?>
<!-- Created with Inkscape (http://www.inkscape.org/) -->

<svg
   xmlns:dc="http://purl.org/dc/elements/1.1/"
   xmlns:cc="http://creativecommons.org/ns#"
   xmlns:rdf="http://www.w3.org/1999/02/22-rdf-syntax-ns#"
   xmlns:svg="http://www.w3.org/2000/svg"
   xmlns="http://www.w3.org/2000/svg"
   xmlns:sodipodi="http://sodipodi.sourceforge.net/DTD/sodipodi-0.dtd"
   xmlns:inkscape="http://www.inkscape.org/namespaces/inkscape"
   width="151.8125mm"
   height="40.6875mm"
   viewBox="0 0 151.8125 40.6875"
   version="1.1"
   id="svg4592"
   sodipodi:docname="petri_dish.svg"
   inkscape:version="0.92.3 (unknown)">
  <defs
     id="defs4586" />
  <sodipodi:namedview
     id="base"
     pagecolor="#ffffff"
     bordercolor="#666666"
     borderopacity="1.0"
     inkscape:pageopacity="0.0"
     inkscape:pageshadow="2"
     inkscape:zoom="1.8101934"
     inkscape:cx="246.6568"
     inkscape:cy="93.396025"
     inkscape:document-units="mm"
     inkscape:current-layer="layer1"
     showgrid="true"
     inkscape:snap-bbox="true"
     inkscape:snap-smooth-nodes="true"
     inkscape:window-width="3440"
     inkscape:window-height="1385"
     inkscape:window-x="0"
     inkscape:window-y="27"
     inkscape:window-maximized="1">
    <inkscape:grid
       type="xygrid"
       id="grid5137"
       spacingx="2.6458333"
       spacingy="2.6458333"
       empspacing="10"
       empcolor="#ff3fff"
       empopacity="0.25098039"
       originx="-25.958332"
       originy="-199.26042" />
  </sodipodi:namedview>
  <metadata
     id="metadata4589">
    <rdf:RDF>
      <cc:Work
         rdf:about="">
        <dc:format>image/svg+xml</dc:format>
        <dc:type
           rdf:resource="http://purl.org/dc/dcmitype/StillImage" />
        <dc:title></dc:title>
      </cc:Work>
    </rdf:RDF>
  </metadata>
  <g
     inkscape:label="Layer 1"
     inkscape:groupmode="layer"
     id="layer1"
     transform="translate(-25.958333,-57.052086)">
    <path
       style="opacity:1;fill:#e0cf9c;fill-opacity:1;fill-rule:nonzero;stroke:#e0cf9c;stroke-width:0.408189;stroke-linecap:butt;stroke-linejoin:miter;stroke-miterlimit:4;stroke-dasharray:none;stroke-dashoffset:0;stroke-opacity:1;paint-order:fill markers stroke"
       d="M 353.27954,305.21368 C 293.73728,304.14424 237.90941,300.14796 193.21377,293.75582 189.49179,293.22353 180.22788,292.61191 180,292.5197 c -0.48221,-0.19513 12.6861,-1.21341 23.29556,-2.60623 68.71105,-9.02049 160.04414,-12.37937 247.9017,-9.11688 43.18511,1.60363 83.91943,4.85731 117.72568,9.40343 10.33271,1.38949 21.54878,2.13389 21.07706,2.31968 -0.95078,0.37446 -28.82736,3.40267 -40.3326,4.69246 -56.31158,6.31275 -127.93605,9.23097 -196.38786,8.00152 z"
       id="path900"
       inkscape:connector-curvature="0"
       transform="scale(0.26458333)"
       sodipodi:nodetypes="sccssscss" />
    <path
       id="path5145"
       style="fill:none;stroke:#000000;stroke-width:1;stroke-linecap:butt;stroke-linejoin:miter;stroke-miterlimit:4;stroke-dasharray:none;stroke-opacity:1"
       d="m 177.27083,69.458334 v 15.875 m -150.812497,0 v -15.875 M 177.27084,85.333336 a 75.40625,11.90625 0 0 1 -75.40625,11.90625 75.40625,11.90625 0 0 1 -75.406246,-11.90625 75.40625,11.90625 0 0 1 75.406246,-11.90625 75.40625,11.90625 0 0 1 75.40625,11.90625 z m 0,-15.875 a 75.40625,11.90625 0 0 1 -75.40625,11.90625 75.40625,11.90625 0 0 1 -75.406246,-11.90625 75.40625,11.90625 0 0 1 75.406246,-11.90625 75.40625,11.90625 0 0 1 75.40625,11.90625 z"
       inkscape:connector-curvature="0" />
    <path
       style="opacity:1;fill:#ffe3b9;fill-opacity:1;fill-rule:nonzero;stroke:#ffe3b9;stroke-width:1.47779524;stroke-linecap:butt;stroke-linejoin:miter;stroke-miterlimit:4;stroke-dasharray:none;stroke-dashoffset:0;stroke-opacity:1;paint-order:fill markers stroke"
       d="m 349.68544,365.1244 c -97.19435,-2.10349 -178.85424,-11.38162 -220.68075,-25.07356 -11.73757,-3.84231 -19.39011,-7.67085 -23.6897,-11.8519 -4.05071,-3.93903 -4.24089,-6.76293 -0.71927,-10.67982 5.0133,-5.576 17.41918,-11.03469 36.88659,-16.23042 8.78969,-2.34591 28.56585,-6.47779 31.00425,-6.47779 0.64977,0 4.35467,0.52259 8.23311,1.1613 30.71054,5.05749 70.95876,8.97537 118.57514,11.54247 56.93908,3.06971 132.216,2.59957 192.1875,-1.20028 35.61364,-2.25652 70.32707,-5.91074 96.41805,-10.14976 4.58266,-0.74455 8.92348,-1.35373 9.64621,-1.35373 4.2986,0 34.02149,6.98561 44.13106,10.37187 15.8057,5.29421 25.1684,11.17444 26.15355,16.42562 0.42172,2.24799 -1.24504,5.19855 -4.41734,7.81969 -2.89278,2.39022 -11.23711,6.69048 -17.24403,8.88675 -34.50769,12.61683 -103.87808,22.053 -188.47656,25.6377 -28.98306,1.2281 -79.88875,1.78042 -108.00781,1.17186 z"
       id="path898"
       inkscape:connector-curvature="0"
       transform="scale(0.26458333)" />
  </g>
</svg>
