<?xml version="1.0" encoding="UTF-8" standalone="no"?>
<!-- Created with Inkscape (http://www.inkscape.org/) -->

<svg
   xmlns:dc="http://purl.org/dc/elements/1.1/"
   xmlns:cc="http://creativecommons.org/ns#"
   xmlns:rdf="http://www.w3.org/1999/02/22-rdf-syntax-ns#"
   xmlns:svg="http://www.w3.org/2000/svg"
   xmlns="http://www.w3.org/2000/svg"
   xmlns:sodipodi="http://sodipodi.sourceforge.net/DTD/sodipodi-0.dtd"
   xmlns:inkscape="http://www.inkscape.org/namespaces/inkscape"
   width="151.8125mm"
   height="40.6875mm"
   viewBox="0 0 151.8125 40.6875"
   version="1.1"
   id="svg4592"
   sodipodi:docname="petri_dish.svg"
   inkscape:version="0.92.3 (unknown)">
  <defs
     id="defs4586" />
  <sodipodi:namedview
     id="base"
     pagecolor="#ffffff"
     bordercolor="#666666"
     borderopacity="1.0"
     inkscape:pageopacity="0.0"
     inkscape:pageshadow="2"
     inkscape:zoom="2.5600001"
     inkscape:cx="278.44692"
     inkscape:cy="39.816455"
     inkscape:document-units="mm"
     inkscape:current-layer="layer1"
     showgrid="true"
     inkscape:snap-bbox="true"
     inkscape:snap-smooth-nodes="true"
     inkscape:window-width="2109"
     inkscape:window-height="1114"
     inkscape:window-x="753"
     inkscape:window-y="293"
     inkscape:window-maximized="0"
     inkscape:snap-global="true"
     inkscape:snap-grids="false"
     inkscape:snap-intersection-paths="true"
     inkscape:object-paths="true"
     inkscape:object-nodes="false">
    <inkscape:grid
       type="xygrid"
       id="grid5137"
       spacingx="2.6458333"
       spacingy="2.6458333"
       empspacing="10"
       empcolor="#ff3fff"
       empopacity="0.25098039"
       originx="-25.958332"
       originy="-199.26042" />
  </sodipodi:namedview>
  <metadata
     id="metadata4589">
    <rdf:RDF>
      <cc:Work
         rdf:about="">
        <dc:format>image/svg+xml</dc:format>
        <dc:type
           rdf:resource="http://purl.org/dc/dcmitype/StillImage" />
        <dc:title />
      </cc:Work>
    </rdf:RDF>
  </metadata>
  <g
     inkscape:label="Layer 1"
     inkscape:groupmode="layer"
     id="layer1"
     transform="translate(-25.958333,-57.052086)">
    <path
       id="path5145"
       style="fill:none;stroke:#000000;stroke-width:1;stroke-linecap:butt;stroke-linejoin:miter;stroke-miterlimit:4;stroke-dasharray:none;stroke-opacity:1"
       d="m 177.27083,69.458334 v 15.875 m -150.812497,0 v -15.875 M 177.27084,85.333336 c 0,6.57564 -33.76053,11.90625 -75.40625,11.90625 -41.64572,0 -75.406246,-5.33061 -75.406246,-11.90625 0,-6.57564 33.760526,-11.90625 75.406246,-11.90625 41.64572,0 75.40625,5.33061 75.40625,11.90625 z m 0,-15.875 c 0,6.57564 -33.76053,11.90625 -75.40625,11.90625 -41.64572,0 -75.406246,-5.33061 -75.406246,-11.90625 0,-6.57564 33.760526,-11.90625 75.406246,-11.90625 41.64572,0 75.40625,5.33061 75.40625,11.90625 z"
       inkscape:connector-curvature="0"
       sodipodi:nodetypes="ccccssssssssss" />
    <path
       style="opacity:1;fill:#ffe3b9;fill-opacity:1;fill-rule:nonzero;stroke:#ffe3b9;stroke-width:0.408189;stroke-linecap:butt;stroke-linejoin:miter;stroke-miterlimit:4;stroke-dasharray:none;stroke-dashoffset:0;stroke-opacity:1;paint-order:fill markers stroke"
       d="m 353.82777,307.25362 c -59.54226,-1.06944 -107.68097,-3.91247 -160.92129,-11.49113 -22.38888,-3.18701 -39.13119,-6.92969 -66.33183,-14.24279 5.41839,-1.73538 56.87907,-12.81651 72.61019,-15.12153 68.56846,-10.04709 168.61284,-12.74732 256.4704,-9.48483 43.18511,1.60363 83.54631,5.23973 117.35256,9.78585 10.33271,1.38949 70.68216,14.49662 70.21044,14.68241 -19.94691,5.83742 -61.49856,14.16337 -92.77907,17.78451 -65.15742,7.54283 -128.15959,9.31696 -196.6114,8.08751 z"
       id="path900"
       inkscape:connector-curvature="0"
       sodipodi:nodetypes="sacssscas"
       transform="scale(0.26458333)" />
    <path
       style="opacity:1;fill:#f0d4aa;fill-opacity:1;fill-rule:nonzero;stroke:#ffe3b9;stroke-width:1.47779524;stroke-linecap:butt;stroke-linejoin:miter;stroke-miterlimit:4;stroke-dasharray:none;stroke-dashoffset:0;stroke-opacity:1;paint-order:fill markers stroke"
       d="M 356.69996,345.30064 C 259.50561,343.19715 181.29293,337.06917 139.46642,323.37723 127.72885,319.53492 102.96984,316.35937 100,301.63644 c -1.113499,-5.52015 6.00559,-9.83141 10.48031,-13.25029 4.63468,-3.54109 13.65594,-6.86645 16.09434,-6.86645 0.64977,0 48.24439,11.40861 52.12283,12.04732 30.71054,5.05749 73.93589,9.36247 121.55227,11.92957 56.93908,3.06971 131.51772,2.80414 191.48922,-0.99571 35.61364,-2.25652 68.69551,-5.92236 94.78649,-10.16138 4.58266,-0.74455 56.22965,-13.09007 56.89994,-12.81979 3.65538,1.47393 13.58254,4.24953 18.97425,8.63271 3.32487,2.70294 8.34211,6.14704 7.60035,10.36728 -2.08801,11.87965 -22.69597,18.22049 -30.06334,20.13874 -34.50769,12.61683 -98.25342,19.8255 -182.8519,23.4102 -28.98306,1.2281 -72.26574,1.84056 -100.3848,1.232 z"
       id="path898"
       inkscape:connector-curvature="0"
       transform="scale(0.26458333)"
       sodipodi:nodetypes="ssaassssssaacss" />
    <path
       style="opacity:1;fill:#e0cf9c;fill-opacity:1;fill-rule:nonzero;stroke:none;stroke-width:1.88976383;stroke-linecap:butt;stroke-linejoin:miter;stroke-miterlimit:4;stroke-dasharray:none;stroke-dashoffset:0;stroke-opacity:1;paint-order:fill markers stroke"
       d="M 10.486328,95.892578 C 5.2589082,92.358538 2.7686738,89.087053 1.8897903,84.88977 c -2.27e-5,22.00002 8.347e-4,20.10384 8.347e-4,22.00085 0,24.85282 127.598865,45 284.999995,45 157.40115,0 285,-20.14718 285,-45 0,-1.89691 -8.5e-4,-8.3e-4 -8.6e-4,-22.00085 -0.93108,4.725213 -4.1432,8.063974 -8.59679,11.004761 C 532.19888,115.42776 420.24839,129.89062 286.89062,129.89062 153.53,129.89062 41.577594,115.42645 10.486328,95.892578 Z"
       transform="matrix(0.26458333,0,0,0.26458333,25.958333,57.052086)"
       id="rect836"
       inkscape:connector-curvature="0"
       sodipodi:nodetypes="ccsssccsc" />
    <path
       inkscape:connector-curvature="0"
       d="m 177.27083,79.512504 c 0,6.57564 -33.76053,11.90625 -75.40625,11.90625 -41.645714,0 -75.40624,-5.33061 -75.40624,-11.90625 0,-6.57564 33.760526,-11.90625 75.40624,-11.90625 41.64572,0 75.40625,5.33061 75.40625,11.90625 z"
       style="fill:none;stroke:#e0cf9c;stroke-width:0.5;stroke-linecap:butt;stroke-linejoin:miter;stroke-miterlimit:4;stroke-dasharray:none;stroke-opacity:1"
       id="path819"
       sodipodi:nodetypes="sssss" />
    <path
       sodipodi:nodetypes="cccccscsssss"
       inkscape:connector-curvature="0"
       d="m 177.27083,69.458334 v 15.875 m -150.812497,0 v -15.875 M 177.27084,85.333336 c 0,6.57564 -33.76053,11.90625 -75.40625,11.90625 -41.64572,0 -75.406246,-5.33061 -75.406246,-11.90625 m 150.812496,-15.875 c 0,6.57564 -33.76053,11.90625 -75.40625,11.90625 -41.64572,0 -75.406246,-5.33061 -75.406246,-11.90625 0,-6.57564 33.760526,-11.90625 75.406246,-11.90625 41.64572,0 75.40625,5.33061 75.40625,11.90625 z"
       style="fill:none;stroke:#000000;stroke-width:1;stroke-linecap:butt;stroke-linejoin:miter;stroke-miterlimit:4;stroke-dasharray:none;stroke-opacity:1"
       id="path869" />
  </g>
</svg>
