<?xml version="1.0" encoding="UTF-8" standalone="no"?>
<!-- Created with Inkscape (http://www.inkscape.org/) -->

<svg
   width="80.044518mm"
   height="149.6873mm"
   viewBox="0 0 80.044518 149.68731"
   version="1.1"
   id="svg5"
   inkscape:version="1.1 (1:1.1+202105261517+ce6663b3b7)"
   sodipodi:docname="pipette.svg"
   xmlns:inkscape="http://www.inkscape.org/namespaces/inkscape"
   xmlns:sodipodi="http://sodipodi.sourceforge.net/DTD/sodipodi-0.dtd"
   xmlns="http://www.w3.org/2000/svg"
   xmlns:svg="http://www.w3.org/2000/svg">
  <sodipodi:namedview
     id="namedview7"
     pagecolor="#ffffff"
     bordercolor="#646464"
     borderopacity="1"
     inkscape:pageshadow="0"
     inkscape:pageopacity="0"
     inkscape:pagecheckerboard="false"
     inkscape:document-units="mm"
     showgrid="true"
     inkscape:snap-grids="false"
     inkscape:snap-to-guides="false"
     inkscape:snap-bbox="true"
     inkscape:snap-intersection-paths="true"
     inkscape:snap-smooth-nodes="true"
     inkscape:object-paths="true"
     inkscape:zoom="0.67081229"
     inkscape:cx="-87.207705"
     inkscape:cy="243.73435"
     inkscape:window-width="1920"
     inkscape:window-height="1016"
     inkscape:window-x="1920"
     inkscape:window-y="27"
     inkscape:window-maximized="1"
     inkscape:current-layer="layer2">
    <inkscape:grid
       type="xygrid"
       id="grid866"
       originx="-70.903776"
       originy="-74.637612" />
  </sodipodi:namedview>
  <defs
     id="defs2" />
  <g
     inkscape:groupmode="layer"
     id="layer2"
     inkscape:label="Layer 2"
     style="display:inline;opacity:1"
     transform="translate(-70.903773,-74.637601)">
    <g
       id="g101032"
       transform="rotate(24.431908,103.23997,149.17449)">
      <path
         style="fill:#191919;fill-opacity:1;stroke:#191919;stroke-width:0.264583px;stroke-linecap:butt;stroke-linejoin:round;stroke-opacity:1"
         d="m 103.90835,219.37322 0.0699,3.36504 0.14876,0.28998 0.32917,6.68368 c 0,0 0.4627,0.31574 0.72899,0.38119 0.40643,0.0999 0.84697,0.0908 1.25558,2.6e-4 0.23825,-0.0528 0.66348,-0.30944 0.66348,-0.30944 l 0.12989,-6.72832 0.18933,-0.40518 -0.0486,-3.28126 z"
         id="path1019"
         sodipodi:nodetypes="ccccssccccc" />
      <path
         style="fill:#afafaf;fill-opacity:1;stroke:#191919;stroke-width:0.264583px;stroke-linecap:butt;stroke-linejoin:round;stroke-opacity:1"
         d="m 113.25522,166.00066 c 0,0 0.63117,-0.0564 0.94595,-0.0922 1.21348,-0.13811 2.68743,-0.34354 3.63325,-0.47317 0.23005,-0.0315 0.54676,-0.43164 0.54676,-0.43164 l 1.59699,-70.400572 -5.50024,-0.123256 z"
         id="path1402"
         sodipodi:nodetypes="cascccc" />
      <path
         style="fill:#bebebe;fill-opacity:1;stroke:#191919;stroke-width:0.264583px;stroke-linecap:butt;stroke-linejoin:round;stroke-opacity:1"
         d="m 114.47793,94.479842 0.31327,-9.216856 -0.2887,-0.573381 0.19537,-2.743922 -11.19995,-1.64837 0.21965,46.464167 6.52244,0.2092 -0.24892,18.30685 -6.09446,-0.0547 -0.0944,21.2843 c 0,0 2.32476,0.005 3.48553,-0.0478 1.99297,-0.0902 5.96743,-0.45869 5.96743,-0.45869 l 1.22271,-71.520814"
         id="path1535"
         sodipodi:nodetypes="ccccccccccacc" />
      <path
         style="fill:#b4b4b4;fill-opacity:1;stroke:#191919;stroke-width:0.264583px;stroke-linecap:butt;stroke-linejoin:round;stroke-opacity:1"
         d="m 109.99109,145.27753 -6.09446,-0.0547 -0.67216,-0.009 -0.0455,-18.46819 0.5386,0.0163 6.52244,0.2092 -0.24892,18.30685"
         id="path1603" />
      <path
         style="fill:#c8c8c8;fill-opacity:1;stroke:#191919;stroke-width:0.264583px;stroke-linecap:butt;stroke-linejoin:round;stroke-opacity:1"
         d="m 103.80221,166.50713 c 0,0 -0.83592,-0.0244 -1.25101,-0.0708 -0.93321,-0.1043 -1.85777,-0.28023 -2.778292,-0.46568 -0.731863,-0.14745 -1.484027,-0.24363 -2.179934,-0.51396 -0.316953,-0.12312 -0.890526,-0.49752 -0.890526,-0.49752 L 96.45662,85.404047 c 2.268115,1.523809 2.26812,1.523812 2.26812,1.523812 l 0.566245,0.174673 0.745075,-0.220322 c 0,0 0.36389,-0.26087 0.36554,-0.455557 0.0188,-2.214505 0.0554,-6.513824 0.0554,-6.513824 l 3.04091,0.384667 0.21965,46.464164 -0.5386,-0.0159 0.0455,18.46819 0.67216,0.009 -0.0944,21.2843"
         id="path1671"
         sodipodi:nodetypes="caaacccccsccccccc" />
      <path
         style="fill:#191919;fill-opacity:1;stroke:#191919;stroke-width:0.264583px;stroke-linecap:butt;stroke-linejoin:round;stroke-opacity:1"
         d="m 104.71469,144.071 0.19982,-16.21612 4.035,0.0285 -0.25989,16.11343 z"
         id="path1739" />
      <path
         style="fill:#1e5281;fill-opacity:1;stroke:#191919;stroke-width:0.264583px;stroke-linecap:butt;stroke-linejoin:round;stroke-opacity:1"
         d="m 114.47793,94.479842 4.37874,0.09812 0.0483,-9.324938 -4.11375,0.0099 -0.31327,9.216855"
         id="path1908" />
      <path
         style="fill:#326695;fill-opacity:1;stroke:#191919;stroke-width:0.264583px;stroke-linecap:butt;stroke-linejoin:round;stroke-opacity:1"
         d="m 118.90497,85.253022 c 0,0 0,2e-6 6.26521,0.190812 0.13976,0.0043 0.26329,-0.181247 0.27014,-0.320902 l 0.0871,-1.775262 c 0.0151,-0.307495 -0.29108,-0.653741 -0.59431,-0.70698 0,0 0,0 -9.02582,-1.584708 -0.49293,-0.08655 -1.17387,0.390494 -1.20941,0.889701 -0.19537,2.743939 -1e-5,0 -0.19537,2.743922 -0.0152,0.213447 0.0747,0.573899 0.2887,0.573381 4.11376,-0.01 4.11376,-0.01 4.11376,-0.01 z"
         id="path2057"
         sodipodi:nodetypes="cssssssssc" />
      <path
         style="fill:#afafaf;fill-opacity:1;stroke:#191919;stroke-width:0.264583px;stroke-linecap:butt;stroke-linejoin:round;stroke-opacity:1"
         d="m 102.46896,73.719001 0.01,6.449526 1.01954,0.128786 6.68517,0.983898 -0.0237,-7.40273 c 0,0 0,0 -1.87189,-0.214653 -0.85418,-0.09795 -2.62185,-0.136777 -3.92103,-0.05878 -1.89809,0.113953 -1.96927,0.124453 -1.89764,0.113951 z"
         id="path2243"
         sodipodi:nodetypes="cccccsscc" />
      <path
         style="fill:#a0a0a0;fill-opacity:1;stroke:#191919;stroke-width:0.264583px;stroke-linecap:butt;stroke-linejoin:round;stroke-opacity:1"
         d="m 102.46896,73.719001 -2.718637,-0.329488 2.087087,-0.275228 c 1.27753,-0.16847 2.57976,-0.11026 3.87001,-0.09262 1.61956,0.02214 2.66697,0.02903 3.99248,0.165792 2.86179,0.295273 2.86183,0.295275 2.86183,0.295275 l -2.40221,0.39579 c 0,0 0,0 -1.87189,-0.214651 -0.72232,-0.08283 -2.02339,-0.17269 -3.92103,-0.05878 z"
         id="path2395"
         sodipodi:nodetypes="ccsssccszc" />
      <path
         style="fill:#3c709f;fill-opacity:1;stroke:#191919;stroke-width:0.264583px;stroke-linecap:butt;stroke-linejoin:round;stroke-opacity:1"
         d="m 99.75032,73.389513 0.09081,-4.25141 c 0,0 0.52577,-0.482942 0.81412,-0.394618 1.22837,0.376262 1.22837,0.376267 1.22837,0.376267 0,0 -0.0261,2.256078 -0.0462,3.994538 l -2.087055,0.275223"
         id="path2547"
         sodipodi:nodetypes="ccsccc" />
      <path
         style="fill:#326695;fill-opacity:1;stroke:#191919;stroke-width:0.264583px;stroke-linecap:butt;stroke-linejoin:round;stroke-opacity:1"
         d="m 101.83738,73.11429 0.0462,-3.994538 c 0,0 0.80681,-0.368023 1.2386,-0.446598 0.46896,-0.08534 0.96102,-0.106032 1.42985,-0.01995 0.41276,0.07579 1.17052,0.463629 1.17052,0.463629 l -0.0152,3.90483 c -1.42361,-0.0226 -3.87001,0.09262 -3.87001,0.09262"
         id="path2549"
         sodipodi:nodetypes="ccaaccc" />
      <path
         style="fill:#285c8b;fill-opacity:1;stroke:#191919;stroke-width:0.264583px;stroke-linecap:butt;stroke-linejoin:round;stroke-opacity:1"
         d="m 105.72259,69.116833 c 0,0 0.81684,-0.32901 1.24887,-0.384336 0.56057,-0.07179 1.14765,-0.07094 1.69383,0.07426 0.37258,0.09905 1.02806,0.529835 1.02806,0.529835 l 0.007,3.850865 c -1.74205,-0.120651 -2.35943,-0.139474 -3.99293,-0.165794 l 0.0161,-3.904819"
         id="path2831"
         sodipodi:nodetypes="caacccc" />
      <path
         style="fill:#1e5281;fill-opacity:1;stroke:#191919;stroke-width:0.264583px;stroke-linecap:butt;stroke-linejoin:round;stroke-opacity:1"
         d="m 109.69335,69.336591 c 0,0 0.82938,-0.355504 1.27133,-0.39129 0.46618,-0.03775 0,-3e-6 1.38996,0.191604 0.11492,0.01584 0.26855,0.221353 0.26855,0.221353 l -0.0615,4.12447 -2.86179,-0.295273 -0.007,-3.850864"
         id="path3227"
         sodipodi:nodetypes="cascccc" />
      <path
         style="fill:#3c709f;fill-opacity:1;stroke:#191919;stroke-width:0.264583px;stroke-linecap:butt;stroke-linejoin:round;stroke-opacity:1"
         d="m 100.65525,68.743485 c -0.22112,-0.06773 0.38492,-0.306338 0.6158,-0.31954 3.77847,-0.216053 2.51729,-0.185451 3.77847,-0.216053 1.26231,-0.03063 2.52745,-0.0425 3.7879,0.03257 0.99684,0.05937 0,0 2.97758,0.329988 0.2592,0.02873 0.79798,0.602064 0.53964,0.566452 -1.38996,-0.191601 0,0 -1.38996,-0.191604 -0.43925,-0.06055 -1.27137,0.39129 -1.27137,0.39129 0,0 -0.65545,-0.430785 -1.02802,-0.529836 -0.54618,-0.145208 -1.13326,-0.146078 -1.69383,-0.07426 -0.43188,0.05533 -1.24842,0.384344 -1.24842,0.384344 0,0 -0.75806,-0.387849 -1.17097,-0.463637 -0.46883,-0.08605 -0.96089,-0.06539 -1.42985,0.01995 -0.43179,0.07858 -1.2386,0.446598 -1.2386,0.446598 z"
         id="path3357"
         sodipodi:nodetypes="ssaassscaacaacs" />
      <path
         id="path3525"
         style="fill:#bebebe;fill-opacity:1;stroke:#191919;stroke-width:0.999999px;stroke-linecap:round;stroke-linejoin:round;stroke-opacity:1"
         d="m 345.9668,298.00391 c -3.26363,0.19242 -6.55735,0.67117 -9.65821,1.70703 -3.19681,1.06792 -6.21206,2.70727 -9.01562,4.57812 -3.53645,2.35991 -6.87641,5.10422 -9.69727,8.28516 -0.46101,0.51986 -0.9709,1.18574 -1.48882,1.91342 -1.94959,2.73917 -2.86368,4.12832 -4.01313,6.35416 l -6.11523,11.84179 c -0.21459,0.41555 1.16015,0.78907 1.16015,0.78907 0,0 4.26808,-7.25452 6.64063,-10.72657 2.82366,-4.13221 5.34877,-8.60204 9.02148,-12.00195 2.98745,-2.76555 6.53159,-5.02139 10.29883,-6.56445 3.36336,-1.37763 7.02977,-2.22867 10.66406,-2.27344 2.65203,-0.0327 5.32133,0.57833 7.82031,1.4668 2.97412,1.0574 5.7448,2.69659 8.32032,4.52148 2.97989,2.1114 5.47878,4.83301 8.12695,7.34796 3.90518,3.70873 11.43945,11.40985 11.43945,11.40985 l 0.20899,-24.61914 c 0,0 -1.28644,-0.21518 -3.31193,-0.54175 -5.0957,-0.82157 -14.86902,-2.34813 -20.60409,-2.927 -3.25443,-0.32848 -6.53158,-0.75306 -9.79687,-0.56054 z"
         transform="scale(0.26458333)"
         sodipodi:nodetypes="aaasssscaaaaaaaccssa" />
      <path
         style="fill:#3c709f;fill-opacity:1;stroke:#191919;stroke-width:0.264583px;stroke-linecap:butt;stroke-linejoin:round;stroke-opacity:1"
         d="m 83.636611,83.208187 c 0,0 -0.251289,-0.350107 -0.281226,-0.555471 -0.0515,-0.353286 0.04727,-0.95015 0.190855,-1.053918 2.033704,-1.469747 1.323283,-1.028307 2.033704,-1.469747 0.848743,-0.52739 1.707586,-1.069601 2.650381,-1.400723 0.870946,-0.305888 1.798707,-0.460603 2.719819,-0.521171 0.988671,-0.06501 1.981735,0.07169 2.967418,0.172315 1.701718,0.173716 0,0 5.077495,0.743808 0.294865,0.0432 0.585578,0.646332 0.585578,0.646332 0,0 -3.625133,-0.592506 -5.451522,-0.774261 -0.861208,-0.0857 -1.728161,-0.199567 -2.592126,-0.14868 -0.863469,0.05086 -1.734892,0.177598 -2.555282,0.451689 -0.845862,0.282602 -1.643651,0.716444 -2.385457,1.21149 -0.935708,0.624447 -1.788814,1.378759 -2.565839,2.192218 -0.147649,0.154572 -0.393798,0.506119 -0.393798,0.506119 z"
         id="path3911"
         sodipodi:nodetypes="casaaaascaaaaac" />
      <path
         style="fill:#afafaf;fill-opacity:1;stroke:#191919;stroke-width:0.264583px;stroke-linecap:butt;stroke-linejoin:round;stroke-opacity:1"
         d="m 81.263772,88.231307 c 1.757,-2.838072 1.129111,-1.919595 1.756839,-2.838289 0.74706,-1.09334 1.415187,-2.275984 2.386973,-3.175497 0.790506,-0.731716 1.728394,-1.328406 2.725197,-1.736685 0.889838,-0.364467 1.859799,-0.589867 2.821313,-0.601684 0.701733,-0.0086 1.40799,0.153285 2.069224,0.388387 0.786883,0.279777 1.520078,0.713225 2.20149,1.196068 0.788418,0.558666 1.449334,1.279039 2.149972,1.944485 1.033178,0.981283 3.02682,3.018561 3.02682,3.018561 0,0 -0.20387,0.347067 -0.36554,0.455557 -0.215054,0.144318 -0.486092,0.221837 -0.745077,0.220321 -0.197521,-0.0012 -0.402286,-0.06452 -0.566243,-0.174673 -1.687997,-1.134062 -1.687997,-1.134062 -1.687997,-1.134062 l -0.580125,-0.38975 0.0016,0.538134 c 0,0 -1.306039,-1.258923 -2.090229,-1.694109 -0.655398,-0.363713 -1.396136,-0.561529 -2.12575,-0.733274 -0.900886,-0.212061 -1.828665,-0.406595 -2.753024,-0.360482 -0.763941,0.03811 -1.522557,0.242751 -2.234303,0.522886 -0.698612,0.274966 -1.347194,0.677901 -1.954562,1.119227 -0.641256,0.465949 -1.226452,1.012674 -1.761371,1.597636 -0.436125,0.476925 -1.169291,1.546519 -1.169291,1.546519 -0.229879,0.304041 -0.962615,0.342986 -1.105916,0.290724 z"
         id="path4062"
         sodipodi:nodetypes="caaaaaaacaascccaaaaaasc" />
      <path
         style="display:inline;fill:#326695;fill-opacity:1;stroke:#191919;stroke-width:0.265;stroke-linecap:butt;stroke-linejoin:round;stroke-miterlimit:4;stroke-dasharray:none;stroke-opacity:1"
         d="m 99.808187,173.14204 c 0,0 1.968753,0.7711 3.004883,0.93466 1.89331,0.29888 3.83865,0.212 5.74989,0.0666 1.82497,-0.13887 5.41756,-0.89357 5.41756,-0.89357 l -5.23361,4.62038 c 0,0 -1.27506,0.41996 -1.93704,0.50102 -0.74562,0.0913 -1.51038,0.0888 -2.25347,-0.0212 -0.80265,-0.11886 -2.33627,-0.68351 -2.33627,-0.68351 L 99.808187,173.142"
         id="path35836"
         sodipodi:nodetypes="caaccaacc" />
      <path
         id="path75942"
         style="fill:#285c8b;fill-opacity:1;stroke:#191919;stroke-width:0.264583px;stroke-linecap:butt;stroke-linejoin:round;stroke-opacity:1"
         d="m 114.20118,165.90857 c 0,0 -4.60312,0.46465 -6.91327,0.55088 -1.57779,0.0589 -3.16355,0.11149 -4.73667,-0.0233 -0.9356,-0.0802 -2.778638,-0.46612 -2.778638,-0.46612 l 0.03565,7.17165 c 0,0 1.968348,0.77127 3.004458,0.93483 1.89333,0.29888 3.83881,0.21202 5.75004,0.0667 1.82497,-0.13886 5.41776,-0.89348 5.41776,-0.89348 z" />
      <path
         id="path76049"
         style="fill:#3c709f;fill-opacity:1;stroke:#191919;stroke-width:0.264583px;stroke-linecap:butt;stroke-linejoin:round;stroke-opacity:1"
         d="m 102.22013,177.66681 0.82734,41.12358 0.86093,0.58292 3.46645,-0.004 1.17719,-0.7798 0.19482,-40.71896 c 0,0 -1.27485,0.41969 -1.93683,0.50075 -0.74562,0.0913 -1.51052,0.0888 -2.25361,-0.0212 -0.80265,-0.11886 -2.33629,-0.68316 -2.33629,-0.68316 z" />
    </g>
  </g>
</svg>
