<?xml version="1.0" encoding="UTF-8" standalone="no"?>
<!-- Created with Inkscape (http://www.inkscape.org/) -->

<svg
   version="1.1"
   id="svg2"
   xml:space="preserve"
   width="533.84589"
   height="577.40082"
   viewBox="0 0 533.84589 577.40082"
   sodipodi:docname="qe.svg"
   inkscape:version="1.1.2 (0a00cf5339, 2022-02-04)"
   xmlns:inkscape="http://www.inkscape.org/namespaces/inkscape"
   xmlns:sodipodi="http://sodipodi.sourceforge.net/DTD/sodipodi-0.dtd"
   xmlns="http://www.w3.org/2000/svg"
   xmlns:svg="http://www.w3.org/2000/svg"><defs
     id="defs6"><clipPath
       clipPathUnits="userSpaceOnUse"
       id="clipPath16"><path
         d="M 108,565.65 H 693.9 V 633.6 H 108 Z"
         id="path14" /></clipPath><clipPath
       clipPathUnits="userSpaceOnUse"
       id="clipPath120"><path
         d="M 108,90 H 693.9 V 565.65 H 108 Z"
         id="path118" /></clipPath><clipPath
       clipPathUnits="userSpaceOnUse"
       id="clipPath710"><path
         d="m 693.9,90 h 66.96 V 565.65 H 693.9 Z"
         id="path708" /></clipPath><clipPath
       clipPathUnits="userSpaceOnUse"
       id="clipPath768"><path
         d="M 765.045,202.275 H 777.6 v 251.1 h -12.555 z"
         id="path766" /></clipPath><clipPath
       clipPathUnits="userSpaceOnUse"
       id="clipPath794"><path
         d="M -1021,-463 H 1794 V 1233 H -1021 Z"
         id="path792" /></clipPath><clipPath
       clipPathUnits="userSpaceOnUse"
       id="clipPath814"><path
         d="M -1021,-463 H 1794 V 1233 H -1021 Z"
         id="path812" /></clipPath><clipPath
       clipPathUnits="userSpaceOnUse"
       id="clipPath834"><path
         d="M -1021,-463 H 1794 V 1233 H -1021 Z"
         id="path832" /></clipPath></defs><sodipodi:namedview
     id="namedview4"
     pagecolor="#ffffff"
     bordercolor="#c8c8c8"
     borderopacity="1"
     inkscape:pageshadow="0"
     inkscape:pageopacity="0"
     inkscape:pagecheckerboard="0"
     showgrid="true"
     inkscape:zoom="1.059187"
     inkscape:cx="202.51381"
     inkscape:cy="346.96422"
     inkscape:window-width="1920"
     inkscape:window-height="1016"
     inkscape:window-x="0"
     inkscape:window-y="0"
     inkscape:window-maximized="1"
     inkscape:current-layer="layer1"
     inkscape:snap-global="true"
     inkscape:snap-grids="false"
     inkscape:object-paths="true"><inkscape:grid
       type="xygrid"
       id="grid1687"
       originx="-299.85626"
       originy="-177.54874" /></sodipodi:namedview><g
     inkscape:groupmode="layer"
     id="layer1"
     inkscape:label="Layer 1"
     style="display:inline;opacity:1"
     transform="translate(-299.85626,-177.54874)"><path
       style="fill:#4995e6;fill-opacity:1;stroke:#000000;stroke-width:1px;stroke-linecap:butt;stroke-linejoin:miter;stroke-opacity:1"
       d="m 365.46492,750.63467 -65.10834,-2.22293 0.26645,-405.65273 32.574,0.24894 c -3.78296,141.19383 15.76463,273.85347 32.26789,407.62672 z"
       id="path28591"
       sodipodi:nodetypes="ccccc" /><path
       style="fill:#c8c8c8;fill-opacity:1;stroke:#000000;stroke-width:1px;stroke-linecap:butt;stroke-linejoin:miter;stroke-opacity:1"
       d="m 333.19703,343.00795 198.75945,1.30923 -2.86647,410.12071 -163.62509,-3.80322 C 348.83523,615.15081 329.34459,479.85775 333.19703,343.00795"
       id="path28798"
       sodipodi:nodetypes="ccccc" /><path
       style="fill:#c8c8c8;fill-opacity:1;stroke:#000000;stroke-width:1px;stroke-linecap:butt;stroke-linejoin:miter;stroke-opacity:1"
       d="m 529.11489,750.86649 35.77424,-0.0124 4.56848,-562.02266 -10.63223,-1.35968 -0.36807,39.2379 C 483.93719,238.52053 408.74478,249.12139 314.06568,224.649 l -0.2812,-37.73439 -9.59149,-0.14936 -0.70533,155.93013 228.46882,1.62179 z"
       id="path29080"
       sodipodi:nodetypes="ccccccccccc" /><path
       style="fill:#c8c8c8;fill-opacity:1;stroke:#000000;stroke-width:1px;stroke-linecap:butt;stroke-linejoin:miter;stroke-opacity:1"
       d="m 313.78448,186.91461 0.006,-8.84282 244.85355,-0.023 0.18182,9.42301 -0.36807,39.2379 c -91.96518,16.09401 -174.82865,17.64365 -244.39163,-2.06065 l -0.2812,-37.73439"
       id="path29514"
       sodipodi:nodetypes="ccccccc" /><path
       style="fill:#b4b4b4;fill-opacity:1;stroke:#000000;stroke-width:1px;stroke-linecap:butt;stroke-linejoin:miter;stroke-opacity:1"
       d="m 569.45761,188.83143 7.44232,9.7298 -1.01327,125.82708 -7.54555,4.2785 1.1165,-139.83538"
       id="path29606"
       sodipodi:nodetypes="ccccc" /><path
       style="fill:#b9b9b9;fill-opacity:1;stroke:#000000;stroke-width:1px;stroke-linecap:butt;stroke-linejoin:miter;stroke-opacity:1"
       d="m 564.88913,750.85409 5.94801,-11.94878 -4.02566,-202.1955 z"
       id="path30116"
       sodipodi:nodetypes="cccc" /><path
       style="fill:#c8c8c8;fill-opacity:1;stroke:#000000;stroke-width:1px;stroke-linecap:butt;stroke-linejoin:miter;stroke-opacity:1"
       d="m 570.83714,738.90531 36.3734,0.2991 -1.8398,-394.97631 223.82389,-1.94933 -0.0626,-14.70662 -260.79094,1.09466 c 0,0 -1.95821,138.61454 -1.52372,207.92255 0.42285,67.45064 4.01975,202.31595 4.01975,202.31595"
       id="path30446"
       sodipodi:nodetypes="ccccccac" /><path
       style="fill:#dcdcdc;fill-opacity:1;stroke:#000000;stroke-width:1px;stroke-linecap:butt;stroke-linejoin:miter;stroke-opacity:1"
       d="m 568.34111,328.66681 7.54555,-4.2785 240.76267,0.0581 12.4827,3.12575 -260.79092,1.09466"
       id="path31678" /><path
       style="fill:#4995e6;fill-opacity:1;stroke:#000000;stroke-width:1px;stroke-linecap:butt;stroke-linejoin:miter;stroke-opacity:1"
       d="m 765.98676,741.11141 64.11997,-0.45639 3.09144,-398.45474 -4.00354,0.0785 -28.81947,0.27447 c 0.2729,134.96949 -12.92983,267.1983 -34.3884,398.55816 z"
       id="path31715"
       sodipodi:nodetypes="cccccc" /><path
       style="fill:#c8c8c8;fill-opacity:1;stroke:#000000;stroke-width:1px;stroke-linecap:butt;stroke-linejoin:miter;stroke-opacity:1"
       d="m 607.21054,739.20441 -0.0729,3.56981 158.84916,-1.66281 c 18.31674,-124.60498 35.87374,-250.1242 34.3884,-398.55816 l -195.00442,1.67485 z"
       id="path31883"
       sodipodi:nodetypes="cccccc" /><path
       style="fill:#9b9b9b;fill-opacity:1;stroke:#000000;stroke-width:1px;stroke-linecap:butt;stroke-linejoin:miter;stroke-opacity:1"
       d="m 623.21553,458.0272 c 1.82958,-2.08923 10.52,-2.31941 15.87269,-2.73836 36.83647,-2.88312 88.15407,-0.92 111.0545,0.0348 6.13129,0.25564 8.38933,0.0677 10.67144,2.68906 2.28211,2.62131 1.48856,6.67664 1.33389,10.23676 -3.85188,88.65623 -17.96503,208.40317 -67.40273,211.8786 -58.36965,-1.61237 -70.45136,-128.23272 -72.99111,-212.70741 -0.0889,-2.95588 -0.36827,-7.3042 1.46132,-9.39344 z"
       id="path31975"
       sodipodi:nodetypes="zsszscszz" /><path
       style="fill:#afafaf;fill-opacity:1;stroke:#000000;stroke-width:1px;stroke-linecap:butt;stroke-linejoin:miter;stroke-opacity:1"
       d="m 747.17127,599.19899 c -1.94021,0.19328 -12.65582,78.41668 -52.42595,80.92907 -46.38374,-1.11767 -57.38869,-82.55613 -59.04714,-82.03271 z"
       id="path35492"
       sodipodi:nodetypes="cccc" /><path
       style="fill:#b4b4b4;fill-opacity:1;stroke:#000000;stroke-width:1px;stroke-linecap:butt;stroke-linejoin:miter;stroke-opacity:1"
       d="m 655.33549,504.81914 c -1.19608,1.1473 -1.18799,4.82813 -1.18799,4.82813 l 0.50316,50.27728 c 0,0 -0.008,1.38129 0.31518,1.95818 0.30215,0.53978 0.83956,0.86001 1.40763,1.20931 24.86648,15.28997 51.30037,18.94664 80.59752,1.35197 0.89696,-0.53867 1.80309,-0.97595 2.29259,-1.82001 0.41157,-0.70967 0.3709,-2.43304 0.3709,-2.43304 l -0.68544,-49.79489 c 0,0 -0.0199,-3.32065 -1.07209,-4.40571 -1.05747,-1.09053 -4.39268,-1.21326 -4.39268,-1.21326 l -73.41292,-0.9162 c -3.15533,0.1066 -3.57354,-0.15669 -4.73586,0.95824 z"
       id="path37161"
       sodipodi:nodetypes="accassaccacca" /><path
       style="fill:#e6e6e6;fill-opacity:1;stroke:#000000;stroke-width:1px;stroke-linecap:butt;stroke-linejoin:miter;stroke-opacity:1"
       d="m 674.70864,521.21377 c -1.32281,1.14879 -1.17433,3.32877 -1.17433,3.32877 l 0.0909,17.58608 c 0,0 0.0584,1.62915 0.44872,2.30926 0.35102,0.61164 0.90377,0.94197 1.58957,1.39614 12.37169,8.19324 31.15196,8.12322 43.71902,1.3858 0.57841,-0.3101 1.40345,-1.34952 1.77838,-2.22056 0.28033,-0.65126 0.29193,-2.10698 0.29193,-2.10698 l -0.57498,-19.03416 c 0,0 -0.21074,-2.07936 -0.8979,-2.7607 -0.85361,-0.84638 -2.51961,-0.68877 -2.51961,-0.68877 l -39.31674,-0.0471 c 0.009,-0.007 -2.3336,-0.10423 -3.43493,0.85221 z"
       id="path39414"
       sodipodi:nodetypes="sccassaccsccss" /><path
       style="fill:#b4b4b4;fill-opacity:1;stroke:#000000;stroke-width:1px;stroke-linecap:butt;stroke-linejoin:miter;stroke-opacity:1"
       d="m 678.93048,504.0713 29.97719,0.37412 c 18.33113,-13.89492 6.67211,-24.73499 -13.43507,-25.34837 -18.72186,0.25213 -35.51056,10.03696 -16.54212,24.97425 z"
       id="path42660"
       sodipodi:nodetypes="cccc" /><path
       style="fill:#0a0a0a;fill-opacity:1;stroke:#000000;stroke-width:1px;stroke-linecap:butt;stroke-linejoin:miter;stroke-opacity:1"
       d="m 679.73494,483.52864 c 8.62568,11.79624 30.75801,3.13778 29.60801,1.49233 l 0.58349,-34.35207 c 0,0 -4.35462,-8.67758 -16.87402,-6.82915 -13.12109,1.93727 -12.55846,6.96672 -12.55846,6.96672 z"
       id="path43170"
       sodipodi:nodetypes="cccscc" /><path
       style="fill:none;stroke:#810000;stroke-width:5.33333;stroke-linecap:round;stroke-linejoin:miter;stroke-miterlimit:4;stroke-dasharray:none;stroke-opacity:1"
       d="m 332.35202,192.77941 0.0576,8.84629"
       id="path51155" /><path
       style="fill:none;stroke:#810000;stroke-width:5.33333;stroke-linecap:round;stroke-linejoin:miter;stroke-miterlimit:4;stroke-dasharray:none;stroke-opacity:1"
       d="m 338.35202,192.77941 0.0576,8.84629"
       id="path51157" /><path
       style="fill:none;stroke:#810000;stroke-width:5.33333;stroke-linecap:round;stroke-linejoin:miter;stroke-miterlimit:4;stroke-dasharray:none;stroke-opacity:1"
       d="m 348.35202,196.52149 0.0576,5.10421"
       id="path51258" /><path
       style="fill:none;stroke:#810000;stroke-width:5.33333;stroke-linecap:round;stroke-linejoin:miter;stroke-miterlimit:4;stroke-dasharray:none;stroke-opacity:1"
       d="m 358.35202,196.52149 0.0576,5.10421"
       id="path51342" /><path
       style="fill:none;stroke:#810000;stroke-width:5.33333;stroke-linecap:round;stroke-linejoin:miter;stroke-miterlimit:4;stroke-dasharray:none;stroke-opacity:1"
       d="m 344.35202,196.52149 0.0576,5.10421"
       id="path51344" /><path
       style="fill:none;stroke:#810000;stroke-width:5.33333;stroke-linecap:round;stroke-linejoin:miter;stroke-miterlimit:4;stroke-dasharray:none;stroke-opacity:1"
       d="m 354.35202,196.52149 0.0576,5.10421"
       id="path51346" /><path
       style="fill:none;stroke:#810000;stroke-width:5.33333;stroke-linecap:round;stroke-linejoin:miter;stroke-miterlimit:4;stroke-dasharray:none;stroke-opacity:1"
       d="m 362.35202,196.52149 0.0576,5.10421"
       id="path51348" /><path
       style="fill:none;stroke:#810000;stroke-width:5.33333;stroke-linecap:round;stroke-linejoin:miter;stroke-miterlimit:4;stroke-dasharray:none;stroke-opacity:1"
       d="m 370.35202,196.52149 0.0576,5.10421"
       id="path51350" /><path
       style="fill:none;stroke:#810000;stroke-width:5.33333;stroke-linecap:round;stroke-linejoin:miter;stroke-miterlimit:4;stroke-dasharray:none;stroke-opacity:1"
       d="m 376.35202,196.52149 0.0576,5.10421"
       id="path51352" /><path
       style="display:inline;fill:none;stroke:#000000;stroke-width:1px;stroke-linecap:butt;stroke-linejoin:miter;stroke-opacity:1"
       d="m 679.9583,473.89924 c 0.19783,0.14166 -41.03248,-52.98779 -12.08247,-74.94959 24.68055,-18.72294 27.53129,44.85395 27.53189,44.657"
       id="path51881"
       sodipodi:nodetypes="csc" /><path
       style="display:inline;fill:none;stroke:#000000;stroke-width:1px;stroke-linecap:butt;stroke-linejoin:miter;stroke-opacity:1"
       d="m 698.88073,443.73162 c 0,0 9.80986,-19.59182 21.69052,-8.58267 19.73708,18.28923 -10.92504,32.01799 -10.92504,32.01799"
       id="path51883"
       sodipodi:nodetypes="csc" /><path
       style="display:inline;fill:none;stroke:#000000;stroke-width:1px;stroke-linecap:butt;stroke-linejoin:miter;stroke-opacity:1"
       d="m 692.33494,443.95091 c 0,0 -11.94621,-29.36946 16.94317,-29.91838 16.2627,-0.30901 26.59633,5.3752 25.18267,16.7822 -3.42681,27.65141 -33.17582,49.10687 -33.17582,49.10687"
       id="path51920"
       sodipodi:nodetypes="cssc" /></g></svg>
