<?xml version="1.0" encoding="UTF-8" standalone="no"?>
<!-- Created with Inkscape (http://www.inkscape.org/) -->

<svg
   width="154.64957mm"
   height="290.21542mm"
   viewBox="0 0 154.64957 290.21542"
   version="1.1"
   id="svg5"
   inkscape:version="1.1 (1:1.1+202105261517+ce6663b3b7)"
   sodipodi:docname="timstof.svg"
   xmlns:inkscape="http://www.inkscape.org/namespaces/inkscape"
   xmlns:sodipodi="http://sodipodi.sourceforge.net/DTD/sodipodi-0.dtd"
   xmlns="http://www.w3.org/2000/svg"
   xmlns:svg="http://www.w3.org/2000/svg">
  <sodipodi:namedview
     id="namedview7"
     pagecolor="#ffffff"
     bordercolor="#eeeeee"
     borderopacity="1"
     inkscape:pageshadow="0"
     inkscape:pageopacity="0"
     inkscape:pagecheckerboard="0"
     inkscape:document-units="mm"
     showgrid="true"
     inkscape:snap-grids="false"
     inkscape:snap-bbox="true"
     inkscape:bbox-paths="true"
     inkscape:bbox-nodes="true"
     inkscape:snap-bbox-edge-midpoints="true"
     inkscape:snap-bbox-midpoints="true"
     inkscape:snap-intersection-paths="true"
     inkscape:object-paths="true"
     inkscape:snap-smooth-nodes="true"
     inkscape:snap-midpoints="false"
     showguides="false"
     inkscape:zoom="0.5"
     inkscape:cx="1"
     inkscape:cy="507"
     inkscape:window-width="1920"
     inkscape:window-height="1016"
     inkscape:window-x="1920"
     inkscape:window-y="27"
     inkscape:window-maximized="1"
     inkscape:current-layer="layer2">
    <inkscape:grid
       type="xygrid"
       id="grid824"
       originx="-57.258124"
       originy="8.6987608" />
  </sodipodi:namedview>
  <defs
     id="defs2" />
  <g
     inkscape:groupmode="layer"
     id="layer2"
     inkscape:label="Layer 2"
     style="display:inline;opacity:1"
     transform="translate(-57.258125,8.698761)">
    <path
       style="opacity:1;fill:#afafaf;fill-opacity:1;stroke:#646464;stroke-width:0.352778;stroke-linecap:butt;stroke-linejoin:round;stroke-miterlimit:4;stroke-dasharray:none;stroke-opacity:1"
       d="m 204.7525,268.87381 5.63856,-0.20066 v -66.19521 l -6.30872,0.89655 0.01,65.40481 z"
       id="path7878"
       sodipodi:nodetypes="cccccc" />
    <path
       style="opacity:1;fill:#afafaf;fill-opacity:1;stroke:#646464;stroke-width:0.352778;stroke-linecap:butt;stroke-linejoin:round;stroke-miterlimit:4;stroke-dasharray:none;stroke-opacity:1"
       d="m 204.11767,164.0769 5.46341,-0.2648 0.14363,-46.8114 c 0,0 0,0 0.001,-0.36563 0.004,-1.26803 -0.38079,-2.54029 -0.90501,-3.69489 -0.40732,-0.89712 -0.95785,-1.76931 -1.69856,-2.41899 -1.07851,-0.94597 -3.81456,-1.99287 -3.81456,-1.99287 l -3.39389,0.0397 c 0,0 1.49108,2.3512 2.07725,3.60958 0.63023,1.35298 1.20579,2.75072 1.53392,4.20677 0.31884,1.41481 0.4007,2.88154 0.40691,4.33182 0.005,1.1905 0.18578,43.36067 0.18578,43.36067"
       id="path9111"
       sodipodi:nodetypes="cccsssccaasc" />
    <path
       style="opacity:1;fill:#002350;fill-opacity:1;stroke:#646464;stroke-width:0.352778;stroke-linecap:butt;stroke-linejoin:round;stroke-miterlimit:4;stroke-dasharray:none;stroke-opacity:1"
       d="m 83.670515,-8.5223723 23.551415,0.400575 c 0,0 0,0 2.13554,2.121214 1.39152,1.3821812 2.04315,3.5113174 2.17194,5.46839567 0.27349,4.15600793 0.27349,4.15600793 0.27349,4.15600793 l 6.19582,94.1546057 38.02694,6.643514 1.55266,0.27128 c 1.46853,0.25658 2.59291,1.54409 3.62389,2.62088 1.6638,1.73772 2.93491,3.85543 3.97154,6.02644 0.93056,1.94888 1.95519,4.01393 1.96572,6.17356 l 0.0128,2.62579 -4.84602,-0.0856 -0.0378,-2.75675 c -0.0319,-2.32976 -1.09152,-4.66002 -2.46856,-6.53954 -0.91458,-1.24831 -2.12125,-2.61477 -3.64713,-2.87245 l -9.65381,-1.63026 C 136.84514,106.62503 83.692877,97.877614 83.692877,97.877614 Z"
       id="path9292"
       sodipodi:nodetypes="ccsscccsaasccsaszcc" />
    <path
       style="opacity:1;fill:#002855;fill-opacity:1;stroke:#646464;stroke-width:0.352778;stroke-linecap:butt;stroke-linejoin:round;stroke-miterlimit:4;stroke-dasharray:none;stroke-opacity:1"
       d="m 167.15227,122.13989 36.78472,-0.2332 c 0,0 0.0144,-0.79411 -0.005,-1.19046 -0.0709,-1.44856 -0.0881,-2.91701 -0.40691,-4.33182 -0.32813,-1.45605 -0.90369,-2.85378 -1.53392,-4.20677 -0.58617,-1.25839 -1.34045,-2.43307 -2.07725,-3.60962 -0.69088,-1.10323 -1.18018,-2.41441 -2.19461,-3.23011 -0.90003,-0.72371 -2.07443,-1.11805 -3.21697,-1.28659 -0.74368,-0.1097 -0.74368,-0.1097 -0.74368,-0.1097 l -39.78251,-5.868522 -35.97732,-0.294672 38.02684,6.643514 1.55276,0.27128 c 1.46853,0.25656 2.59291,1.54409 3.62389,2.62088 1.6638,1.73772 2.93491,3.85543 3.97154,6.02644 0.93056,1.94888 1.95527,4.01394 1.96572,6.17356 z"
       id="path9478"
       sodipodi:nodetypes="ccaaaaasccccsaasc" />
    <path
       style="opacity:1;fill:#001e4b;fill-opacity:1;stroke:#646464;stroke-width:0.352778;stroke-linecap:butt;stroke-linejoin:round;stroke-miterlimit:4;stroke-dasharray:none;stroke-opacity:1"
       d="m 117.99872,97.778426 35.97742,0.294672 -6.62507,-96.826638 c 0,0 0,0 -0.0432,-0.63081793 -0.0727,-1.06297452 -0.46022,-2.11327537 -0.98381,-3.04121017 -0.48002,-0.8507199 -1.18153,-1.5744931 -1.92026,-2.2135645 -0.64521,-0.5581648 -1.60802,-1.3486725 -2.15457,-1.3814587 -0.56545,-0.03392 -0.56545,-0.03392 -0.56545,-0.03392 l -34.46189,-2.0672858 2.13554,2.121214 c 1.39152,1.3821812 2.04315,3.5113174 2.17194,5.46839567 l 0.27349,4.15600793 6.19592,94.1546055"
       id="path9665"
       sodipodi:nodetypes="cccsaasccsscc" />
    <path
       style="opacity:1;fill:#002350;fill-opacity:1;stroke:#646464;stroke-width:0.352778;stroke-linecap:butt;stroke-linejoin:round;stroke-miterlimit:4;stroke-dasharray:none;stroke-opacity:1"
       d="m 162.30625,166.07419 v -44.0199 l 3.77894,0.0646 v 43.8014 z"
       id="path9930"
       sodipodi:nodetypes="ccccc" />
    <path
       style="opacity:1;fill:#001e4b;fill-opacity:1;stroke:#646464;stroke-width:0.352778;stroke-linecap:butt;stroke-linejoin:round;stroke-miterlimit:4;stroke-dasharray:none;stroke-opacity:1"
       d="m 165.96387,122.1189 37.97309,-0.21883 0.18071,42.17683 -38.03248,1.84339 -0.12132,-43.80139"
       id="path15457" />
    <path
       style="opacity:1;fill:#969696;fill-opacity:1;stroke:#646464;stroke-width:0.352778;stroke-linecap:butt;stroke-linejoin:round;stroke-miterlimit:4;stroke-dasharray:none;stroke-opacity:1"
       d="m 209.05907,179.27474 -31.58278,1.18479 c 0,0 0,0 -0.59561,0.0223 -1.2117,0.0455 -2.30923,1.08438 -2.96912,2.10165 -0.58902,0.90802 -0.70732,2.10504 -0.63258,3.18479 0.0688,0.99365 0.41579,2.00214 0.98041,2.82268 0.53205,0.77321 1.30015,1.42393 2.15416,1.81328 0.71633,0.32658 2.33319,0.36654 2.33319,0.36654 l 32.75263,-1.66506 -2.23928,-2.95916 z"
       id="path16007"
       sodipodi:nodetypes="ccsaaaacccc" />
    <path
       style="opacity:1;fill:#afafaf;fill-opacity:1;stroke:#646464;stroke-width:0.352778;stroke-linecap:butt;stroke-linejoin:round;stroke-miterlimit:4;stroke-dasharray:none;stroke-opacity:1"
       d="m 211.24587,163.73141 -45.16068,2.18888 0.54384,41.14889 0.73371,-0.0292 43.02832,-4.56199 1.34024,-0.91972 -0.23193,-12.45247 -32.75263,1.66506 c 0,0 -1.61686,-0.04 -2.33319,-0.36654 -0.85401,-0.38935 -1.62211,-1.04007 -2.15416,-1.81328 -0.56462,-0.82054 -0.91163,-1.82903 -0.98041,-2.82268 -0.0747,-1.07975 0.0436,-2.27677 0.63258,-3.18479 0.65989,-1.01727 1.75742,-2.05608 2.96912,-2.10165 0.59561,-0.0224 0.59561,-0.0224 0.59561,-0.0224 l 31.58278,-1.18475 1.90791,-2.44619 z"
       id="path16587"
       sodipodi:nodetypes="ccccccccaaaascccc" />
    <path
       style="opacity:1;fill:none;stroke:#646464;stroke-width:0.352778;stroke-linecap:butt;stroke-linejoin:round;stroke-miterlimit:4;stroke-dasharray:none;stroke-opacity:1"
       d="m 166.08519,165.92029 -8.45034,0.34912"
       id="path16774" />
    <path
       style="opacity:1;fill:#afafaf;fill-opacity:1;stroke:#646464;stroke-width:0.352778;stroke-linecap:butt;stroke-linejoin:round;stroke-miterlimit:4;stroke-dasharray:none;stroke-opacity:1"
       d="m 166.62903,207.06918 -2.33678,0.0932 -5.6343,0.41341 -0.4069,-41.32916 7.83414,-0.32631 0.54384,41.14887"
       id="path16776" />
    <path
       style="opacity:1;fill:#bebebe;fill-opacity:1;stroke:#646464;stroke-width:0.352778;stroke-linecap:butt;stroke-linejoin:round;stroke-miterlimit:4;stroke-dasharray:none;stroke-opacity:1"
       d="m 158.25562,166.24644 -5.7675,0.21343 c 0,0 -10.47044,-1.65416 -15.7493,-2.06139 -2.83659,-0.21882 -5.90821,-1.30185 -8.53262,-0.2034 -2.90337,1.21521 -4.90152,4.15025 -6.465,6.88189 -1.53412,2.68035 -2.39953,5.80873 -2.60956,8.88991 -0.32416,4.7555 0.10575,9.82425 2.12847,14.14032 1.81256,3.86762 4.74654,7.56729 8.51748,9.57324 8.57606,4.56204 28.88036,3.89533 28.88036,3.89533 l -0.40233,-41.32933"
       id="path16844"
       sodipodi:nodetypes="ccaaaaaacc" />
    <ellipse
       style="opacity:1;fill:#002350;fill-opacity:1;stroke:#646464;stroke-width:0.352778;stroke-linejoin:round;stroke-miterlimit:4;stroke-dasharray:none;stroke-opacity:1"
       id="path17094"
       cx="134.76349"
       cy="184.67369"
       rx="11.112583"
       ry="14.650964" />
    <path
       style="display:inline;opacity:1;fill:#afafaf;fill-opacity:1;stroke:#646464;stroke-width:0.352778;stroke-linecap:butt;stroke-linejoin:round;stroke-miterlimit:4;stroke-dasharray:none;stroke-opacity:1"
       d="m 152.65854,275.21844 -0.48492,-68.51727 6.48433,0.87462 5.6343,-0.41341 0.12853,66.36421 -11.76189,1.69188"
       id="path17592" />
    <path
       style="display:inline;opacity:1;fill:#001e4b;fill-opacity:1;stroke:#646464;stroke-width:0.352778;stroke-linecap:butt;stroke-linejoin:round;stroke-miterlimit:4;stroke-dasharray:none;stroke-opacity:1"
       d="m 61.000256,258.78733 0.258037,5.78647 c 0,0 9.770673,2.87506 14.6861,4.20449 4.696864,1.27032 9.383687,2.60174 14.145056,3.60354 4.415796,0.92909 8.89532,1.52587 13.352901,2.22761 9.77424,1.53872 19.55996,3.01001 29.36378,4.34742 6.35564,0.86702 19.09536,2.38342 19.09536,2.38342 l 8.52417,-0.29625 44.39794,-5.71357 -0.0711,-6.45666 -0.66016,-0.0945 -0.01,-65.40482 -36.7196,3.66544 -3.07083,0.12241 0.12887,66.36426 -11.76224,1.69185 c 0,0 -14.68091,-1.60725 -22.00851,-2.51849 -6.67812,-0.83048 -13.35868,-1.65774 -20.00901,-2.68735 -6.12312,-0.94799 -12.241258,-1.95556 -18.308501,-3.21246 -6.659419,-1.37958 -13.262975,-3.0264 -19.842385,-4.74758 -3.851987,-1.00768 -11.489878,-3.26523 -11.489878,-3.26523 z"
       id="path7690"
       sodipodi:nodetypes="ccaaaaccccccccccaaaac" />
    <path
       style="opacity:1;fill:#bebebe;fill-opacity:1;stroke:#646464;stroke-width:0.352778;stroke-linecap:butt;stroke-linejoin:round;stroke-miterlimit:4;stroke-dasharray:none;stroke-opacity:1"
       d="m 152.65889,275.2185 c 0,0 -14.68091,-1.60725 -22.00851,-2.51849 -6.67812,-0.83048 -13.35869,-1.65774 -20.00902,-2.68735 -6.12312,-0.94799 -12.241258,-1.95557 -18.308501,-3.21247 -6.659419,-1.37958 -13.26297,-3.02643 -19.842387,-4.74758 -5.047512,-1.32041 -15.055958,-4.27854 -15.055958,-4.27854 l 0.194545,-160.398602 28.851741,6.729922 0.248113,110.12114 65.547467,6.99407 0.38251,53.9979"
       id="path17775"
       sodipodi:nodetypes="caaaacccccc" />
    <path
       style="opacity:1;fill:#c8c8c8;fill-opacity:1;stroke:#646464;stroke-width:0.352778;stroke-linecap:butt;stroke-linejoin:round;stroke-miterlimit:4;stroke-dasharray:none;stroke-opacity:1"
       d="m 57.629059,97.375468 16.544229,-1.07075 c 0,0 48.231382,7.881592 72.325662,11.950572 9.65375,1.6303 0,0 9.65375,1.6303 1.52589,0.25769 2.7326,1.6241 3.64719,2.87241 1.37705,1.87951 2.43661,4.20978 2.46856,6.53954 0.0378,2.75675 0.0378,46.77665 0.0378,46.77665 l -9.81813,0.38568 -0.49078,-47.52667 -0.0155,-1.50014 c -0.013,-1.26288 -0.35168,-2.4928 -0.97763,-3.54772 -0.62208,-1.04841 -1.5144,-2.33632 -2.629,-2.54235 l -1.62897,-0.30112 -38.48375,-7.11372 -21.7817,0.17724 z"
       id="path22983"
       sodipodi:nodetypes="ccssascccsascccc" />
    <path
       style="opacity:1;fill:#bebebe;fill-opacity:1;stroke:#646464;stroke-width:0.352778;stroke-linecap:butt;stroke-linejoin:round;stroke-miterlimit:4;stroke-dasharray:none;stroke-opacity:1"
       d="m 152.27638,221.2206 -43.38573,-4.62936 -0.62815,-112.66309 38.48374,7.11372 1.62898,0.30112 c 1.1146,0.20603 2.00692,1.49394 2.629,2.54235 0.62595,1.05492 0.96459,2.28484 0.97763,3.54772 l 0.0155,1.50014 0.49078,47.52669 c 0,0 -10.47044,-1.65416 -15.7493,-2.06139 -2.83659,-0.21882 -5.90821,-1.30184 -8.53262,-0.2034 -2.90337,1.2152 -4.90152,4.15024 -6.465,6.88187 -1.53412,2.68035 -2.39953,5.80873 -2.60956,8.88991 -0.32416,4.7555 0.10575,9.82425 2.12847,14.14032 1.81256,3.86762 4.74654,7.56731 8.51748,9.57326 6.65053,3.53775 22.39603,3.02071 22.39603,3.02071 z"
       id="path50350"
       sodipodi:nodetypes="ccccsasccaaaaaacc" />
    <path
       style="opacity:1;fill:#afafaf;fill-opacity:1;stroke:#646464;stroke-width:0.352778;stroke-linecap:butt;stroke-linejoin:round;stroke-miterlimit:4;stroke-dasharray:none;stroke-opacity:1"
       d="m 86.728913,214.22653 22.161737,2.36471 -0.62815,-112.66309 -21.7817,0.17724 0.248113,110.12114"
       id="path50653" />
    <path
       id="rect50823"
       style="opacity:1;fill:#61a3b2;fill-opacity:1;stroke:#646464;stroke-width:0.352778;stroke-linejoin:round;stroke-miterlimit:4;stroke-dasharray:none;stroke-opacity:1"
       transform="rotate(-3.0294968)"
       d="m 164.61184,151.75964 25.14075,0.52397 -0.35775,11.78123 -24.783,-0.0386 z"
       sodipodi:nodetypes="ccccc" />
    <path
       style="color:#000000;fill:#c8f0f0;fill-opacity:1;stroke-linecap:round;stroke-linejoin:round;-inkscape-stroke:none"
       d="m 130.25391,7.9511719 a 1.25,1.25 0 0 0 -1.16602,1.328125 l 5.25781,80.7656251 a 1.25,1.25 0 0 0 1.33008,1.166015 1.25,1.25 0 0 0 1.16602,-1.328125 L 131.58203,9.1171875 a 1.25,1.25 0 0 0 -1.32812,-1.1660156 z"
       id="path17588" />
    <path
       style="color:#000000;opacity:1;fill:#c8f0f0;fill-opacity:1;stroke-linecap:round;stroke-linejoin:round;-inkscape-stroke:none"
       d="m 208.96786,182.17057 -32.38968,1.59298 c -0.68918,0.0347 -1.21984,0.62134 -1.18555,1.31054 0.0337,0.68996 0.67135,1.218 1.36128,1.18372 l 32.28857,-1.58818 z"
       id="path17590"
       sodipodi:nodetypes="cccccc" />
    <path
       style="fill:#c8c8c8;fill-opacity:1;stroke:#646464;stroke-width:0.264583px;stroke-linecap:butt;stroke-linejoin:miter;stroke-opacity:1"
       d="m 86.728913,214.22653 22.151097,0.45697 43.39637,6.5371 z"
       id="path97333" />
  </g>
</svg>
